<?xml version="1.0" encoding="UTF-8"?>
<!DOCTYPE X3D PUBLIC "ISO//Web3D//DTD X3D 3.3//EN" "https://www.web3d.org/specifications/x3d-3.3.dtd">
<X3D profile='Interchange' version='3.3' xmlns:xsd='http://www.w3.org/2001/XMLSchema-instance' xsd:noNamespaceSchemaLocation='https://www.web3d.org/specifications/x3d-3.3.xsd'>
  <head>
    <meta content='BonesRightTibiaFibula.x3d' name='title'/>
    <meta content='Damon Hernandez, Joe Williams' name='creator'/>
    <meta content='Human bone model for Right Tibia Fibula' name='description'/>
    <meta content='Joe Williams, Don Brutzman' name='translator'/>
    <meta content='5 December 2013' name='created'/>
    <meta content='2 March 2026' name='modified'/>
    <meta content='This model has no HAnim nodes, rather it is purely geometry' name='warning'/>
    <meta content='document unit conversions applied: approximation of inches to meters, which ordinarily is a scale factor of 0.0254' name='TODO'/>
    <meta content='X3D-Edit 4.0, https://www.web3d.org/x3d/tools/X3D-Edit' name='generator'/>
    <meta content='https://www.web3d.org/x3d/content/examples/HumanoidAnimation/Medical/BonesRightTibiaFibula.x3d' name='identifier'/>
    <meta content='../license.html' name='license'/>
  </head>
  <Scene>
    <WorldInfo title='BonesRightTibiaFibula.x3d'/>
    <NavigationInfo type='"EXAMINE" "LOOKAT" "ANY"'/>
    <Transform DEF='DSkeletonParts' scale='0.029 0.029 0.029'>
      <Group DEF='rtibfib'>
        <!-- rtibia rfibia -->
        <Shape DEF='rtibia'>
          <Appearance>
            <Material ambientIntensity='0.098' diffuseColor='1 0.9765 0.8667' emissiveColor='1 1 0' shininess='0.05' specularColor='0.349 0.349 0.349'/>
          </Appearance>
          <IndexedFaceSet DEF='rtibia_Geo' coordIndex='0 1 2 -1 1 3 2 -1 4 5 6 -1 4 7 5 -1 6 8 9 -1 10 11 12 -1 13 14 15 -1 16 17 18 -1 19 20 21 -1 21 22 19 -1 21 23 22 -1 24 25 26 -1 24 27 25 -1 28 29 30 -1 28 31 29 -1 32 33 34 -1 35 36 37 -1 36 38 37 -1 39 40 41 -1 42 43 44 -1 45 46 47 -1 45 0 46 -1 8 48 9 -1 48 49 9 -1 50 51 52 -1 53 54 55 -1 56 57 58 -1 59 60 61 -1 62 63 64 -1 63 43 64 -1 65 66 67 -1 67 68 65 -1 69 70 71 -1 71 72 69 -1 58 73 74 -1 74 75 58 -1 76 77 78 -1 78 79 76 -1 59 80 78 -1 80 79 78 -1 81 60 82 -1 82 83 81 -1 84 85 86 -1 40 87 88 -1 88 47 40 -1 44 89 90 -1 44 91 89 -1 92 93 94 -1 92 27 93 -1 95 96 97 -1 96 98 97 -1 99 100 101 -1 99 102 100 -1 103 104 105 -1 105 106 103 -1 107 108 109 -1 108 110 109 -1 111 112 113 -1 114 115 116 -1 114 117 115 -1 118 119 120 -1 119 121 120 -1 122 123 124 -1 123 125 124 -1 126 127 128 -1 127 129 128 -1 130 83 131 -1 130 132 83 -1 52 133 134 -1 52 135 133 -1 134 50 52 -1 11 3 136 -1 11 10 3 -1 137 138 139 -1 137 140 138 -1 20 141 142 -1 20 143 141 -1 144 145 146 -1 147 148 149 -1 150 151 152 -1 153 154 155 -1 156 157 158 -1 158 159 156 -1 160 161 162 -1 163 164 165 -1 166 167 168 -1 166 169 167 -1 155 170 171 -1 145 144 172 -1 172 173 145 -1 174 175 176 -1 177 178 179 -1 177 180 178 -1 181 182 183 -1 184 185 186 -1 184 187 185 -1 188 189 190 -1 191 192 193 -1 191 194 192 -1 195 196 197 -1 198 199 200 -1 199 201 200 -1 202 203 204 -1 202 205 203 -1 206 207 208 -1 209 210 150 -1 211 212 213 -1 214 215 216 -1 217 218 219 -1 217 220 218 -1 175 221 222 -1 223 224 225 -1 226 227 228 -1 226 229 227 -1 227 230 231 -1 231 228 227 -1 232 233 234 -1 234 235 232 -1 236 237 238 -1 236 239 237 -1 240 241 242 -1 240 243 241 -1 244 245 246 -1 245 247 246 -1 248 249 250 -1 250 251 248 -1 252 253 192 -1 253 254 192 -1 201 151 255 -1 201 199 151 -1 256 257 258 -1 257 259 258 -1 260 261 262 -1 260 263 261 -1 264 265 266 -1 265 267 266 -1 268 269 172 -1 172 144 268 -1 270 170 271 -1 270 171 170 -1 195 272 273 -1 195 197 272 -1 253 274 254 -1 275 276 277 -1 278 279 280 -1 280 281 278 -1 282 283 284 -1 276 285 286 -1 287 168 288 -1 289 290 291 -1 289 292 290 -1 293 294 295 -1 296 297 298 -1 299 300 301 -1 299 244 300 -1 290 292 167 -1 167 302 290 -1 303 304 305 -1 306 307 308 -1 307 309 308 -1 310 311 312 -1 311 313 312 -1 314 159 315 -1 314 156 159 -1 302 231 232 -1 232 316 302 -1 317 318 319 -1 317 320 318 -1 321 322 323 -1 322 324 323 -1 325 322 326 -1 325 324 322 -1 327 325 34 -1 327 328 325 -1 192 254 193 -1 329 330 331 -1 329 332 330 -1 333 334 196 -1 315 335 314 -1 315 336 335 -1 337 338 339 -1 340 341 342 -1 341 343 342 -1 344 345 346 -1 347 33 32 -1 348 322 214 -1 348 326 322 -1 349 350 216 -1 350 214 216 -1 351 352 353 -1 351 354 352 -1 328 355 356 -1 319 323 357 -1 357 358 319 -1 356 359 360 -1 356 355 359 -1 358 357 361 -1 358 361 362 -1 361 363 362 -1 234 364 365 -1 365 366 234 -1 367 312 313 -1 368 369 370 -1 370 235 368 -1 371 372 373 -1 371 346 372 -1 374 375 170 -1 374 376 375 -1 377 378 347 -1 378 33 347 -1 379 238 380 -1 380 381 379 -1 382 128 383 -1 128 130 383 -1 384 385 386 -1 385 387 386 -1 388 352 389 -1 389 336 388 -1 390 391 281 -1 281 275 390 -1 392 256 258 -1 196 393 333 -1 196 195 393 -1 201 204 200 -1 201 202 204 -1 394 197 395 -1 396 397 198 -1 198 206 396 -1 139 398 399 -1 139 138 398 -1 131 383 130 -1 131 400 383 -1 401 273 272 -1 401 402 273 -1 403 404 405 -1 404 406 405 -1 137 407 140 -1 408 374 409 -1 408 376 374 -1 410 411 412 -1 411 413 412 -1 412 413 414 -1 413 415 414 -1 416 410 417 -1 410 412 417 -1 418 419 420 -1 420 421 418 -1 118 422 119 -1 118 423 422 -1 424 425 426 -1 424 427 425 -1 428 426 429 -1 428 430 426 -1 428 49 48 -1 428 429 49 -1 47 88 45 -1 431 136 432 -1 136 433 432 -1 21 434 23 -1 21 435 434 -1 436 437 438 -1 87 43 439 -1 87 64 43 -1 7 440 441 -1 7 4 440 -1 86 442 84 -1 77 443 444 -1 444 445 77 -1 446 79 447 -1 446 76 79 -1 448 447 449 -1 448 446 447 -1 450 451 452 -1 450 453 451 -1 129 73 58 -1 129 127 73 -1 289 454 455 -1 289 291 454 -1 166 168 287 -1 287 456 166 -1 298 218 457 -1 298 458 218 -1 459 164 460 -1 164 163 460 -1 461 462 463 -1 461 464 462 -1 465 466 461 -1 466 464 461 -1 467 468 469 -1 468 470 469 -1 471 472 473 -1 471 474 472 -1 456 475 166 -1 475 476 166 -1 477 478 479 -1 478 480 479 -1 223 267 265 -1 265 224 223 -1 479 161 481 -1 482 483 484 -1 483 268 484 -1 269 485 172 -1 269 486 485 -1 487 146 488 -1 487 484 146 -1 145 488 146 -1 31 28 489 -1 178 180 490 -1 491 300 263 -1 491 301 300 -1 300 492 263 -1 492 261 263 -1 492 493 261 -1 493 266 261 -1 494 495 496 -1 494 497 495 -1 498 499 500 -1 498 501 499 -1 502 503 504 -1 504 505 502 -1 175 506 176 -1 175 222 506 -1 507 508 498 -1 507 509 508 -1 510 511 500 -1 512 513 514 -1 512 515 513 -1 516 517 303 -1 303 305 516 -1 518 519 520 -1 521 516 522 -1 521 523 516 -1 524 525 411 -1 526 527 114 -1 528 529 100 -1 529 101 100 -1 102 530 531 -1 531 106 102 -1 532 533 104 -1 533 105 104 -1 534 416 418 -1 534 535 416 -1 536 73 127 -1 537 538 539 -1 537 540 538 -1 541 26 25 -1 25 542 541 -1 541 542 543 -1 543 544 541 -1 545 546 547 -1 547 548 545 -1 549 134 133 -1 72 550 551 -1 72 71 550 -1 552 553 66 -1 554 553 51 -1 553 552 51 -1 555 544 556 -1 555 541 544 -1 557 558 559 -1 557 560 558 -1 561 562 563 -1 561 564 562 -1 559 565 566 -1 559 567 565 -1 568 569 283 -1 568 570 569 -1 571 385 384 -1 384 572 571 -1 573 574 532 -1 573 572 574 -1 564 561 575 -1 561 122 575 -1 576 534 577 -1 576 578 534 -1 576 577 118 -1 118 120 576 -1 561 123 122 -1 562 564 141 -1 96 579 580 -1 96 581 579 -1 97 558 95 -1 558 582 95 -1 123 563 583 -1 123 561 563 -1 560 582 558 -1 560 584 582 -1 560 585 586 -1 560 557 585 -1 587 588 555 -1 587 589 588 -1 588 541 555 -1 588 26 541 -1 590 67 54 -1 54 591 590 -1 592 593 594 -1 594 586 592 -1 595 596 597 -1 597 598 595 -1 599 72 551 -1 599 65 72 -1 545 548 600 -1 24 601 27 -1 602 452 603 -1 452 604 603 -1 605 606 539 -1 539 538 605 -1 538 540 607 -1 607 608 538 -1 73 609 610 -1 73 536 609 -1 529 521 101 -1 529 611 521 -1 612 613 614 -1 527 411 114 -1 527 524 411 -1 524 615 525 -1 615 616 525 -1 515 512 617 -1 618 619 520 -1 618 620 619 -1 621 622 509 -1 621 623 622 -1 517 624 625 -1 513 626 627 -1 515 617 628 -1 628 629 515 -1 174 630 631 -1 174 176 630 -1 632 498 508 -1 632 501 498 -1 499 510 500 -1 499 633 510 -1 262 632 260 -1 262 501 632 -1 221 634 222 -1 634 635 222 -1 636 637 29 -1 637 30 29 -1 490 638 178 -1 638 639 178 -1 640 486 269 -1 640 160 486 -1 640 641 160 -1 640 642 641 -1 642 264 266 -1 266 493 642 -1 493 643 641 -1 641 642 493 -1 644 455 454 -1 454 645 644 -1 492 300 244 -1 244 246 492 -1 646 241 219 -1 241 217 219 -1 647 648 649 -1 649 243 647 -1 475 247 476 -1 247 245 476 -1 231 302 228 -1 302 167 228 -1 650 471 651 -1 471 473 651 -1 316 652 302 -1 316 653 652 -1 654 655 468 -1 468 467 654 -1 465 461 296 -1 296 656 465 -1 229 657 227 -1 229 297 657 -1 227 658 230 -1 227 657 658 -1 302 652 290 -1 291 659 454 -1 291 470 659 -1 660 645 454 -1 454 659 660 -1 661 662 663 -1 661 664 662 -1 57 132 129 -1 129 58 57 -1 59 78 82 -1 82 60 59 -1 665 666 445 -1 666 82 445 -1 665 667 668 -1 665 669 667 -1 670 671 63 -1 672 443 673 -1 672 444 443 -1 672 673 674 -1 673 675 674 -1 40 64 87 -1 40 39 64 -1 46 441 674 -1 674 41 46 -1 89 433 90 -1 433 1 90 -1 676 89 677 -1 89 91 677 -1 435 20 16 -1 435 21 20 -1 678 679 18 -1 678 680 679 -1 681 682 2 -1 2 683 681 -1 429 425 667 -1 429 426 425 -1 430 684 424 -1 424 426 430 -1 16 20 17 -1 20 142 17 -1 685 686 687 -1 685 688 686 -1 689 690 691 -1 689 692 690 -1 577 423 118 -1 577 421 423 -1 418 416 419 -1 416 417 419 -1 411 525 413 -1 525 693 413 -1 694 695 403 -1 415 696 697 -1 698 699 700 -1 698 701 699 -1 702 158 250 -1 158 157 250 -1 138 703 704 -1 138 140 703 -1 694 403 705 -1 403 405 705 -1 404 706 406 -1 706 707 406 -1 708 709 401 -1 708 710 709 -1 711 712 402 -1 402 713 711 -1 383 714 715 -1 383 400 714 -1 396 395 397 -1 396 394 395 -1 207 200 204 -1 255 202 201 -1 255 716 202 -1 716 717 718 -1 716 255 717 -1 719 212 720 -1 719 721 212 -1 722 723 331 -1 722 724 723 -1 385 725 387 -1 725 726 387 -1 284 569 727 -1 284 283 569 -1 728 596 729 -1 728 730 596 -1 729 595 382 -1 729 596 595 -1 280 731 257 -1 280 279 731 -1 631 630 732 -1 732 733 631 -1 734 735 278 -1 736 737 391 -1 391 738 736 -1 736 236 238 -1 238 379 736 -1 377 347 739 -1 739 738 377 -1 740 741 742 -1 742 743 740 -1 373 338 744 -1 373 372 338 -1 650 651 745 -1 651 341 745 -1 746 369 747 -1 747 748 749 -1 749 750 747 -1 748 751 270 -1 316 232 235 -1 235 370 316 -1 311 752 313 -1 753 360 359 -1 356 361 357 -1 356 360 361 -1 356 325 328 -1 356 324 325 -1 327 353 307 -1 327 351 353 -1 320 215 321 -1 321 318 320 -1 754 349 216 -1 754 462 349 -1 350 755 214 -1 755 348 214 -1 37 326 348 -1 37 38 326 -1 345 35 37 -1 345 344 35 -1 347 756 739 -1 347 757 756 -1 239 758 237 -1 338 372 755 -1 755 339 338 -1 346 340 344 -1 340 342 344 -1 341 759 343 -1 341 651 759 -1 193 254 760 -1 760 761 193 -1 331 330 762 -1 762 722 331 -1 344 763 35 -1 358 362 764 -1 464 349 462 -1 464 337 349 -1 339 755 350 -1 323 356 357 -1 323 324 356 -1 765 367 313 -1 313 153 765 -1 373 471 650 -1 373 474 471 -1 373 766 474 -1 745 767 371 -1 299 768 242 -1 299 301 768 -1 184 635 187 -1 769 770 771 -1 657 297 463 -1 309 367 308 -1 772 773 774 -1 773 775 774 -1 286 285 718 -1 718 717 286 -1 663 659 776 -1 663 660 659 -1 741 750 777 -1 741 740 750 -1 509 503 508 -1 778 687 691 -1 778 685 687 -1 779 111 108 -1 53 566 780 -1 53 781 566 -1 782 565 113 -1 113 112 782 -1 718 258 259 -1 150 255 151 -1 783 724 393 -1 212 784 213 -1 212 721 784 -1 299 646 244 -1 646 245 244 -1 753 359 308 -1 308 785 753 -1 483 269 268 -1 483 640 269 -1 262 261 266 -1 266 267 262 -1 786 263 260 -1 786 491 263 -1 634 787 788 -1 634 789 787 -1 790 717 210 -1 790 286 717 -1 720 332 719 -1 720 293 332 -1 497 488 495 -1 497 487 488 -1 641 161 160 -1 641 481 161 -1 646 242 241 -1 646 299 242 -1 235 366 368 -1 235 234 366 -1 364 753 365 -1 364 363 753 -1 264 642 640 -1 499 501 223 -1 458 791 218 -1 791 219 218 -1 328 306 355 -1 784 792 213 -1 152 793 294 -1 390 275 277 -1 716 205 202 -1 716 794 205 -1 394 272 197 -1 194 156 192 -1 194 157 156 -1 788 181 183 -1 788 787 181 -1 242 768 795 -1 179 178 796 -1 172 797 173 -1 769 771 798 -1 798 799 769 -1 155 773 153 -1 773 765 153 -1 458 298 297 -1 297 229 458 -1 623 305 304 -1 647 800 648 -1 791 169 801 -1 791 226 169 -1 162 644 645 -1 154 153 752 -1 153 313 752 -1 802 148 147 -1 747 750 740 -1 740 746 747 -1 742 803 654 -1 654 467 742 -1 804 143 19 -1 143 20 19 -1 564 688 142 -1 142 141 564 -1 805 589 562 -1 806 139 807 -1 806 137 139 -1 82 78 77 -1 77 445 82 -1 445 444 665 -1 444 808 665 -1 674 441 440 -1 440 672 674 -1 75 74 809 -1 809 810 75 -1 811 591 812 -1 811 556 591 -1 526 116 813 -1 526 114 116 -1 113 567 814 -1 113 565 567 -1 111 110 108 -1 111 815 110 -1 106 105 100 -1 100 102 106 -1 522 99 521 -1 99 101 521 -1 600 70 545 -1 91 27 677 -1 91 93 27 -1 44 93 91 -1 814 98 815 -1 60 81 61 -1 80 61 816 -1 80 59 61 -1 74 73 610 -1 610 809 74 -1 72 65 69 -1 65 68 69 -1 85 443 77 -1 77 76 85 -1 817 818 62 -1 819 79 80 -1 453 450 820 -1 94 671 450 -1 450 92 94 -1 821 670 63 -1 63 62 821 -1 5 8 6 -1 88 437 45 -1 437 436 45 -1 436 438 1 -1 438 90 1 -1 43 42 439 -1 177 29 31 -1 179 796 636 -1 588 24 26 -1 679 822 435 -1 822 434 435 -1 823 11 431 -1 11 136 431 -1 679 824 822 -1 825 826 531 -1 825 578 826 -1 2 682 0 -1 682 46 0 -1 827 808 440 -1 440 4 827 -1 667 49 429 -1 667 669 49 -1 827 6 9 -1 827 4 6 -1 667 425 668 -1 3 433 136 -1 3 1 433 -1 10 12 683 -1 3 683 2 -1 3 10 683 -1 669 9 49 -1 669 827 9 -1 46 7 441 -1 682 7 46 -1 578 828 826 -1 578 576 828 -1 434 823 431 -1 822 823 434 -1 433 676 432 -1 433 89 676 -1 177 636 29 -1 177 179 636 -1 37 755 345 -1 37 348 755 -1 45 1 0 -1 1 45 436 -1 437 87 439 -1 437 88 87 -1 821 820 670 -1 821 829 820 -1 94 63 671 -1 94 43 63 -1 450 602 92 -1 452 602 450 -1 451 604 452 -1 451 830 604 -1 831 832 549 -1 831 833 832 -1 673 442 675 -1 84 442 673 -1 834 71 70 -1 550 71 834 -1 75 56 58 -1 835 56 75 -1 453 829 836 -1 820 829 453 -1 540 819 607 -1 540 837 819 -1 838 839 537 -1 838 836 839 -1 115 531 530 -1 531 115 825 -1 113 815 111 -1 815 113 814 -1 612 813 116 -1 813 612 614 -1 840 811 812 -1 583 811 840 -1 556 590 591 -1 556 544 590 -1 542 602 603 -1 602 542 25 -1 546 70 69 -1 545 70 546 -1 841 609 536 -1 842 609 841 -1 810 835 75 -1 608 835 810 -1 609 549 610 -1 134 549 609 -1 86 817 442 -1 818 817 86 -1 444 440 808 -1 444 672 440 -1 684 843 424 -1 843 684 844 -1 845 846 847 -1 846 845 690 -1 403 692 848 -1 403 695 692 -1 849 807 714 -1 849 806 807 -1 589 850 588 -1 589 805 850 -1 469 851 743 -1 469 653 851 -1 743 746 740 -1 851 746 743 -1 646 791 801 -1 219 791 646 -1 169 476 801 -1 169 166 476 -1 480 644 479 -1 455 644 480 -1 852 292 289 -1 852 288 292 -1 765 772 785 -1 765 773 772 -1 511 853 618 -1 853 511 510 -1 853 798 854 -1 799 798 853 -1 855 31 734 -1 31 855 856 -1 505 186 185 -1 186 505 504 -1 304 622 623 -1 304 857 622 -1 787 768 181 -1 787 795 768 -1 207 203 208 -1 204 203 207 -1 794 718 259 -1 794 716 718 -1 649 165 858 -1 648 165 649 -1 754 215 320 -1 754 216 215 -1 859 363 364 -1 859 362 363 -1 365 785 772 -1 785 365 753 -1 774 368 366 -1 774 860 368 -1 171 751 775 -1 751 171 270 -1 163 380 460 -1 163 638 380 -1 163 800 638 -1 861 641 643 -1 861 481 641 -1 162 486 160 -1 162 862 486 -1 863 375 864 -1 863 865 375 -1 485 664 866 -1 485 662 664 -1 867 149 148 -1 867 145 149 -1 867 488 145 -1 495 488 867 -1 868 769 225 -1 868 770 769 -1 869 494 496 -1 870 494 869 -1 871 872 873 -1 871 802 872 -1 784 874 335 -1 784 721 874 -1 760 274 723 -1 760 254 274 -1 393 722 333 -1 393 724 722 -1 719 329 875 -1 329 719 332 -1 209 293 720 -1 209 294 293 -1 793 876 877 -1 876 793 878 -1 285 258 718 -1 258 285 392 -1 276 790 277 -1 276 286 790 -1 735 279 278 -1 279 735 733 -1 30 174 28 -1 174 30 175 -1 786 181 491 -1 182 181 786 -1 764 859 658 -1 859 764 362 -1 638 647 639 -1 800 647 638 -1 802 879 872 -1 802 147 879 -1 150 294 209 -1 294 150 152 -1 634 637 789 -1 637 634 221 -1 880 705 726 -1 880 704 705 -1 565 780 566 -1 780 565 782 -1 781 55 881 -1 55 781 53 -1 124 111 779 -1 112 111 124 -1 420 423 421 -1 882 423 420 -1 687 689 691 -1 687 422 689 -1 778 17 685 -1 883 17 778 -1 828 103 826 -1 828 107 103 -1 653 470 652 -1 470 653 469 -1 468 659 470 -1 468 776 659 -1 367 884 312 -1 884 367 309 -1 751 747 860 -1 751 748 747 -1 785 367 765 -1 308 367 785 -1 757 885 756 -1 885 757 763 -1 886 657 463 -1 886 658 657 -1 887 186 857 -1 887 184 186 -1 297 461 463 -1 297 296 461 -1 155 775 773 -1 171 775 155 -1 319 321 323 -1 321 319 318 -1 464 338 337 -1 466 338 464 -1 326 34 325 -1 326 38 34 -1 394 13 708 -1 394 888 13 -1 889 193 761 -1 889 191 193 -1 606 834 890 -1 833 834 606 -1 891 513 892 -1 891 514 513 -1 758 759 459 -1 758 343 759 -1 459 237 758 -1 459 460 237 -1 758 756 885 -1 756 758 239 -1 344 885 763 -1 344 342 885 -1 354 33 378 -1 33 354 351 -1 214 321 215 -1 214 322 321 -1 352 884 353 -1 352 388 884 -1 312 388 310 -1 312 884 388 -1 749 270 271 -1 749 748 270 -1 893 863 894 -1 893 865 863 -1 749 777 750 -1 777 749 893 -1 369 851 370 -1 369 746 851 -1 895 741 777 -1 896 741 895 -1 340 745 341 -1 745 340 767 -1 744 466 897 -1 744 338 466 -1 741 803 742 -1 741 896 803 -1 236 738 739 -1 736 738 236 -1 737 379 855 -1 736 379 737 -1 489 734 31 -1 734 489 735 -1 391 278 281 -1 737 278 391 -1 733 731 279 -1 733 732 731 -1 732 898 899 -1 732 630 898 -1 900 257 731 -1 257 900 259 -1 900 901 902 -1 900 899 901 -1 903 904 523 -1 903 901 904 -1 794 905 205 -1 794 902 905 -1 611 905 903 -1 905 611 906 -1 529 906 611 -1 906 529 907 -1 907 528 908 -1 907 529 528 -1 909 188 908 -1 189 188 909 -1 572 910 574 -1 384 910 572 -1 382 715 729 -1 382 383 715 -1 911 729 715 -1 911 728 729 -1 727 911 399 -1 727 728 911 -1 399 284 727 -1 398 284 399 -1 726 282 880 -1 725 282 726 -1 912 910 913 -1 912 189 910 -1 354 914 915 -1 354 378 914 -1 916 390 277 -1 916 914 390 -1 277 211 916 -1 211 277 790 -1 213 916 211 -1 213 792 916 -1 389 335 336 -1 335 389 784 -1 760 712 761 -1 783 712 760 -1 295 762 330 -1 762 295 877 -1 877 294 793 -1 877 295 294 -1 196 876 917 -1 876 196 334 -1 151 918 878 -1 151 199 918 -1 917 197 196 -1 197 917 395 -1 394 919 888 -1 394 396 919 -1 913 920 912 -1 707 920 913 -1 406 387 405 -1 406 386 387 -1 911 714 807 -1 714 911 715 -1 761 711 889 -1 761 712 711 -1 709 402 401 -1 709 713 402 -1 708 15 710 -1 15 708 13 -1 706 920 707 -1 706 14 920 -1 694 704 703 -1 704 694 705 -1 702 752 158 -1 702 154 752 -1 194 699 251 -1 699 194 191 -1 889 921 700 -1 921 889 711 -1 713 697 922 -1 697 713 709 -1 702 374 154 -1 409 374 702 -1 251 701 248 -1 701 251 699 -1 923 700 921 -1 923 698 700 -1 696 922 697 -1 696 924 922 -1 710 414 415 -1 414 710 15 -1 925 14 706 -1 925 926 14 -1 404 848 927 -1 848 404 403 -1 695 703 846 -1 703 695 694 -1 843 140 407 -1 843 847 140 -1 248 928 879 -1 928 248 701 -1 923 892 698 -1 923 891 892 -1 924 693 929 -1 693 924 696 -1 926 419 417 -1 419 926 925 -1 882 927 848 -1 882 420 927 -1 930 408 931 -1 930 376 408 -1 928 872 879 -1 627 872 928 -1 929 514 891 -1 514 929 616 -1 422 686 119 -1 422 687 686 -1 778 690 845 -1 691 690 778 -1 883 845 844 -1 883 778 845 -1 688 17 142 -1 685 17 688 -1 680 684 430 -1 680 678 684 -1 932 48 8 -1 932 933 48 -1 682 5 7 -1 681 5 682 -1 934 935 933 -1 824 935 934 -1 680 824 679 -1 824 680 935 -1 22 804 19 -1 22 936 804 -1 601 677 27 -1 601 936 677 -1 601 588 850 -1 601 24 588 -1 92 25 27 -1 25 92 602 -1 41 675 39 -1 41 674 675 -1 808 669 665 -1 827 669 808 -1 449 821 448 -1 821 449 829 -1 839 447 837 -1 839 449 447 -1 425 806 849 -1 425 427 806 -1 937 665 668 -1 665 937 666 -1 400 666 937 -1 666 400 131 -1 666 83 82 -1 131 83 666 -1 57 83 132 -1 57 81 83 -1 862 663 662 -1 862 660 663 -1 664 894 863 -1 894 664 661 -1 661 895 894 -1 895 661 938 -1 776 655 938 -1 468 655 776 -1 939 220 858 -1 939 940 220 -1 462 886 463 -1 886 462 754 -1 941 457 940 -1 941 656 457 -1 939 942 943 -1 942 939 164 -1 656 944 465 -1 944 656 941 -1 473 943 942 -1 473 472 943 -1 803 655 654 -1 803 896 655 -1 467 743 742 -1 743 467 469 -1 465 897 466 -1 766 465 944 -1 465 766 897 -1 169 228 167 -1 169 226 228 -1 287 478 456 -1 287 945 478 -1 475 861 247 -1 861 475 477 -1 241 649 217 -1 241 243 649 -1 801 245 646 -1 476 245 801 -1 246 493 492 -1 643 493 246 -1 477 481 861 -1 477 479 481 -1 482 265 483 -1 224 265 482 -1 931 797 930 -1 173 797 931 -1 638 381 380 -1 381 638 490 -1 789 636 796 -1 636 789 637 -1 795 240 242 -1 796 240 795 -1 768 491 181 -1 768 301 491 -1 788 635 634 -1 635 788 187 -1 224 868 225 -1 868 224 482 -1 867 802 871 -1 802 867 148 -1 626 869 873 -1 869 626 629 -1 628 798 870 -1 798 628 854 -1 624 630 176 -1 624 898 630 -1 625 184 887 -1 625 506 184 -1 620 628 617 -1 620 854 628 -1 513 629 626 -1 513 515 629 -1 898 517 904 -1 517 898 624 -1 517 887 303 -1 517 625 887 -1 946 509 507 -1 946 621 509 -1 618 519 511 -1 520 519 618 -1 620 512 619 -1 620 617 512 -1 947 946 948 -1 947 621 946 -1 615 619 512 -1 615 949 619 -1 613 947 614 -1 613 305 947 -1 526 948 518 -1 526 813 948 -1 524 949 615 -1 524 527 949 -1 612 522 613 -1 522 612 99 -1 530 116 115 -1 530 612 116 -1 535 410 416 -1 117 410 535 -1 908 533 909 -1 528 533 908 -1 605 608 810 -1 538 608 605 -1 537 950 838 -1 537 539 950 -1 830 838 950 -1 838 830 451 -1 890 70 600 -1 70 890 834 -1 133 831 549 -1 133 135 831 -1 951 69 68 -1 546 69 951 -1 593 50 842 -1 593 592 50 -1 841 595 598 -1 595 841 126 -1 597 593 598 -1 593 597 594 -1 554 586 585 -1 554 592 586 -1 553 55 66 -1 55 553 881 -1 805 804 850 -1 143 804 805 -1 555 811 587 -1 556 811 555 -1 557 881 585 -1 557 781 881 -1 584 586 594 -1 584 560 586 -1 730 597 596 -1 730 952 597 -1 584 570 582 -1 584 952 570 -1 780 812 53 -1 812 780 840 -1 589 563 562 -1 563 589 587 -1 782 840 780 -1 782 125 840 -1 581 95 568 -1 95 581 96 -1 725 581 282 -1 581 725 579 -1 580 571 953 -1 571 580 579 -1 98 567 97 -1 814 567 98 -1 98 580 815 -1 580 98 96 -1 575 119 686 -1 121 119 575 -1 120 954 955 -1 954 120 121 -1 573 110 953 -1 109 110 573 -1 109 532 104 -1 109 573 532 -1 418 577 534 -1 418 421 577 -1 953 815 580 -1 815 953 110 -1 122 121 575 -1 121 122 954 -1 686 564 575 -1 686 688 564 -1 572 953 571 -1 573 953 572 -1 385 579 725 -1 385 571 579 -1 568 282 581 -1 568 283 282 -1 558 567 559 -1 97 567 558 -1 568 582 570 -1 582 568 95 -1 562 143 805 -1 141 143 562 -1 583 587 811 -1 587 583 563 -1 781 559 566 -1 781 557 559 -1 569 952 730 -1 952 569 570 -1 594 952 584 -1 952 594 597 -1 54 812 591 -1 54 53 812 -1 553 585 881 -1 553 554 585 -1 598 842 841 -1 598 593 842 -1 592 51 50 -1 554 51 592 -1 135 599 551 -1 52 599 135 -1 68 590 951 -1 68 67 590 -1 831 551 550 -1 831 135 551 -1 832 810 809 -1 832 605 810 -1 604 547 603 -1 548 547 604 -1 950 600 830 -1 600 950 890 -1 539 890 950 -1 539 606 890 -1 535 578 825 -1 535 534 578 -1 532 909 533 -1 532 574 909 -1 105 528 100 -1 533 528 105 -1 117 825 115 -1 117 535 825 -1 117 411 410 -1 117 114 411 -1 530 99 612 -1 530 102 99 -1 527 518 949 -1 527 526 518 -1 948 614 947 -1 614 948 813 -1 305 522 516 -1 305 613 522 -1 616 512 514 -1 615 512 616 -1 520 949 518 -1 949 520 619 -1 519 948 946 -1 519 518 948 -1 623 947 305 -1 947 623 621 -1 904 516 523 -1 516 904 517 -1 511 946 507 -1 519 946 511 -1 854 618 853 -1 620 618 854 -1 500 507 498 -1 511 507 500 -1 503 622 504 -1 509 622 503 -1 506 624 176 -1 625 624 506 -1 506 635 184 -1 222 635 506 -1 629 870 869 -1 870 629 628 -1 627 873 872 -1 873 627 626 -1 871 495 867 -1 871 496 495 -1 494 770 497 -1 494 771 770 -1 267 501 262 -1 501 267 223 -1 260 502 786 -1 502 260 632 -1 505 786 502 -1 182 786 505 -1 789 795 787 -1 789 796 795 -1 639 796 178 -1 639 240 796 -1 490 856 381 -1 856 490 180 -1 149 173 931 -1 149 145 173 -1 866 930 797 -1 866 864 930 -1 485 797 172 -1 485 866 797 -1 144 484 268 -1 484 144 146 -1 484 868 482 -1 868 484 487 -1 945 480 478 -1 480 945 852 -1 456 477 475 -1 456 478 477 -1 474 944 472 -1 474 766 944 -1 370 653 316 -1 851 653 370 -1 473 759 651 -1 473 942 759 -1 472 941 943 -1 472 944 941 -1 942 459 759 -1 942 164 459 -1 943 940 939 -1 943 941 940 -1 457 296 298 -1 656 296 457 -1 858 164 939 -1 165 164 858 -1 940 218 220 -1 940 457 218 -1 938 896 895 -1 655 896 938 -1 663 938 661 -1 663 776 938 -1 162 660 862 -1 162 645 660 -1 937 714 400 -1 937 849 714 -1 668 849 937 -1 849 668 425 -1 837 79 819 -1 79 837 447 -1 836 449 839 -1 836 829 449 -1 450 670 820 -1 450 671 670 -1 62 448 821 -1 448 62 818 -1 818 446 448 -1 446 818 86 -1 86 76 446 -1 76 86 85 -1 850 936 601 -1 936 850 804 -1 936 676 677 -1 936 22 676 -1 434 432 23 -1 434 431 432 -1 934 822 824 -1 934 823 822 -1 933 12 934 -1 12 933 932 -1 8 681 932 -1 681 8 5 -1 933 428 48 -1 933 935 428 -1 430 935 680 -1 428 935 430 -1 883 18 17 -1 883 678 18 -1 678 844 684 -1 883 844 678 -1 929 525 616 -1 929 693 525 -1 892 627 928 -1 627 892 513 -1 149 408 147 -1 931 408 149 -1 848 689 882 -1 689 848 692 -1 925 420 419 -1 420 925 927 -1 417 414 926 -1 417 412 414 -1 413 696 415 -1 413 693 696 -1 929 923 924 -1 929 891 923 -1 928 698 892 -1 928 701 698 -1 409 147 408 -1 147 409 249 -1 424 407 427 -1 424 843 407 -1 847 703 140 -1 846 703 847 -1 927 706 404 -1 927 925 706 -1 15 926 414 -1 926 15 14 -1 921 924 923 -1 924 921 922 -1 249 702 250 -1 249 409 702 -1 415 709 710 -1 415 697 709 -1 922 711 713 -1 922 921 711 -1 700 191 889 -1 191 700 699 -1 427 137 806 -1 427 407 137 -1 13 920 14 -1 13 888 920 -1 315 388 336 -1 315 310 388 -1 273 712 783 -1 402 712 273 -1 807 399 911 -1 807 139 399 -1 726 405 387 -1 705 405 726 -1 386 707 913 -1 406 707 386 -1 912 888 919 -1 920 888 912 -1 190 396 206 -1 396 190 919 -1 918 395 917 -1 395 918 397 -1 917 878 918 -1 878 917 876 -1 720 211 209 -1 720 212 211 -1 874 253 252 -1 253 874 875 -1 915 784 389 -1 915 792 784 -1 792 914 916 -1 792 915 914 -1 790 209 211 -1 790 210 209 -1 256 275 281 -1 392 275 256 -1 738 390 377 -1 390 738 391 -1 914 377 390 -1 914 378 377 -1 354 389 352 -1 354 915 389 -1 919 189 912 -1 190 189 919 -1 384 913 910 -1 913 384 386 -1 284 880 282 -1 284 398 880 -1 727 730 728 -1 727 569 730 -1 126 382 595 -1 128 382 126 -1 189 574 910 -1 189 909 574 -1 208 908 188 -1 208 907 908 -1 907 203 906 -1 208 203 907 -1 205 906 203 -1 205 905 906 -1 523 611 903 -1 523 521 611 -1 902 903 905 -1 902 901 903 -1 902 259 900 -1 794 259 902 -1 901 898 904 -1 899 898 901 -1 731 899 900 -1 731 732 899 -1 381 855 379 -1 381 856 855 -1 154 170 155 -1 170 154 374 -1 376 864 375 -1 376 930 864 -1 371 340 346 -1 767 340 371 -1 777 894 895 -1 777 893 894 -1 893 271 865 -1 893 749 271 -1 364 233 859 -1 234 233 364 -1 360 363 361 -1 360 753 363 -1 309 353 884 -1 307 353 309 -1 319 764 317 -1 358 764 319 -1 351 34 33 -1 34 351 327 -1 885 343 758 -1 885 342 343 -1 337 350 349 -1 350 337 339 -1 833 605 832 -1 833 606 605 -1 329 723 274 -1 329 331 723 -1 397 199 198 -1 397 918 199 -1 708 272 394 -1 401 272 708 -1 721 875 874 -1 721 719 875 -1 36 763 757 -1 763 36 35 -1 32 757 347 -1 32 36 757 -1 772 366 365 -1 366 772 774 -1 859 230 658 -1 859 233 230 -1 159 310 315 -1 159 311 310 -1 307 328 327 -1 328 307 306 -1 745 373 650 -1 745 371 373 -1 373 897 766 -1 373 744 897 -1 857 303 887 -1 304 303 857 -1 632 503 502 -1 508 503 632 -1 369 860 747 -1 368 860 369 -1 293 330 332 -1 330 293 295 -1 852 287 288 -1 945 287 852 -1 291 652 470 -1 291 290 652 -1 828 108 107 -1 955 108 828 -1 531 103 106 -1 826 103 531 -1 882 422 423 -1 689 422 882 -1 112 125 782 -1 112 124 125 -1 704 398 138 -1 398 704 880 -1 483 264 640 -1 264 483 265 -1 221 30 637 -1 221 175 30 -1 251 157 194 -1 157 251 250 -1 633 223 225 -1 499 223 633 -1 320 886 754 -1 320 317 886 -1 631 735 489 -1 733 735 631 -1 281 257 256 -1 281 280 257 -1 392 276 275 -1 392 285 276 -1 150 717 255 -1 150 210 717 -1 878 152 151 -1 878 793 152 -1 877 334 762 -1 334 877 876 -1 762 333 722 -1 333 762 334 -1 723 783 760 -1 724 783 723 -1 875 274 253 -1 875 329 274 -1 335 252 314 -1 252 335 874 -1 393 273 783 -1 393 195 273 -1 249 879 147 -1 879 249 248 -1 873 496 871 -1 869 496 873 -1 870 771 494 -1 798 771 870 -1 497 868 487 -1 770 868 497 -1 486 662 485 -1 486 862 662 -1 863 866 664 -1 866 863 864 -1 170 865 271 -1 375 865 170 -1 247 643 246 -1 247 861 643 -1 639 243 240 -1 639 647 243 -1 460 238 237 -1 238 460 380 -1 739 239 236 -1 739 756 239 -1 860 775 751 -1 775 860 774 -1 231 233 232 -1 231 230 233 -1 359 306 308 -1 355 306 359 -1 317 658 886 -1 764 658 317 -1 229 791 458 -1 791 229 226 -1 648 163 165 -1 163 648 800 -1 858 217 649 -1 858 220 217 -1 198 207 206 -1 198 200 207 -1 188 206 208 -1 206 188 190 -1 192 314 252 -1 192 156 314 -1 183 187 788 -1 187 183 185 -1 857 504 622 -1 857 186 504 -1 185 182 505 -1 185 183 182 -1 489 174 631 -1 28 174 489 -1 856 177 31 -1 177 856 180 -1 737 734 278 -1 734 737 855 -1 853 633 799 -1 853 510 633 -1 288 167 292 -1 167 288 168 -1 455 852 289 -1 480 852 455 -1 644 161 479 -1 644 162 161 -1 158 311 159 -1 311 158 752 -1 225 799 633 -1 799 225 769 -1 692 846 690 -1 695 846 692 -1 844 847 843 -1 847 844 845 -1 12 823 934 -1 12 11 823 -1 43 93 44 -1 43 94 93 -1 546 543 547 -1 951 543 546 -1 608 816 835 -1 607 816 608 -1 130 129 132 -1 128 129 130 -1 536 126 841 -1 536 127 126 -1 842 134 609 -1 50 134 842 -1 603 543 542 -1 603 547 543 -1 951 544 543 -1 544 951 590 -1 125 583 840 -1 123 583 125 -1 122 779 954 -1 779 122 124 -1 108 954 779 -1 955 954 108 -1 109 103 107 -1 103 109 104 -1 437 42 438 -1 439 42 437 -1 81 56 61 -1 56 81 57 -1 451 836 838 -1 836 451 453 -1 537 837 540 -1 537 839 837 -1 607 80 816 -1 607 819 80 -1 817 64 39 -1 817 62 64 -1 442 39 675 -1 39 442 817 -1 443 84 673 -1 85 84 443 -1 56 816 61 -1 56 835 816 -1 832 610 549 -1 832 809 610 -1 833 550 834 -1 831 550 833 -1 55 67 66 -1 54 67 55 -1 548 830 600 -1 830 548 604 -1 552 52 51 -1 552 599 52 -1 599 66 65 -1 599 552 66 -1 41 47 46 -1 41 40 47 -1 90 42 44 -1 438 42 90 -1 38 32 34 -1 36 32 38 -1 372 345 755 -1 346 345 372 -1 22 432 676 -1 23 432 22 -1 679 16 18 -1 679 435 16 -1 955 576 120 -1 576 955 828 -1 683 932 681 -1 683 12 932 -1' creaseAngle='1.571'>
            <Coordinate DEF='rtibia_Coord' point='-1.6899 2.5867 -2.4813 -1.7042 2.6087 -2.5648 -1.6633 2.6344 -2.459 -1.7468 2.7875 -2.4969 -1.7788 2.6986 -2.0111 -1.6966 2.6887 -2.0992 -1.7675 2.7856 -2.0074 -1.6898 2.5387 -2.1644 -1.7763 2.9694 -2.0039 -1.8013 2.8719 -1.9501 -1.7669 2.8998 -2.4328 -1.802 3.0022 -2.4971 -1.7821 3.039 -2.337 -2.6873 11.326 -0.9824 -2.5765 10.4456 -1.2001 -2.5815 11.3343 -1.1046 -2.1069 3.8016 -2.5595 -2.084 3.9497 -2.5318 -2.0849 3.8175 -2.5043 -2.1508 3.5236 -2.7262 -2.1587 3.7619 -2.6483 -2.1068 3.5554 -2.6746 -2.1028 3.3576 -2.7065 -2.0557 3.383 -2.6728 -2.2625 3.1675 -3.0539 -2.3426 3.0016 -3.0086 -2.3333 3.1286 -3.1269 -2.1699 3.001 -2.9057 -4.2101 14.8484 -1.3448 -4.2412 14.9553 -1.4122 -4.1993 14.8509 -1.4011 -4.223 14.9745 -1.2021 -3.3383 15.5904 -0.6668 -3.2662 15.5823 -0.6108 -3.2124 15.5974 -0.8244 -3.3571 15.6221 -0.7362 -3.3489 15.6011 -0.6933 -3.2908 15.6218 -0.8548 -3.2443 15.6082 -0.8454 -1.8594 2.4307 -2.3467 -1.815 2.4337 -2.3549 -1.8099 2.4167 -2.3364 -1.9087 2.6961 -2.6757 -2.0707 2.7669 -2.6679 -1.9169 2.7177 -2.6958 -1.7141 2.5826 -2.4868 -1.7099 2.4567 -2.3063 -1.7266 2.4712 -2.3262 -1.8743 3.1788 -1.9696 -1.8999 3.072 -1.8787 -3.0897 2.9953 -2.588 -2.9643 3.0512 -2.7613 -2.9605 2.994 -2.7562 -2.9242 3.5453 -2.9823 -2.9011 3.3915 -3.0857 -2.9152 3.391 -3.0626 -2.686 2.5697 -2.1604 -2.6967 2.6509 -2.1015 -2.8702 2.5591 -2.2193 -2.3199 2.7064 -2.061 -2.3742 2.7101 -2.0239 -2.4495 2.5986 -2.086 -2.0612 2.7183 -2.4985 -2.0867 2.7682 -2.6443 -2.0377 2.702 -2.5049 -2.9326 2.8599 -3.441 -2.9252 3.0715 -3.3483 -2.9116 3.0779 -3.3638 -2.9135 2.8497 -3.4478 -2.9341 2.7472 -3.3634 -2.8742 2.6906 -3.2714 -2.8924 2.7089 -3.2616 -2.945 2.7652 -3.3453 -3.0467 2.5991 -2.2794 -3.0283 2.5898 -2.2942 -2.8625 2.5583 -2.2405 -2.0991 2.7593 -2.0341 -2.0904 2.7576 -2.0115 -2.198 2.8133 -2.03 -2.2068 2.82 -2.0523 -2.3271 2.7074 -2.0819 -2.4646 2.6813 -2.029 -2.2666 2.7963 -1.9217 -2.4764 2.7452 -1.9495 -1.9409 2.5152 -2.1199 -2.0272 2.6652 -2.0369 -2.0362 2.6502 -2.1724 -1.8997 2.6614 -2.4622 -1.7995 2.6229 -2.4528 -1.9496 2.9489 -2.5937 -1.8059 2.6841 -2.6314 -1.9831 2.8814 -2.7188 -2.2366 2.9129 -2.8698 -2.0523 2.8251 -2.8004 -2.1606 2.8447 -2.7626 -3.0747 4.3815 -2.4818 -3.0597 4.8674 -2.4352 -3.0468 4.3672 -2.561 -3.0004 4.8787 -2.5102 -3.2213 12.3669 -1.6655 -3.2159 11.3746 -1.6177 -3.3396 12.3395 -1.4774 -3.091 11.3921 -1.7264 -2.8323 9.236 -1.9208 -2.9448 9.2278 -1.9133 -3.0899 10.5272 -1.7499 -2.9906 10.5336 -1.7904 -2.7941 7.9519 -2.0387 -2.7391 6.8258 -2.226 -2.9052 7.9538 -2.0415 -2.8937 6.8275 -2.2013 -2.7851 5.8534 -2.4124 -2.7912 4.8862 -2.6006 -2.8958 4.8824 -2.5554 -2.6768 12.4327 -1.916 -2.7129 11.4171 -1.9277 -2.817 12.4195 -1.9036 -2.5975 11.4142 -1.9103 -2.2581 6.8206 -2.314 -2.1771 5.8852 -2.4719 -2.3678 6.8239 -2.3098 -2.3384 5.8962 -2.5138 -2.4591 4.8895 -2.7287 -2.5559 4.4051 -2.8481 -2.6699 4.8932 -2.6668 -2.7041 4.3899 -2.7825 -3.0526 2.8629 -2.1937 -3.076 2.7574 -2.2189 -2.9277 2.7927 -2.0698 -2.9286 2.7206 -2.1043 -2.7193 2.7904 -1.9841 -2.4953 2.8649 -1.8748 -2.7096 2.7168 -2.0152 -3.0551 2.8963 -2.6308 -3.0764 2.8919 -2.5773 -2.9764 2.9041 -2.7548 -1.8201 2.9905 -2.5323 -2.3258 3.7189 -1.8738 -2.4347 4.2426 -1.948 -2.4691 3.6729 -1.8985 -2.2705 4.2292 -1.948 -2.2229 3.9173 -2.6988 -2.141 3.9471 -2.6085 -2.2238 3.7295 -2.7621 -2.0103 15.4538 -2.4514 -1.7401 15.2837 -2.1587 -2.0193 15.3841 -2.4046 -1.6784 15.1673 -1.4783 -1.6816 15.1708 -1.8548 -1.6636 15.2454 -1.8567 -3.3711 14.1311 -0.36 -3.3511 14.1106 -0.3534 -3.342 14.1363 -0.346 -2.123 15.7621 -0.7399 -2.0628 15.6965 -0.7313 -2.0832 15.7973 -0.7524 -2.3129 15.0684 -0.6131 -2.2101 15.0845 -0.6821 -2.1 15.4488 -0.6806 -2.1672 15.4341 -0.6492 -2.5662 15.6611 -2.5044 -2.597 15.6598 -2.4807 -2.5651 15.6824 -2.4849 -4.3629 15.5152 -1.4662 -4.2185 15.5715 -1.5579 -4.2977 15.5255 -1.6612 -3.0417 15.733 -1.9586 -2.8498 15.8982 -1.8586 -2.8564 15.8771 -1.8717 -3.0614 15.7539 -1.9514 -1.7485 15.79 -1.0756 -2.0849 15.8262 -0.8068 -2.0073 15.4886 -2.479 -1.6998 15.3995 -2.1728 -4.1929 14.8211 -1.3448 -4.182 14.8239 -1.4009 -3.9377 14.6564 -1.3831 -4.2713 15.0188 -1.4183 -4.3671 15.2821 -1.7179 -4.342 15.1676 -1.717 -4.3459 15.2041 -1.4438 -3.8508 15.0573 -2.0091 -3.8232 15.0288 -1.996 -3.8409 15.0161 -1.9787 -3.6969 14.74 -1.6878 -3.6856 14.9193 -1.8966 -3.5606 14.7928 -1.798 -3.8772 14.98 -1.8202 -3.1084 11.3483 -1.0557 -3.0333 10.4872 -1.1873 -3.0944 11.347 -1.0295 -2.3384 14.8722 -0.7042 -2.3417 15.0037 -0.6045 -2.4118 14.8591 -0.5747 -2.2525 15.0098 -0.6914 -2.6696 13.8839 -0.4905 -2.7852 13.8474 -0.3985 -2.7674 13.4169 -0.5406 -3.2488 13.2761 -0.5312 -3.3109 13.7001 -0.4348 -3.2606 13.2695 -0.5556 -3.3295 13.7047 -0.4498 -3.321 13.7871 -0.5255 -3.251 13.2665 -0.6656 -3.2532 13.2548 -0.6298 -3.327 13.803 -0.5815 -3.1481 12.3177 -0.8182 -3.1888 12.5925 -0.759 -3.1629 12.3209 -0.8434 -3.2489 14.4765 -0.3261 -3.4946 14.4711 -0.3774 -3.2809 14.7823 -0.3898 -2.9708 14.8436 -0.3576 -2.9637 14.9197 -0.3774 -3.1214 15.768 -1.2815 -3.042 15.9012 -1.3939 -3.0539 15.9084 -1.3983 -3.8785 15.5137 -2.0792 -3.6223 15.6087 -2.1047 -3.6231 15.5725 -2.11 -3.8737 15.5333 -2.0617 -4.3194 14.9783 -1.6815 -4.1083 14.9004 -1.5661 -2.9312 15.0109 -2.334 -2.6873 15.2312 -2.3955 -2.7337 15.0637 -2.3477 -3.1308 15.7928 -1.9369 -2.9748 15.9071 -1.8573 -2.9657 15.902 -1.867 -3.1383 15.8003 -1.9282 -2.8448 15.9748 -1.7537 -2.8356 15.9739 -1.7643 -2.7626 15.9881 -1.7006 -2.775 15.9863 -1.6927 -2.6891 15.9454 -1.4063 -2.6757 15.9488 -1.4105 -4.07 15.6127 -0.8157 -4.188 15.6167 -0.9851 -4.1949 15.6087 -0.9802 -4.0633 15.62 -0.8243 -4.2265 15.428 -1.8686 -3.895 15.4742 -2.0843 -3.8952 15.4594 -2.0856 -4.2243 15.4425 -1.8661 -3.3049 15.4472 -2.1193 -3.3004 15.4609 -2.1155 -3.1054 15.4008 -2.1822 -3.0992 15.413 -2.1756 -1.8238 15.1208 -1.1575 -1.807 15.18 -1.107 -2.0905 15.1381 -0.7558 -2.1174 15.0631 -0.7841 -2.4453 14.9959 -0.5269 -2.4716 14.9265 -0.5072 -2.4379 14.8618 -0.5468 -3.3829 14.1076 -0.3679 -3.7392 14.6876 -0.4963 -3.7762 14.6797 -0.5171 -3.5991 14.5035 -0.5196 -3.5846 14.4474 -0.564 -3.3537 15.2176 -2.1196 -3.1613 15.2092 -2.22 -3.1618 15.181 -2.2089 -3.3546 15.2448 -2.1241 -2.7278 15.3672 -2.4224 -2.7139 15.343 -2.4198 -2.9566 15.1015 -2.3669 -2.9412 15.0542 -2.3537 -2.2371 15.4872 -2.5505 -2.2377 15.5142 -2.5658 -2.089 15.83 -0.8413 -1.7632 15.8052 -1.0898 -2.7307 13.4254 -0.573 -2.6505 13.8818 -0.5205 -2.4947 14.8614 -0.4885 -3.5869 14.9148 -0.4198 -3.5488 14.8576 -0.4104 -3.5372 14.9183 -0.4069 -4.0469 14.9007 -0.648 -4.0267 14.8743 -0.6523 -3.8972 14.8717 -0.5245 -3.8648 14.8981 -0.5055 -2.884 4.7413 -2.0768 -2.9255 4.286 -2.1939 -2.8711 4.2639 -2.1538 -3.5798 14.6937 -0.4296 -3.5425 14.7001 -0.4103 -2.7946 15.7014 -1.8982 -2.7681 15.849 -1.8767 -2.6724 15.8232 -1.9389 -2.7034 15.8954 -1.8572 -2.6493 15.8217 -1.9249 -2.7551 15.8696 -1.8658 -2.9777 14.6901 -0.3159 -3.2264 14.4358 -0.3143 -3.008 14.4973 -0.2526 -3.4129 15.7141 -1.8656 -3.2337 15.8121 -1.8952 -3.3963 15.7158 -1.9558 -3.6481 15.4748 -2.1413 -3.3516 15.3329 -2.1243 -3.6445 15.3307 -2.0976 -2.7589 15.9612 -1.785 -3.3259 14.1796 -1.6797 -3.255 14.2034 -1.7382 -3.2054 13.956 -1.7643 -2.826 15.7534 -0.9383 -2.8111 15.7276 -0.7325 -2.6575 15.7967 -0.9648 -2.6143 15.7398 -0.7804 -2.3118 15.6521 -0.599 -2.1715 15.6769 -0.6732 -2.331 15.6965 -0.6737 -2.2051 15.7227 -0.7222 -2.4069 15.0868 -0.5494 -2.3015 15.4047 -0.5863 -2.7126 15.9738 -1.6951 -3.0056 15.9058 -1.6448 -2.9519 15.8018 -1.5307 -2.929 15.7952 -1.5406 -3.0153 15.9175 -1.6043 -2.9562 15.8077 -1.388 -3.0553 15.7104 -1.2813 -2.9201 15.7912 -1.4021 -3.0033 15.716 -1.251 -3.1105 15.6349 -1.0468 -3.1573 15.6492 -1.0525 -3.0068 15.6443 -0.77 -2.9593 15.6943 -0.9996 -2.6254 14.8681 -0.4379 -2.7476 14.5407 -0.276 -2.6445 14.5447 -0.3238 -2.734 14.849 -0.4075 -2.6756 14.2553 -0.3384 -2.7564 14.2631 -0.2752 -2.5638 15.0708 -0.4665 -2.5614 15.3765 -0.5102 -3.2697 15.7993 -1.3898 -3.4048 15.6523 -1.3068 -3.2574 15.7751 -1.3163 -3.7216 15.5828 -1.0778 -3.85 15.5524 -1.2016 -3.7723 15.6284 -0.958 -3.9484 15.6057 -1.1366 -3.5279 15.6177 -0.8923 -3.4417 15.6449 -0.9676 -3.5751 15.6099 -1.0694 -3.5273 15.5819 -0.5669 -3.2078 15.6773 -1.0544 -3.1415 15.9312 -1.4495 -3.2151 15.8105 -1.319 -3.0141 15.6246 -0.6308 -2.7743 15.6212 -0.5199 -2.8039 15.683 -0.6052 -3.019 15.5768 -0.5516 -2.8312 15.7591 -0.9985 -2.8555 15.7468 -1.2146 -2.8603 15.7859 -1.4124 -2.8712 15.8098 -1.5635 -2.6892 15.8058 -1.1065 -2.7165 15.8122 -1.229 -2.7826 15.8068 -1.4193 -2.8364 15.9343 -1.6189 -2.7386 15.9144 -1.3996 -2.7292 15.9246 -1.4026 -2.6731 15.8877 -1.2359 -2.6348 15.9002 -1.2495 -2.4942 15.7545 -0.8245 -2.6216 15.9 -1.255 -2.5112 15.8602 -1.2805 -2.6338 15.9483 -1.4309 -3.6032 15.59 -1.2331 -3.4495 15.6397 -1.1847 -3.5576 15.5857 -1.2572 -1.7516 15.7019 -1.0539 -1.5445 15.7475 -1.4655 -1.5724 15.6359 -1.445 -3.5295 15.524 -0.5219 -3.2887 15.5496 -0.5523 -4.2126 15.409 -0.9557 -4.3138 15.5638 -1.2373 -4.3102 15.3648 -1.2406 -2.9183 2.8757 -2.0528 -2.7286 2.8633 -1.9535 -2.9085 7.8762 -1.5713 -2.8383 6.7374 -1.7545 -2.8255 7.853 -1.4488 -2.7606 6.742 -1.6776 -2.5672 15.6364 -0.5329 -2.7707 15.3341 -0.4508 -3.5483 15.2632 -0.4718 -3.9636 15.2594 -0.5362 -3.6204 14.6932 -0.449 -2.6015 14.2685 -0.432 -2.8955 12.2853 -0.6624 -2.9528 13.3826 -0.4986 -3.0461 12.2866 -0.7067 -3.1344 13.328 -0.5018 -2.6795 4.269 -2.0053 -2.6931 3.6504 -2.0123 -2.4908 2.9393 -1.8618 -2.5957 13.4584 -0.7137 -2.5695 13.8694 -0.666 -2.4562 6.7175 -1.7527 -2.5215 7.8534 -1.5714 -2.6561 6.722 -1.6514 -2.7369 7.8391 -1.4173 -2.2401 3.7514 -1.8842 -1.5966 15.4841 -1.4624 -1.7552 15.4793 -1.0349 -2.3988 11.3956 -1.8724 -2.3969 12.4499 -1.8473 -2.3153 11.3772 -1.7574 -2.315 12.4412 -1.6833 -2.3749 11.3598 -1.4513 -2.3247 12.4288 -1.4014 -2.3296 10.5274 -1.8902 -2.3084 10.5092 -1.785 -2.2976 9.2142 -1.9387 -2.2764 9.1849 -1.8846 -2.26 7.8981 -2.0315 -2.2595 7.9447 -2.1073 -2.1251 5.8473 -2.4283 -2.1905 6.8095 -2.2721 -2.1182 3.6733 -1.9766 -2.1335 3.2908 -1.7765 -2.0257 3.4234 -1.886 -2.2052 3.5333 -1.8277 -1.9515 3.3652 -1.9784 -1.9801 3.2796 -1.8511 -2.0215 3.5044 -2.0225 -1.9171 3.2556 -2.597 -1.9918 3.2419 -2.628 -1.9103 2.9746 -2.5554 -1.9763 3.3905 -2.6463 -2.053 3.5854 -2.619 -1.7251 2.6044 -2.5573 -1.812 2.6662 -2.5364 -1.8096 2.6658 -2.6198 -1.9125 2.7079 -2.5435 -1.7947 2.6139 -2.0207 -1.7116 2.4402 -2.21 -1.8673 2.4038 -2.2329 -2.0106 2.6648 -2.0171 -1.9648 2.726 -1.9827 -2.0827 2.785 -1.9193 -2.149 2.8223 -2.1283 -2.2462 2.9061 -2.1377 -2.1797 2.8829 -2.2601 -2.2652 3.0235 -2.2782 -2.2462 2.9104 -2.8453 -2.3949 2.9619 -2.7694 -2.335 2.9273 -2.9154 -2.3187 2.9822 -2.6723 -2.5654 15.7594 -2.0697 -2.6686 15.7559 -2.0937 -2.8691 15.6075 -1.9718 -3.6093 15.6237 -2.0077 -3.3645 15.7058 -2.0403 -4.1569 15.6052 -1.2635 -4.3075 15.5728 -1.2414 -3.4113 15.7436 -1.7454 -3.1436 15.9259 -1.6471 -3.2231 15.8512 -1.7924 -3.3355 15.7967 -1.5837 -3.5552 15.644 -1.6694 -3.4439 15.6536 -1.485 -2.3674 15.6819 -1.7804 -2.2839 15.682 -1.9234 -2.4795 15.7356 -1.7638 -2.5502 15.7636 -1.8655 -3.7588 15.5436 -1.3601 -3.8683 15.5547 -1.5257 -3.9354 15.5467 -1.4061 -3.746 15.5559 -1.4127 -2.9969 15.5164 -2.1033 -3.2116 15.6013 -2.0494 -2.8657 15.5233 -2.1826 -2.7772 15.6058 -2.0219 -2.7344 15.6543 -2.2459 -2.6911 15.7441 -2.0865 -2.7741 15.5674 -2.4256 -2.5162 15.3299 -2.4673 -2.5282 15.4382 -2.5054 -2.2392 15.3814 -2.4655 -2.0077 15.6977 -2.5319 -2.2567 15.6775 -2.5758 -2.2194 15.2612 -2.3997 -2.0284 15.2744 -2.369 -4.1829 14.8631 -1.1905 -4.3617 15.3254 -1.4714 -3.6446 15.2011 -2.0573 -3.1654 15.2602 -2.234 -2.979 15.2576 -2.3509 -2.2298 15.0627 -2.4125 -2.0332 15.2 -2.36 -2.0491 15.0757 -2.3425 -2.2219 15.1862 -2.4032 -3.0479 14.8842 -2.0484 -2.9023 14.9607 -2.2707 -2.846 14.8731 -2.1494 -3.1327 15.0682 -2.1569 -3.4467 15.0058 -1.94 -3.3487 14.8244 -1.8721 -3.5374 14.8051 -1.8135 -3.6641 14.9302 -1.9123 -3.8712 14.6751 -1.5146 -3.0119 14.65 -1.9445 -3.2612 14.8336 -1.9092 -3.2423 14.6142 -1.8384 -2.7762 14.8712 -2.1664 -2.8076 14.6435 -2.0389 -2.3085 14.278 -1.9856 -2.0572 14.5501 -1.8941 -2.1561 14.2824 -1.8894 -2.2323 14.5654 -2.0595 -3.5578 13.9298 -1.4398 -3.6185 14.0803 -1.4365 -2.7471 13.9866 -1.92 -2.7555 14.2478 -1.9721 -2.6757 14.2323 -1.9978 -3.5082 13.3959 -1.2705 -3.4366 13.44 -1.4846 -3.5677 13.9067 -1.2092 -2.3843 13.562 -1.9022 -2.3005 13.5519 -1.8384 -2.7207 13.5419 -1.9119 -2.6122 13.5599 -1.923 -3.2395 11.3646 -1.4983 -3.3371 12.3325 -1.3535 -2.9293 11.4201 -1.8869 -2.8172 10.5479 -1.9101 -3.0104 9.2139 -1.829 -3.1252 10.5191 -1.6459 -2.3897 9.2544 -1.9883 -2.4861 10.5511 -1.9259 -3.1046 2.8003 -2.3255 -2.4795 2.9807 -2.4135 -2.6679 2.7637 -2.3792 -2.6812 2.8893 -2.5692 -2.4717 2.826 -2.269 -2.4149 3.0977 -3.219 -2.4243 2.8988 -3.2027 -2.5929 2.7549 -3.4705 -2.5695 3.0764 -3.3455 -2.7752 2.6513 -3.3187 -2.8071 2.7141 -3.4192 -2.5982 2.6649 -3.4148 -2.6114 2.6724 -3.2975 -3.0153 2.7535 -2.578 -2.9093 2.8158 -3.0364 -2.9378 2.8829 -3.0603 -2.9106 3.0361 -3.0517 -2.941 3.121 -3.0745 -2.9771 3.1098 -2.7691 -2.4224 3.3284 -3.1338 -2.5743 3.3184 -3.1812 -2.9588 3.5337 -2.6941 -3.0631 3.7301 -2.5691 -2.9501 3.7164 -2.6936 -3.0608 3.4923 -2.545 -2.4123 4.4031 -2.8509 -2.3057 3.8805 -2.8015 -2.4573 3.8462 -2.9565 -2.2401 4.3917 -2.7659 -2.9016 4.3747 -2.6516 -2.9321 3.7475 -2.7919 -2.9462 4.3749 -2.5937 -3.0038 4.3155 -2.3061 -2.9811 3.6573 -2.2682 -3.0325 3.685 -2.3765 -2.9214 6.7672 -1.9664 -2.9532 7.9268 -1.833 -2.9787 7.9464 -1.9631 -2.9695 9.2058 -1.7222 -2.2442 4.864 -2.7186 -2.4399 7.9603 -2.1186 -2.3432 7.9651 -2.1407 -2.4891 9.2518 -1.9995 -2.9642 5.7902 -2.1092 -3.0004 5.8039 -2.2902 -2.9691 4.8158 -2.2235 -3.0715 3.7481 -2.4919 -2.6175 3.8052 -3.0078 -3.1034 3.484 -2.4723 -2.9442 3.3271 -2.7153 -3.078 3.3037 -2.5707 -2.4458 3.6275 -3.0319 -2.3404 3.3417 -3.1023 -2.3618 3.6641 -2.9181 -2.7332 3.0804 -3.3843 -2.7508 3.3683 -3.1605 -3.1136 3.0994 -2.5986 -3.1402 3.0979 -2.471 -3.132 3.2918 -2.4816 -3.0398 2.9683 -2.1685 -2.9999 3.2033 -2.2161 -3.0862 3.2634 -2.3686 -3.0933 3.0557 -2.3466 -2.9081 2.9811 -3.0481 -2.6964 2.745 -3.1181 -2.2118 3.2115 -2.9329 -2.3309 2.9369 -2.9427 -2.4345 2.8034 -3.1724 -2.4793 2.7863 -3.1244 -2.8302 2.7441 -2.448 -2.7987 2.8431 -2.6665 -2.4576 2.701 -2.1861 -2.6733 2.6609 -2.2766 -3.1223 2.8488 -2.464 -3.0345 2.6562 -2.4364 -3.4675 13.3738 -1.1518 -2.9962 12.4159 -1.8589 -3.1217 13.5136 -1.8028 -3.0297 13.5143 -1.8436 -2.3464 14.0162 -1.9289 -2.2108 14.0176 -1.8601 -2.2847 14.5719 -2.125 -2.6425 14.6182 -2.1099 -2.5189 14.2227 -2.0062 -2.4941 14.5943 -2.1528 -3.1762 14.2132 -1.7978 -3.3714 14.57 -1.767 -3.2311 14.2083 -1.757 -3.7797 14.4238 -1.394 -3.7333 14.4504 -1.4809 -1.9126 14.8329 -2.0404 -1.8474 14.866 -1.8418 -2.2693 14.8144 -2.2604 -2.1375 14.8177 -2.1895 -3.9576 14.6278 -1.1897 -4.1548 14.83 -1.1898 -3.3069 15.0452 -1.9862 -2.7693 14.9923 -2.289 -4.2317 15.0981 -1.8573 -4.0093 14.9916 -1.749 -4.3357 15.0971 -1.7068 -4.338 15.0026 -1.6817 -4.3721 15.5016 -1.4755 -4.3293 15.4662 -1.7236 -2.5392 15.466 -2.528 -2.7729 15.5619 -2.4383 -2.7392 15.4181 -2.4325 -2.9583 15.3861 -2.307 -2.7102 15.6672 -2.2559 -2.569 15.7052 -2.2745 -3.6471 15.4847 -2.1429 -4.3242 15.4799 -1.7235 -4.3103 15.5081 -1.6822 -4.2107 15.5003 -1.8425 -3.7566 15.5374 -1.3216 -3.896 15.548 -1.2983 -2.6732 15.8803 -1.818 -2.606 15.8465 -1.7264 -2.2875 15.656 -1.7475 -2.1765 15.6784 -1.8672 -3.6192 15.6295 -1.8193 -3.0878 15.8809 -1.8185 -2.9535 15.921 -1.6849 -2.4755 15.7483 -2.0653 -2.3912 15.7188 -2.2906 -1.8598 15.7438 -2.077 -2.0162 15.7148 -2.5177 -2.1441 15.7052 -2.2278 -1.6994 15.7292 -2.2232 -2.0963 2.9317 -1.8349 -2.3147 2.883 -1.8486 -2.0733 3.1744 -1.8029 -2.1111 3.1296 -1.7839 -1.9937 3.0024 -1.851 -2.1956 2.892 -2.5935 -2.1759 2.8503 -2.7402 -1.8684 2.5531 -2.0595 -1.9206 2.5085 -2.1054 -1.8087 2.3761 -2.2202 -1.8398 2.3821 -2.228 -2.0539 3.1994 -2.6729 -2.0995 3.1202 -2.7684 -2.06 3.8036 -2.295 -2.0279 3.599 -2.5599 -2.0329 3.5822 -2.2489 -1.6852 2.6975 -2.2426 -1.6809 2.5495 -2.2862 -1.7221 2.8117 -2.3946 -2.0611 3.7466 -2.0688 -2.026 4.3734 -2.5795 -2.0792 4.8505 -2.6593 -2.016 4.8317 -2.6007 -2.0816 4.389 -2.6539 -2.1361 5.8048 -2.3279 -2.0567 4.7646 -2.2256 -2.0155 4.8041 -2.4695 -2.2225 5.7736 -2.0962 -2.2477 13.535 -1.666 -2.4393 5.7486 -1.8629 -2.3259 5.7617 -1.985 -2.2533 13.5331 -1.3248 -2.3204 13.5054 -1.1469 -2.0497 14.7156 -1.2504 -2.1855 14.8863 -0.855 -2.2232 14.6995 -0.9113 -1.9378 14.9161 -1.2112 -2.0328 15.4636 -0.7121 -2.3144 4.7427 -1.9901 -2.4826 4.738 -1.9372 -2.5965 5.7403 -1.813 -2.5226 9.1055 -1.3878 -2.7285 9.0882 -1.1873 -2.7191 12.3226 -0.8173 -2.518 13.4781 -0.82 -2.5914 12.3492 -0.9283 -2.4512 14.2294 -0.7827 -2.5104 14.2565 -0.6171 -2.4798 13.8856 -0.8015 -2.4965 3.1495 -1.8595 -2.7132 3.091 -1.9727 -3.4105 14.1364 -0.4814 -3.535 14.4614 -0.4145 -3.562 14.4528 -0.4921 -2.741 14.9122 -0.4077 -2.9801 14.7604 -0.3354 -2.7435 14.9818 -0.4054 -2.666 14.2964 -0.3331 -2.5543 14.5467 -0.3872 -2.5994 14.2836 -0.4301 -2.8659 5.7505 -1.9131 -2.748 5.7589 -1.848 -2.8789 3.6311 -2.1541 -2.8959 3.3693 -2.127 -2.9023 3.1248 -2.0845 -3.0085 3.4028 -2.2334 -3.8828 14.6663 -0.689 -3.9627 14.6225 -0.999 -4.0886 14.8143 -0.9511 -4.1263 14.9174 -0.9458 -4.1076 14.8394 -0.9449 -4.1113 15.4237 -0.7252 -4.1133 15.2474 -0.6817 -3.9387 15.4673 -0.6131 -3.872 15.6358 -0.6648 -2.3096 15.6901 -1.4036 -2.1402 15.6383 -1.6039 -2.2866 15.6481 -1.6078 -2.4031 15.7153 -1.5357 -3.5385 15.6016 -1.3213 -3.7176 15.5583 -1.2711 -2.4582 15.8157 -1.3128 -2.36 15.8176 -1.119 -2.1938 15.8259 -0.9606 -1.9384 15.7843 -1.2028 -2.1365 15.733 -1.302 -2.3018 15.8637 -0.8767 -2.1186 15.6869 -0.7003 -2.6847 15.8798 -1.2326 -3.0269 15.9236 -1.6081 -3.3104 15.6862 -1.0822 -3.8668 15.6431 -0.6743 -3.5167 15.5924 -0.599 -4.0499 15.6286 -1.0736 -4.0422 15.5777 -1.2809 -2.5221 14.5598 -0.4489 -2.4554 14.6137 -0.5873 -2.7509 14.3091 -0.2634 -3.4865 15.6208 -0.6754 -2.947 15.9165 -1.6739 -2.3685 15.8323 -0.8229 -3.6862 15.5662 -1.4378 -3.6794 15.5707 -1.2315 -3.8891 15.2676 -2.0693 -2.6051 15.0612 -2.3908 -2.4677 15.1638 -2.424 -2.4754 15.0706 -2.4348 -2.5465 15.8836 -0.9823 -2.3563 15.8547 -0.8393 -2.517 15.8943 -0.9893 -2.3154 15.8645 -0.8578 -2.2362 15.6871 -2.0483 -1.9545 15.6922 -1.5734 -1.9925 4.3267 -2.4133 -2.6894 5.8704 -2.4518 -2.896 3.7761 -2.8804 -2.9322 3.5415 -2.8322 -2.8297 4.3789 -2.7278 -2.5786 14.2714 -0.4748 -2.7481 15.0459 -0.4048 -2.5736 15.8665 -0.9773 -3.6388 15.1734 -2.0473 -4.0445 15.1236 -1.957 -4.0402 15.0851 -1.9441 -4.2355 15.1282 -1.8611 -3.505 14.7112 -0.4029 -3.3425 15.6911 -2.0476 -2.9672 15.0331 -0.4008 -3.2286 14.205 -0.2853 -3.4225 14.1291 -0.5508 -4.048 15.269 -1.9893 -4.2263 15.2807 -1.8813 -1.6791 15.5714 -2.1987 -2.476 14.9838 -2.3935 -2.6234 14.9963 -2.3356 -4.3683 15.5083 -1.4788 -3.242 15.6222 -2.049 -1.6922 15.1301 -1.8518 -2.2575 15.6571 -1.6858 -2.1842 3.4784 -2.8289 -2.3104 3.6856 -2.8515 -2.3372 3.4804 -1.8312 -2.4878 3.4265 -1.8841 -1.9143 2.7796 -1.949 -3.0151 2.6487 -2.4387 -2.8441 2.6458 -2.3412 -2.6006 3.5729 -3.0965 -2.7573 3.5562 -3.0461 -2.8892 13.5125 -1.8636 -2.9536 4.8804 -2.5304 -2.9525 5.826 -2.3612 -2.4511 2.5971 -2.105 -1.8853 2.4491 -2.3373 -2.0314 2.654 -2.2812 -2.3316 2.7583 -2.1128 -2.2639 2.9781 -2.6508 -2.202 2.924 -2.4569 -1.9473 3.4055 -2.6044 -1.8793 3.2748 -2.5533 -1.9399 3.4376 -2.5051 -2.6118 10.5503 -1.9321 -2.6822 9.2565 -2.0067 -1.8559 2.8249 -1.9457 -2.6116 7.9572 -2.1136 -2.2623 3.0316 -2.4711 -2.5449 2.8302 -2.9755 -2.9471 2.8544 -2.7556 -2.9975 2.7431 -2.5732 -2.9301 2.8414 -2.7501 -2.8931 2.8028 -3.0284 -2.6829 2.5679 -2.1799 -2.3564 3.0159 -2.5408 -2.3609 2.8685 -2.2017 -2.4453 2.9957 -2.6138 -2.3752 3.0048 -2.3438 -2.7546 3.7869 -2.9452 -3.0947 2.9286 -2.3336 -3.1266 2.974 -2.4651 -2.1315 3.8264 -2.0118 -2.0614 3.8715 -2.0962 -2.0312 4.2809 -2.1764 -2.1971 4.7526 -2.0974 -2.1536 4.2529 -2.0598 -2.3027 6.7506 -1.9358 -2.3436 3.2119 -1.7963 -2.2345 3.3899 -2.925 -2.5327 15.8404 -1.4744 -2.6896 15.8099 -1.9459 -2.6426 14.8529 -2.2077 -2.4722 14.8302 -2.2731 -4.2001 15.2133 -0.9488 -4.2974 15.1771 -1.2227 -3.3962 14.562 -1.7514 -4.1965 15.5186 -1.8278 -2.8301 15.9443 -1.6269 -2.5055 15.8945 -0.9987 -2.9539 15.3982 -2.3004 -2.2584 15.6965 -2.5585 -1.5678 15.7328 -1.8882 -1.5542 15.7145 -1.8904 -1.5582 15.7632 -1.4722 -1.6851 15.7105 -2.2314 -1.759 15.2111 -2.1521 -2.4775 15.2195 -2.4189 -2.0741 14.9812 -2.3017 -2.2406 14.9705 -2.3743 -1.7804 15.1024 -2.1394 -1.751 15.0293 -1.8459 -1.8255 14.9945 -2.1064 -2.5817 15.005 -0.458 -2.6071 14.9336 -0.4478 -3.0097 14.2235 -0.2558 -3.0162 14.2854 -0.2429 -3.2163 14.1528 -0.2935 -1.7147 15.0985 -1.4909 -2.6892 4.741 -1.9659 -2.9325 3.3624 -2.895 -2.1945 6.7885 -2.1923 -2.0506 3.9307 -2.3261 -2.5742 15.6819 -0.6113 -3.8195 15.6507 -0.8115 -3.0161 15.9087 -1.6541 -3.5457 14.5158 -1.6457 -2.8429 11.306 -0.8348 -2.391 14.6389 -0.7391 -2.7486 2.8267 -2.9097 -2.0764 14.2893 -1.6446 -1.9985 14.5854 -1.6188 -1.7684 15.7481 -1.5142 -1.7725 15.7432 -1.8335 -1.982 15.6924 -1.7847 -2.1359 15.6565 -1.7415 -3.6036 15.5872 -1.3974 -3.7883 14.414 -1.1822 -3.7908 14.405 -1.0225 -3.6969 14.4214 -0.7593 -3.638 14.0765 -1.0512 -3.51 14.064 -0.8011 -3.5782 13.9179 -1.0648 -3.6272 14.0653 -1.1953 -3.4359 13.8632 -0.8335 -3.3358 13.3298 -0.8864 -3.2558 12.3221 -1.1292 -3.1896 11.3562 -1.3571 -3.0827 10.493 -1.5417 -2.9585 9.1618 -1.3799 -2.7204 3.375 -1.9953 -2.9126 10.4727 -1.0352 -2.8643 9.1148 -1.2533 -3.2878 15.2879 -0.4685 -2.9698 15.3051 -0.4535 -3.2683 14.9566 -0.407 -2.9581 13.7848 -0.3793 -3.1821 13.7097 -0.3958 -2.9542 11.3339 -0.8679 -2.7548 10.4425 -0.9762 -2.2787 14.2661 -1.008 -2.2992 13.9282 -1.0721 -2.1423 14.3035 -1.2927 -2.2033 13.9343 -1.3104 -2.3911 9.1383 -1.6146 -2.3844 10.4653 -1.5163 -2.3686 7.889 -1.7757 -1.8409 14.8746 -1.5418 -2.1509 13.9896 -1.6708 -1.5692 15.6075 -1.8766 -1.6032 15.4339 -1.8522 -1.7808 3.0376 -2.1545 -1.8668 3.2866 -2.1874 -1.8692 3.3103 -2.4035 -1.9411 3.4372 -2.2116 -2.145 3.3128 -2.8143 -2.329 3.0373 -1.8046 -2.0588 15.6925 -1.9515 -4.116 15.5533 -1.7608 -3.8348 15.5762 -1.9439 -3.7862 15.5909 -1.7872 -4.0989 15.5706 -1.4943 -3.984 15.5625 -1.6799 -3.7465 15.5692 -1.5918 -2.7378 15.6912 -1.9455 -2.9825 14.2328 -1.8645 -3.1457 13.9669 -1.801 -2.9521 13.9564 -1.8445 -2.5512 14.0015 -1.9583 -2.6195 2.8946 -2.7863 -2.8007 2.7897 -3.4918 -3.0699 3.4447 -2.3565 -2.9624 6.8167 -2.1191 -2.5334 5.8982 -2.516 -2.5608 6.8318 -2.3151'/>
          </IndexedFaceSet>
        </Shape>
        <Shape DEF='rfibula'>
          <Appearance>
            <Material ambientIntensity='0.098' diffuseColor='1 0.9765 0.8667' emissiveColor='0 1 0' shininess='0.05' specularColor='0.349 0.349 0.349'/>
          </Appearance>
          <IndexedFaceSet DEF='lowleg_Geo' coordIndex='0 1 2 -1 0 3 1 -1 4 5 6 -1 4 7 5 -1 8 9 10 -1 11 12 13 -1 12 14 13 -1 15 16 17 -1 16 18 17 -1 19 20 21 -1 22 23 24 -1 23 25 24 -1 26 27 28 -1 29 30 31 -1 32 33 34 -1 32 35 33 -1 15 33 36 -1 37 38 39 -1 40 41 42 -1 43 44 45 -1 34 17 46 -1 34 33 17 -1 47 48 49 -1 47 50 48 -1 51 52 53 -1 52 54 53 -1 55 56 57 -1 56 58 57 -1 59 60 61 -1 62 63 64 -1 65 66 61 -1 64 56 62 -1 56 67 62 -1 68 69 70 -1 69 71 70 -1 72 73 74 -1 73 75 74 -1 76 77 78 -1 77 55 78 -1 79 80 81 -1 81 82 79 -1 83 84 85 -1 86 84 87 -1 86 81 84 -1 88 89 90 -1 89 91 90 -1 92 93 94 -1 93 95 94 -1 96 97 98 -1 80 99 84 -1 99 85 84 -1 100 101 102 -1 101 103 102 -1 104 99 105 -1 104 106 99 -1 107 108 109 -1 110 111 112 -1 110 113 111 -1 88 114 115 -1 88 90 114 -1 95 96 13 -1 96 116 13 -1 117 94 118 -1 94 14 118 -1 58 64 111 -1 58 56 64 -1 119 120 107 -1 107 121 119 -1 122 123 124 -1 125 126 127 -1 127 128 125 -1 129 130 131 -1 131 132 129 -1 133 134 135 -1 133 136 134 -1 137 138 139 -1 137 140 138 -1 124 141 142 -1 143 144 145 -1 143 146 144 -1 147 148 149 -1 148 150 149 -1 151 152 153 -1 154 155 156 -1 154 151 155 -1 157 144 131 -1 144 132 131 -1 158 159 160 -1 161 162 163 -1 163 164 161 -1 150 165 123 -1 150 166 165 -1 64 63 111 -1 63 112 111 -1 167 168 21 -1 167 169 168 -1 170 171 172 -1 171 51 172 -1 121 173 174 -1 121 175 173 -1 174 176 177 -1 174 0 176 -1 177 176 178 -1 178 179 177 -1 180 66 57 -1 66 65 57 -1 181 1 3 -1 182 181 183 -1 181 184 183 -1 185 163 162 -1 162 186 185 -1 68 187 184 -1 187 183 184 -1 188 189 187 -1 189 190 187 -1 191 192 193 -1 191 194 192 -1 195 189 196 -1 195 190 189 -1 197 198 195 -1 195 199 197 -1 200 201 202 -1 203 204 205 -1 204 206 205 -1 207 208 154 -1 208 151 154 -1 135 139 133 -1 135 209 139 -1 210 211 212 -1 212 142 210 -1 213 214 215 -1 216 215 217 -1 215 218 217 -1 79 110 105 -1 79 113 110 -1 83 219 100 -1 219 101 100 -1 102 103 220 -1 103 221 220 -1 89 222 223 -1 223 224 89 -1 223 101 224 -1 101 219 224 -1 225 226 106 -1 225 227 226 -1 228 95 93 -1 228 96 95 -1 229 230 231 -1 6 232 4 -1 233 234 235 -1 235 4 233 -1 235 236 237 -1 235 238 236 -1 239 240 241 -1 239 5 240 -1 20 242 243 -1 20 244 242 -1 245 40 42 -1 42 246 245 -1 247 44 43 -1 247 248 44 -1 26 233 249 -1 249 27 26 -1 248 250 44 -1 251 238 235 -1 235 234 251 -1 252 253 254 -1 253 255 254 -1 256 231 222 -1 256 257 231 -1 258 115 259 -1 259 260 258 -1 261 258 260 -1 260 262 261 -1 263 19 264 -1 264 265 263 -1 167 20 39 -1 167 21 20 -1 37 245 266 -1 37 243 245 -1 266 246 267 -1 266 245 246 -1 236 268 269 -1 236 238 268 -1 270 268 271 -1 272 32 31 -1 31 273 272 -1 253 274 275 -1 274 36 275 -1 253 252 276 -1 276 274 253 -1 43 277 247 -1 278 279 280 -1 280 18 278 -1 281 282 283 -1 273 31 30 -1 30 169 273 -1 29 284 30 -1 280 279 281 -1 279 282 281 -1 46 18 280 -1 46 17 18 -1 16 285 18 -1 286 278 287 -1 286 279 278 -1 274 276 285 -1 285 16 274 -1 255 275 288 -1 255 253 275 -1 251 271 268 -1 268 238 251 -1 246 236 269 -1 269 267 246 -1 38 37 266 -1 250 289 44 -1 250 25 289 -1 262 263 265 -1 262 260 263 -1 290 244 259 -1 290 242 244 -1 234 291 255 -1 255 251 234 -1 233 291 234 -1 233 26 291 -1 248 247 28 -1 28 27 248 -1 241 292 293 -1 241 240 292 -1 294 295 92 -1 295 93 92 -1 232 118 249 -1 118 296 249 -1 297 295 294 -1 297 298 295 -1 264 168 283 -1 283 282 264 -1 299 8 300 -1 299 301 8 -1 224 219 227 -1 219 226 227 -1 105 97 104 -1 105 110 97 -1 87 100 302 -1 124 123 141 -1 123 165 141 -1 147 149 203 -1 203 205 147 -1 202 303 200 -1 303 304 200 -1 305 143 193 -1 305 146 143 -1 193 192 185 -1 185 305 193 -1 189 306 307 -1 307 196 189 -1 182 1 181 -1 182 194 1 -1 70 59 308 -1 70 60 59 -1 184 309 68 -1 309 69 68 -1 2 176 0 -1 71 74 76 -1 74 77 76 -1 109 81 175 -1 81 86 175 -1 74 75 77 -1 75 67 77 -1 81 80 84 -1 104 97 96 -1 96 228 104 -1 223 103 101 -1 223 230 103 -1 158 310 159 -1 158 311 310 -1 164 163 312 -1 142 141 313 -1 313 210 142 -1 154 314 315 -1 154 156 314 -1 209 316 139 -1 316 315 139 -1 166 150 148 -1 317 318 319 -1 191 176 2 -1 191 178 176 -1 145 144 157 -1 147 205 320 -1 320 321 147 -1 133 141 136 -1 133 313 141 -1 148 152 166 -1 148 153 152 -1 322 138 140 -1 320 205 206 -1 126 125 323 -1 323 307 126 -1 211 217 218 -1 218 212 211 -1 310 311 123 -1 311 150 123 -1 323 324 325 -1 325 307 323 -1 129 132 314 -1 217 211 186 -1 129 317 130 -1 121 109 175 -1 121 107 109 -1 94 95 14 -1 95 13 14 -1 98 326 116 -1 116 96 98 -1 113 58 111 -1 113 327 58 -1 53 54 73 -1 54 50 73 -1 79 105 80 -1 105 99 80 -1 99 106 85 -1 106 226 85 -1 97 63 98 -1 97 112 63 -1 290 292 40 -1 40 242 290 -1 114 297 293 -1 114 90 297 -1 228 225 106 -1 106 104 228 -1 94 117 92 -1 117 239 92 -1 89 224 91 -1 112 97 110 -1 87 84 83 -1 83 100 87 -1 73 47 75 -1 73 50 47 -1 69 72 71 -1 72 74 71 -1 68 188 187 -1 56 55 67 -1 55 77 67 -1 59 306 308 -1 79 327 113 -1 79 82 327 -1 107 66 180 -1 180 108 107 -1 65 61 78 -1 51 53 328 -1 328 172 51 -1 52 220 54 -1 220 9 54 -1 27 250 248 -1 27 329 250 -1 287 289 286 -1 268 270 269 -1 39 38 167 -1 35 36 33 -1 35 275 36 -1 254 255 291 -1 229 22 330 -1 22 24 330 -1 33 15 17 -1 48 326 49 -1 48 301 326 -1 11 13 116 -1 116 299 11 -1 6 239 117 -1 6 5 239 -1 116 301 299 -1 301 116 326 -1 48 54 9 -1 48 50 54 -1 331 229 330 -1 230 229 331 -1 267 270 332 -1 269 270 267 -1 278 285 333 -1 278 18 285 -1 334 335 336 -1 334 300 335 -1 337 329 338 -1 329 337 250 -1 78 57 65 -1 57 78 55 -1 82 180 327 -1 82 108 180 -1 228 295 225 -1 228 93 295 -1 293 290 114 -1 290 293 292 -1 40 243 242 -1 243 40 245 -1 327 57 58 -1 327 180 57 -1 130 319 339 -1 319 130 317 -1 325 204 340 -1 325 324 204 -1 149 303 203 -1 304 303 149 -1 341 212 218 -1 122 212 341 -1 157 128 127 -1 157 342 128 -1 304 150 311 -1 150 304 149 -1 151 343 152 -1 151 208 343 -1 134 343 208 -1 134 344 343 -1 135 208 207 -1 135 134 208 -1 320 155 321 -1 318 155 320 -1 166 345 165 -1 345 166 152 -1 133 138 313 -1 139 138 133 -1 156 318 317 -1 155 318 156 -1 147 153 148 -1 153 147 321 -1 328 69 309 -1 72 69 328 -1 151 321 155 -1 153 321 151 -1 183 190 346 -1 187 190 183 -1 347 319 206 -1 347 339 319 -1 342 339 128 -1 342 130 339 -1 348 177 179 -1 177 348 119 -1 59 120 349 -1 120 59 61 -1 350 126 351 -1 350 127 126 -1 143 191 193 -1 178 191 143 -1 206 318 320 -1 318 206 319 -1 352 51 171 -1 52 51 352 -1 353 87 302 -1 87 353 86 -1 62 75 47 -1 75 62 67 -1 170 3 0 -1 172 3 170 -1 81 108 82 -1 108 81 109 -1 353 175 86 -1 353 173 175 -1 70 76 60 -1 70 71 76 -1 2 194 191 -1 2 1 194 -1 127 145 157 -1 350 145 127 -1 189 308 306 -1 188 308 189 -1 351 307 306 -1 351 126 307 -1 325 196 307 -1 354 196 325 -1 355 199 354 -1 199 355 356 -1 159 213 160 -1 159 214 213 -1 201 357 356 -1 201 160 357 -1 198 312 346 -1 312 198 164 -1 357 161 197 -1 161 357 358 -1 322 185 186 -1 322 305 185 -1 210 186 211 -1 186 210 322 -1 140 305 322 -1 305 140 146 -1 315 137 139 -1 315 314 137 -1 311 200 304 -1 158 200 311 -1 352 100 102 -1 302 100 352 -1 63 326 98 -1 49 326 63 -1 335 221 331 -1 335 10 221 -1 227 295 298 -1 227 225 295 -1 12 334 338 -1 334 12 11 -1 250 24 25 -1 250 337 24 -1 257 229 231 -1 22 229 257 -1 330 337 336 -1 330 24 337 -1 232 233 4 -1 233 232 249 -1 40 240 41 -1 40 292 240 -1 247 254 28 -1 247 252 254 -1 114 259 115 -1 114 290 259 -1 257 258 261 -1 257 256 258 -1 359 265 360 -1 265 359 262 -1 359 25 23 -1 359 289 25 -1 45 289 287 -1 44 289 45 -1 282 286 360 -1 279 286 282 -1 167 273 169 -1 167 38 273 -1 361 275 35 -1 288 275 361 -1 271 255 288 -1 255 271 251 -1 333 287 278 -1 333 45 287 -1 46 281 284 -1 280 281 46 -1 284 283 30 -1 284 281 283 -1 15 274 16 -1 274 15 36 -1 270 288 361 -1 270 271 288 -1 35 272 361 -1 32 272 35 -1 272 38 332 -1 38 272 273 -1 267 38 266 -1 267 332 38 -1 332 361 272 -1 361 332 270 -1 263 20 19 -1 263 244 20 -1 360 264 282 -1 360 265 264 -1 360 289 359 -1 289 360 286 -1 23 262 359 -1 261 262 23 -1 260 244 263 -1 259 244 260 -1 115 256 88 -1 115 258 256 -1 222 88 256 -1 89 88 222 -1 241 92 239 -1 92 241 294 -1 277 252 247 -1 277 276 252 -1 249 329 27 -1 249 296 329 -1 246 237 236 -1 42 237 246 -1 20 37 39 -1 20 243 37 -1 41 5 7 -1 240 5 41 -1 6 118 232 -1 118 6 117 -1 235 7 4 -1 235 237 7 -1 338 296 12 -1 338 329 296 -1 336 331 330 -1 336 335 331 -1 22 261 23 -1 257 261 22 -1 222 230 223 -1 231 230 222 -1 11 300 334 -1 300 11 299 -1 230 221 103 -1 221 230 331 -1 298 224 227 -1 298 91 224 -1 221 9 220 -1 9 221 10 -1 9 301 48 -1 9 8 301 -1 52 102 220 -1 102 52 352 -1 47 63 62 -1 47 49 63 -1 218 214 341 -1 214 218 215 -1 216 213 215 -1 216 358 213 -1 316 154 315 -1 154 316 207 -1 347 204 324 -1 204 347 206 -1 146 132 144 -1 146 140 132 -1 216 186 162 -1 217 186 216 -1 164 197 161 -1 164 198 197 -1 163 192 312 -1 192 163 185 -1 160 200 158 -1 201 200 160 -1 358 160 213 -1 358 357 160 -1 202 356 355 -1 201 356 202 -1 195 354 199 -1 195 196 354 -1 356 197 199 -1 356 357 197 -1 340 354 325 -1 354 340 355 -1 348 351 349 -1 348 350 351 -1 145 178 143 -1 179 178 145 -1 324 125 347 -1 324 323 125 -1 194 312 192 -1 194 182 312 -1 182 346 312 -1 182 183 346 -1 355 303 202 -1 355 340 303 -1 349 119 348 -1 120 119 349 -1 119 174 177 -1 119 121 174 -1 170 174 173 -1 170 0 174 -1 173 171 170 -1 171 173 353 -1 309 172 328 -1 3 172 309 -1 171 302 352 -1 171 353 302 -1 169 283 168 -1 169 30 283 -1 159 341 214 -1 159 310 341 -1 162 358 216 -1 162 161 358 -1 313 322 210 -1 313 138 322 -1 306 349 351 -1 349 306 59 -1 350 179 145 -1 179 350 348 -1 347 128 339 -1 347 125 128 -1 136 344 134 -1 344 136 345 -1 122 142 212 -1 122 124 142 -1 195 346 190 -1 195 198 346 -1 72 53 73 -1 72 328 53 -1 314 317 129 -1 317 314 156 -1 345 141 165 -1 345 136 141 -1 140 314 132 -1 314 140 137 -1 152 344 345 -1 343 344 152 -1 207 209 135 -1 207 316 209 -1 310 122 341 -1 123 122 310 -1 342 131 130 -1 342 157 131 -1 340 203 303 -1 340 204 203 -1 293 294 241 -1 297 294 293 -1 91 297 90 -1 91 298 297 -1 61 107 120 -1 61 66 107 -1 85 219 83 -1 85 226 219 -1 60 78 61 -1 60 76 78 -1 308 68 70 -1 308 188 68 -1 338 336 337 -1 338 334 336 -1 29 46 284 -1 29 34 46 -1 277 285 276 -1 277 333 285 -1 277 45 333 -1 277 43 45 -1 42 7 237 -1 41 7 42 -1 31 34 29 -1 31 32 34 -1 28 291 26 -1 28 254 291 -1 264 21 168 -1 264 19 21 -1 10 300 8 -1 10 335 300 -1 12 118 14 -1 12 296 118 -1 3 184 181 -1 3 309 184 -1' creaseAngle='1.571'>
            <Coordinate DEF='lowleg_Coord' point='-3.3481 5.797 -1.9576 -3.4092 4.9032 -2.1564 -3.3035 4.9017 -2.0544 -3.451 5.8337 -2.1146 -3.8092 14.3121 -1.7146 -3.8528 14.1199 -1.5352 -3.8542 14.1399 -1.6139 -3.7274 14.3535 -1.5412 -3.7036 11.1325 -1.88 -3.6719 10.2898 -1.9665 -3.7861 11.1393 -1.8574 -3.7877 12.8146 -1.7572 -3.9447 13.5252 -1.6813 -3.7344 12.802 -1.7537 -3.8784 13.5128 -1.6548 -4.2342 14.8417 -1.6363 -4.2789 14.8042 -1.6976 -4.2852 14.8481 -1.6016 -4.3838 14.7486 -1.5849 -4.1217 14.5159 -0.9907 -3.9348 14.4596 -0.9913 -4.0971 14.6136 -0.9964 -4.1676 13.5414 -1.324 -4.2371 13.7755 -1.2989 -4.196 13.5697 -1.4515 -4.2381 13.7873 -1.455 -4.0313 14.3715 -1.7105 -4.0805 14.2209 -1.6751 -4.0954 14.4035 -1.7109 -4.2189 14.9559 -1.2873 -4.2434 15.0347 -1.0933 -4.1485 14.9357 -1.2739 -4.1647 14.8555 -1.3874 -4.1775 14.8417 -1.5743 -4.224 14.865 -1.4202 -4.1081 14.8411 -1.5568 -4.1726 14.8539 -1.65 -3.809 14.6336 -1.0089 -3.9697 14.7539 -1.1672 -3.8845 14.6766 -0.9571 -3.7914 14.3028 -1.2167 -3.7504 14.3426 -1.35 -3.7406 14.3563 -1.3469 -4.3061 14.4674 -1.7217 -4.3281 14.3072 -1.6279 -4.3657 14.4663 -1.677 -4.3216 14.8867 -1.4746 -3.451 9.3194 -2.2169 -3.5387 10.2396 -2.0749 -3.4911 10.2122 -2.1385 -3.4977 9.3181 -2.174 -3.6278 8.0181 -1.9106 -3.763 9.2881 -1.7987 -3.5946 8.0456 -2.1212 -3.643 9.3064 -2.0465 -3.2082 6.8472 -2.3106 -3.3533 8.1041 -2.2334 -3.1856 6.8537 -2.2838 -3.3507 8.1 -2.1684 -3.0492 4.0946 -2.5894 -3.1971 5.0481 -2.4781 -3.1093 5.0408 -2.4825 -3.4334 9.3156 -2.1931 -3.4679 10.208 -2.0975 -3.4173 9.308 -2.1536 -3.1121 5.9368 -2.3813 -3.1137 5.9307 -2.3536 -3.4009 8.0966 -2.2665 -3.2795 5.0591 -2.5157 -3.3742 5.9182 -2.4395 -3.241 5.0645 -2.4978 -3.3346 5.9285 -2.4344 -3.425 6.8225 -2.375 -3.465 8.0861 -2.2886 -3.3693 6.8292 -2.3818 -3.4251 8.0962 -2.3003 -3.2306 5.9344 -2.3855 -3.2994 6.8318 -2.3211 -3.1241 5.9393 -2.3941 -3.4436 9.258 -1.8815 -3.4482 9.2519 -1.8429 -3.2172 7.9536 -1.9476 -3.2661 8.0008 -2.0081 -3.5777 10.1222 -1.6538 -3.4369 9.2465 -1.7909 -3.5724 10.1362 -1.7084 -3.3545 8.0974 -1.8213 -3.4799 9.1332 -1.7136 -3.9653 13.5026 -1.3065 -3.9302 12.8158 -1.3821 -3.9446 13.5045 -1.3558 -3.8986 12.821 -1.4321 -3.8592 13.507 -1.5754 -3.7616 12.8157 -1.6648 -3.8558 13.5154 -1.629 -3.7246 12.8095 -1.7259 -3.6107 12.0025 -1.8097 -3.5062 11.1182 -1.9172 -3.5206 11.1246 -1.9618 -3.5688 10.15 -1.7892 -3.6807 10.1119 -1.6178 -3.8279 11.0712 -1.5347 -3.8173 10.1739 -1.6132 -3.9352 11.0836 -1.5516 -3.5361 11.1129 -1.8506 -3.5311 10.1662 -1.8521 -3.6511 11.0973 -1.7746 -3.0918 5.9207 -2.2982 -3.143 6.873 -2.1771 -3.1172 6.8829 -2.1304 -3.5149 10.1739 -1.9544 -3.4569 9.2877 -2.0747 -3.4939 10.1888 -2.0173 -3.466 9.2696 -1.9784 -3.9523 13.7104 -1.3164 -3.9739 13.6908 -1.2332 -3.6199 12.0107 -1.8505 -3.8683 13.7435 -1.6009 -3.8893 13.7452 -1.6344 -3.0669 4.9969 -2.2512 -3.086 5.02 -2.4013 -3.1541 5.8743 -2.1114 -3.3526 1.772 -2.4826 -3.3414 1.8234 -2.583 -3.2964 1.848 -2.4585 -2.9306 2.9213 -2.8868 -2.9304 2.9997 -2.859 -2.908 2.9679 -2.5398 -2.932 2.9018 -2.5801 -3.0118 2.4765 -2.4202 -3.0094 2.5706 -2.5244 -2.982 2.6142 -2.4562 -3.0155 2.5124 -2.314 -3.2246 2.1555 -2.2399 -3.2737 2.135 -2.4648 -3.2528 2.1869 -2.4013 -3.2481 1.9586 -2.4405 -3.0891 2.432 -2.2426 -3.174 2.319 -2.2106 -3.1658 2.3065 -2.2472 -3.0899 2.4853 -2.2054 -3.2553 1.9107 -2.4116 -3.2999 1.8667 -2.3812 -3.0076 3.0434 -2.1514 -2.9679 2.7659 -2.3111 -2.9652 3.13 -2.3171 -3.0517 2.7367 -2.1794 -3.1586 1.9951 -2.8523 -3.2313 1.9736 -2.7877 -3.2013 1.9993 -2.8844 -3.2963 1.8897 -2.7677 -3.18 2.0696 -2.6714 -3.2489 1.9749 -2.6912 -3.208 2.0121 -2.7371 -3.0894 2.3073 -2.5439 -3.1114 2.1028 -2.7279 -3.0602 2.3193 -2.5878 -2.9198 2.809 -2.4105 -3.4404 1.8724 -2.8354 -3.468 1.8576 -2.7123 -3.5388 2.0561 -2.7162 -3.6013 2.4309 -2.4077 -3.5375 2.3859 -2.2617 -3.395 2.7228 -2.2689 -3.4013 2.7607 -2.3671 -3.3 1.8639 -2.6073 -3.2582 1.9366 -2.7306 -3.9749 14.7564 -0.9359 -4.2005 14.6997 -1.0032 -4.1653 14.949 -1.0258 -3.4403 6.7483 -1.8579 -3.6035 8.001 -1.7642 -3.5155 6.7676 -1.9968 -3.3234 6.8007 -1.877 -3.1953 5.8213 -1.9997 -3.2362 6.8359 -1.9587 -3.2075 4.9076 -2.0289 -3.1083 4.9318 -2.102 -3.0557 3.8858 -2.1217 -3.0269 3.9321 -2.2163 -3.1748 6.8608 -2.2341 -3.4473 4.9131 -2.2232 -3.3281 3.9237 -2.2875 -3.3049 4.0011 -2.455 -3.4563 4.9321 -2.3497 -3.3108 2.6899 -2.1821 -3.4191 2.3685 -2.2024 -3.2224 4.0661 -2.6155 -3.1476 4.0966 -2.6589 -3.1617 3.3533 -2.8594 -3.1989 3.3093 -2.773 -3.1554 3.8796 -2.1238 -3.1936 3.0099 -2.2025 -3.1042 3.0238 -2.1552 -3.2397 3.8947 -2.1836 -3.295 2.9367 -2.8499 -3.1506 2.9497 -3.1141 -3.5882 2.5152 -2.6371 -3.4156 2.8149 -2.5899 -3.4057 2.6442 -2.912 -3.392 2.0092 -2.9949 -3.419 2.124 -2.9764 -3.3482 2.1065 -3.0677 -3.1323 2.0875 -2.9653 -3.0503 2.3256 -3.0548 -3.0946 2.0896 -2.915 -3.0559 2.3376 -2.9353 -3.2045 2.2283 -2.4952 -3.2397 2.1576 -2.5555 -3.2212 2.2393 -2.3816 -3.3558 2.0657 -2.1621 -3.4387 1.9777 -2.1862 -3.3875 1.7773 -2.3551 -3.5863 1.925 -2.4636 -3.5075 1.7639 -2.5382 -3.5221 1.7619 -2.387 -3.5621 1.9716 -2.2419 -3.4923 1.9575 -2.2078 -3.4402 1.757 -2.3593 -3.7112 11.058 -1.5491 -3.8659 10.2357 -1.7481 -3.9369 11.1116 -1.6732 -3.9873 12.809 -1.3414 -3.914 11.9808 -1.4611 -3.8219 11.999 -1.4847 -3.71 11.9485 -1.6895 -3.7015 11.0723 -1.6362 -3.7669 11.9538 -1.5904 -3.6732 11.9965 -1.7507 -4.0988 12.8357 -1.4233 -4.0174 12.0075 -1.4917 -4.0646 12.8233 -1.3783 -3.859 14.1589 -1.6602 -3.939 14.3364 -1.7575 -3.9061 14.5195 -1.7913 -3.7382 14.4248 -1.7525 -3.6901 14.5431 -1.5319 -3.7004 14.4038 -1.536 -3.7282 14.5513 -1.6413 -3.8794 13.741 -1.5595 -3.8674 14.1156 -1.3989 -3.901 13.7353 -1.482 -3.8908 14.2998 -1.0732 -3.8364 14.4499 -1.0436 -3.9628 14.3084 -0.9911 -3.7479 14.404 -1.1986 -3.7243 14.483 -1.3551 -4.1736 14.4522 -1.7524 -4.2095 14.2696 -1.6886 -3.9629 14.1854 -1.6918 -4.1505 13.7852 -1.6151 -3.8368 14.6798 -1.7595 -4.1398 14.6312 -1.8165 -4.0839 14.7719 -1.7672 -4.0452 14.5866 -1.7712 -3.9381 14.7374 -1.7616 -4.0384 13.5114 -1.2544 -4.1192 13.5273 -1.2708 -4.0338 13.6852 -1.1882 -3.9717 14.051 -1.0339 -4.0946 14.1038 -1.0172 -4.1404 13.7187 -1.2083 -4.2359 14.2043 -1.1118 -4.15 14.349 -0.9819 -4.2353 14.5539 -1.0121 -4.2516 14.3775 -1.0394 -3.7574 14.6148 -1.1439 -3.7745 14.6276 -1.3032 -3.7958 14.7207 -1.5858 -3.7774 14.6909 -1.4884 -3.9163 14.7609 -1.4953 -3.8687 14.7735 -1.6647 -4.1054 14.846 -1.3546 -4.1288 14.8927 -1.2204 -4.172 14.8084 -1.777 -4.0614 14.8409 -1.6567 -4.1946 14.6828 -1.849 -4.2874 14.5266 -1.7836 -4.4298 14.5702 -1.512 -4.4632 14.6846 -1.4339 -4.4188 14.8345 -1.4694 -4.4484 14.9277 -1.2818 -4.4553 14.6898 -1.2287 -4.4133 14.9311 -1.1753 -4.3299 14.9878 -1.3084 -4.3513 14.7313 -1.7334 -4.4643 14.4996 -1.411 -4.4004 14.5057 -1.4955 -3.981 14.8316 -1.6616 -4.3723 14.3094 -1.4714 -3.9319 14.0772 -1.1598 -3.9798 14.5553 -1.7666 -3.8872 14.1042 -1.295 -3.9315 13.73 -1.3994 -3.8736 13.503 -1.5298 -3.8148 12.8164 -1.5945 -3.9692 13.7548 -1.6804 -3.903 13.4983 -1.4392 -3.8521 12.8325 -1.5213 -3.6854 12.0231 -1.8339 -3.7941 12.0292 -1.811 -3.6056 11.1271 -1.9523 -3.5822 9.2296 -1.6864 -3.165 2.0782 -3.0042 -3.2355 1.9916 -2.9181 -3.2243 2.6899 -2.1564 -3.0258 3.3498 -2.8024 -2.9455 3.0114 -3.0379 -3.1114 4.1017 -2.6434 -3.4783 5.8667 -2.2981 -3.3891 1.83 -2.6351 -3.3453 1.869 -2.7976 -3.2848 3.052 -2.3001 -3.2419 2.1413 -2.1907 -3.0194 2.4547 -2.3428 -3.0691 2.3619 -2.3864 -3.192 2.263 -2.4414 -3.0438 2.3571 -2.6303 -3.0693 2.1441 -2.7681 -3.0557 2.355 -2.7948 -3.0734 2.1101 -2.8577 -3.14 2.0379 -2.7839 -3.3139 2.3858 -2.1638 -2.9251 2.9136 -3.0508 -2.9706 2.7172 -3.1332 -2.997 2.7241 -3.1736 -3.5398 11.1162 -2.0052 -3.3204 8.0549 -2.0822 -3.5189 6.7999 -2.2298 -4.0417 13.7626 -1.6642 -4.0994 12.8604 -1.5358 -4.0265 12.0365 -1.5951 -3.9646 14.748 -1.3262 -4.3874 14.5243 -1.707 -3.9079 12.8328 -1.724 -3.9027 12.0269 -1.7761 -4.0125 12.8489 -1.6757 -4.1255 13.5717 -1.6039 -4.0146 13.541 -1.6603 -3.0294 2.6104 -2.7347 -3.0805 2.3245 -3.0996 -3.4019 1.7512 -2.5014 -2.9423 2.7894 -2.4921 -3.2628 2.1195 -2.5653 -3.2833 2.1032 -2.5179 -3.2843 1.9218 -2.5957 -3.2865 3.1856 -2.5352 -2.9962 2.672 -2.9657 -2.9989 4.0043 -2.3661 -3.0295 4.0611 -2.5061 -2.9538 3.2235 -2.4808 -3.0029 3.296 -2.6683 -3.7302 9.2858 -1.6719 -3.4787 8.036 -1.7811 -3.1748 2.7321 -3.209 -3.2368 2.3361 -3.154 -3.4309 2.3057 -2.9543 -3.6035 2.2069 -2.6795 -3.6408 2.1215 -2.4326 -4.3727 14.3056 -1.2462 -4.4671 14.4901 -1.2337 -4.0387 14.8405 -1.5393'/>
          </IndexedFaceSet>
        </Shape>
      </Group>
    </Transform>
  </Scene>
</X3D>