<?xml version="1.0" encoding="UTF-8"?>
<!DOCTYPE X3D PUBLIC "ISO//Web3D//DTD X3D 3.3//EN" "https://www.web3d.org/specifications/x3d-3.3.dtd">
<X3D profile='Interchange' version='3.3' xmlns:xsd='http://www.w3.org/2001/XMLSchema-instance' xsd:noNamespaceSchemaLocation='https://www.web3d.org/specifications/x3d-3.3.xsd'>
  <head>
    <meta content='BonesLeftRadiusUlna.x3d' name='title'/>
    <meta content='Damon Hernandez, Joe Williams' name='creator'/>
    <meta content='Human bone model for Left Radius Ulna' name='description'/>
    <meta content='Joe Williams, Don Brutzman' name='translator'/>
    <meta content='5 December 2013' name='created'/>
    <meta content='2 March 2026' name='modified'/>
    <meta content='This model has no HAnim nodes, rather it is purely geometry' name='warning'/>
    <meta content='document unit conversions applied: approximation of inches to meters, which ordinarily is a scale factor of 0.0254' name='TODO'/>
    <meta content='X3D-Edit 4.0, https://www.web3d.org/x3d/tools/X3D-Edit' name='generator'/>
    <meta content='https://www.web3d.org/x3d/content/examples/HumanoidAnimation/Medical/BonesLeftRadiusUlna.x3d' name='identifier'/>
    <meta content='../license.html' name='license'/>
  </head>
  <Scene>
    <WorldInfo title='BonesLeftRadiusUlna.x3d'/>
    <NavigationInfo type='"EXAMINE" "LOOKAT" "ANY"'/>
    <Group DEF='LeftArm'>
      <!-- lradius lulna -->
      <Transform DEF='LeftradulnSkeletonParts' scale='0.029 0.029 0.029'>
        <Shape DEF='lradius'>
          <Appearance>
            <Material ambientIntensity='0.965' diffuseColor='1 0.9765 0.8667' emissiveColor='0 0 0' shininess='0.05' specularColor='0.349 0.349 0.349'/>
          </Appearance>
          <IndexedFaceSet DEF='lradius_Geo' coordIndex='0 1 2 -1 3 4 5 -1 4 6 5 -1 7 8 9 -1 8 10 9 -1 11 12 13 -1 14 15 16 -1 17 18 19 -1 17 20 18 -1 21 22 23 -1 24 25 26 -1 27 28 29 -1 30 31 32 -1 30 33 31 -1 34 35 36 -1 37 38 39 -1 39 40 37 -1 41 42 43 -1 42 44 43 -1 45 46 47 -1 45 48 46 -1 49 50 51 -1 52 53 54 -1 53 55 54 -1 56 57 58 -1 56 59 57 -1 60 61 62 -1 62 63 60 -1 60 64 65 -1 61 66 67 -1 67 68 61 -1 69 70 68 -1 68 67 69 -1 71 72 73 -1 74 75 76 -1 77 72 78 -1 72 79 73 -1 80 81 82 -1 83 84 85 -1 86 87 88 -1 89 90 91 -1 89 92 90 -1 93 94 95 -1 96 87 25 -1 33 30 96 -1 97 95 94 -1 97 31 98 -1 97 99 31 -1 33 25 24 -1 33 96 25 -1 100 101 102 -1 103 104 105 -1 106 107 108 -1 106 109 107 -1 110 111 112 -1 113 114 115 -1 116 114 113 -1 113 117 116 -1 118 119 120 -1 121 122 123 -1 121 124 122 -1 125 126 127 -1 128 129 127 -1 127 126 128 -1 130 131 132 -1 131 133 132 -1 134 135 136 -1 136 137 134 -1 138 139 140 -1 138 141 139 -1 142 143 144 -1 143 145 144 -1 146 147 148 -1 149 126 125 -1 125 150 149 -1 118 151 152 -1 153 154 155 -1 155 156 153 -1 157 147 158 -1 158 159 157 -1 159 160 157 -1 160 161 157 -1 157 162 147 -1 159 163 160 -1 161 164 157 -1 154 141 138 -1 138 165 154 -1 166 167 168 -1 166 142 167 -1 169 170 171 -1 169 172 170 -1 131 173 133 -1 173 10 133 -1 174 175 176 -1 174 177 175 -1 178 179 180 -1 179 181 180 -1 139 182 140 -1 182 183 140 -1 184 185 186 -1 184 187 185 -1 188 189 190 -1 190 191 188 -1 192 193 4 -1 193 194 4 -1 195 6 194 -1 6 4 194 -1 196 117 197 -1 198 199 200 -1 110 112 149 -1 112 201 149 -1 202 203 117 -1 117 196 202 -1 204 117 205 -1 206 152 207 -1 152 208 207 -1 199 209 200 -1 209 210 200 -1 211 113 115 -1 128 126 149 -1 149 201 128 -1 212 213 214 -1 212 215 213 -1 212 195 215 -1 101 216 217 -1 101 100 216 -1 218 219 220 -1 220 221 218 -1 125 101 217 -1 125 222 101 -1 217 150 125 -1 223 110 149 -1 224 101 222 -1 224 221 101 -1 225 226 227 -1 226 218 227 -1 228 229 230 -1 229 231 230 -1 232 233 234 -1 233 235 234 -1 216 236 237 -1 216 100 236 -1 238 239 219 -1 239 240 219 -1 241 242 243 -1 241 244 242 -1 245 246 247 -1 245 248 246 -1 249 85 250 -1 249 251 85 -1 252 249 253 -1 254 255 256 -1 256 257 254 -1 258 259 260 -1 241 248 261 -1 261 262 241 -1 263 264 265 -1 265 266 263 -1 267 268 45 -1 45 47 267 -1 269 41 270 -1 270 271 269 -1 272 273 274 -1 273 275 274 -1 34 38 37 -1 34 276 38 -1 277 278 40 -1 40 39 277 -1 279 280 281 -1 282 283 284 -1 282 285 283 -1 286 287 288 -1 286 289 287 -1 290 291 62 -1 62 78 290 -1 292 293 294 -1 295 296 297 -1 298 299 93 -1 299 94 93 -1 300 298 28 -1 300 301 298 -1 302 12 303 -1 12 11 303 -1 304 305 306 -1 305 307 306 -1 308 309 310 -1 309 311 310 -1 312 311 313 -1 312 310 311 -1 262 244 241 -1 262 314 244 -1 14 16 22 -1 16 23 22 -1 20 315 18 -1 20 316 315 -1 317 318 319 -1 64 60 63 -1 320 65 64 -1 61 68 62 -1 321 322 323 -1 322 316 323 -1 324 325 326 -1 325 327 326 -1 328 329 330 -1 328 331 329 -1 332 333 334 -1 335 106 108 -1 335 336 106 -1 337 87 86 -1 337 338 87 -1 339 92 89 -1 339 334 92 -1 335 332 340 -1 335 341 332 -1 109 237 236 -1 109 105 237 -1 342 104 103 -1 342 343 104 -1 344 343 342 -1 344 345 343 -1 91 346 89 -1 96 88 87 -1 63 87 338 -1 334 333 92 -1 333 347 92 -1 90 348 349 -1 332 341 350 -1 341 351 350 -1 341 308 310 -1 310 351 341 -1 326 327 352 -1 327 353 352 -1 318 353 327 -1 66 354 67 -1 66 355 354 -1 320 330 329 -1 320 64 330 -1 291 63 62 -1 356 316 20 -1 356 323 316 -1 23 314 262 -1 23 16 314 -1 309 240 311 -1 309 357 240 -1 53 358 306 -1 306 359 53 -1 59 360 57 -1 59 361 360 -1 27 362 26 -1 26 363 27 -1 364 297 296 -1 364 344 297 -1 69 293 77 -1 293 292 77 -1 294 365 292 -1 294 366 365 -1 367 368 71 -1 367 369 368 -1 365 366 370 -1 284 371 372 -1 284 283 371 -1 290 373 291 -1 373 374 291 -1 285 375 376 -1 285 282 375 -1 279 278 280 -1 278 277 280 -1 38 48 39 -1 276 377 378 -1 378 46 276 -1 272 274 379 -1 43 380 41 -1 380 270 41 -1 268 381 382 -1 268 383 381 -1 384 252 253 -1 253 385 384 -1 386 387 302 -1 387 12 302 -1 388 261 389 -1 261 259 389 -1 387 258 12 -1 258 13 12 -1 258 390 13 -1 258 260 390 -1 256 391 257 -1 391 392 257 -1 250 84 392 -1 250 85 84 -1 307 76 75 -1 307 393 76 -1 260 247 394 -1 260 245 247 -1 242 244 238 -1 244 239 238 -1 357 220 240 -1 220 219 240 -1 395 224 396 -1 224 222 396 -1 234 235 228 -1 235 229 228 -1 151 223 232 -1 125 396 222 -1 125 127 396 -1 231 247 246 -1 231 229 247 -1 235 233 397 -1 397 394 235 -1 398 243 242 -1 398 399 243 -1 226 238 218 -1 238 219 218 -1 221 102 101 -1 221 220 102 -1 400 195 401 -1 195 194 401 -1 214 128 201 -1 214 213 128 -1 113 211 199 -1 211 209 199 -1 124 402 211 -1 211 115 124 -1 209 403 210 -1 403 404 210 -1 402 206 403 -1 206 207 403 -1 152 206 121 -1 118 120 405 -1 405 111 118 -1 111 110 118 -1 212 202 196 -1 196 195 212 -1 199 406 113 -1 196 6 195 -1 196 197 6 -1 407 408 409 -1 409 410 407 -1 9 3 7 -1 3 5 7 -1 411 182 139 -1 411 412 182 -1 183 413 178 -1 413 179 178 -1 185 414 186 -1 415 416 417 -1 415 418 416 -1 168 419 420 -1 168 167 419 -1 137 136 421 -1 136 174 421 -1 128 422 129 -1 128 213 422 -1 195 400 215 -1 117 204 116 -1 117 203 205 -1 119 152 123 -1 119 118 152 -1 152 121 123 -1 245 261 248 -1 109 423 107 -1 109 236 423 -1 424 397 233 -1 425 13 390 -1 426 99 427 -1 94 295 427 -1 363 26 25 -1 428 426 429 -1 428 32 426 -1 426 427 429 -1 430 96 30 -1 431 89 346 -1 330 432 328 -1 330 337 432 -1 330 338 337 -1 330 64 338 -1 72 71 368 -1 77 292 365 -1 79 77 365 -1 79 72 77 -1 290 368 369 -1 369 373 290 -1 370 79 365 -1 370 372 79 -1 304 306 358 -1 393 307 305 -1 338 64 63 -1 254 257 433 -1 433 81 281 -1 281 254 433 -1 74 81 433 -1 74 82 81 -1 57 360 49 -1 46 378 47 -1 276 34 36 -1 36 377 276 -1 293 434 35 -1 430 32 428 -1 430 30 32 -1 33 24 98 -1 98 31 33 -1 24 26 362 -1 263 435 436 -1 435 437 436 -1 263 266 435 -1 317 43 44 -1 421 179 137 -1 179 413 137 -1 198 406 199 -1 438 169 439 -1 169 438 440 -1 441 439 442 -1 441 438 439 -1 443 444 198 -1 444 443 187 -1 445 442 185 -1 445 441 442 -1 197 5 6 -1 446 5 197 -1 190 184 447 -1 184 190 448 -1 449 450 189 -1 450 449 451 -1 171 173 175 -1 170 173 171 -1 452 177 453 -1 454 177 452 -1 186 455 456 -1 414 455 186 -1 457 458 408 -1 458 457 459 -1 409 460 461 -1 460 409 462 -1 134 413 463 -1 137 413 134 -1 459 464 465 -1 459 457 464 -1 466 467 468 -1 467 466 132 -1 469 470 181 -1 130 470 469 -1 471 343 345 -1 303 343 471 -1 472 319 356 -1 380 319 472 -1 21 436 22 -1 263 436 21 -1 473 270 474 -1 473 271 270 -1 24 475 98 -1 24 362 475 -1 428 476 430 -1 476 428 477 -1 432 478 479 -1 432 480 478 -1 331 349 348 -1 331 328 349 -1 379 35 434 -1 379 36 35 -1 481 482 267 -1 482 481 269 -1 39 483 277 -1 483 39 484 -1 255 281 280 -1 254 281 255 -1 288 358 485 -1 288 304 358 -1 393 375 76 -1 393 376 375 -1 288 305 304 -1 287 305 288 -1 82 76 375 -1 74 76 82 -1 58 49 51 -1 49 58 57 -1 486 279 80 -1 279 486 278 -1 37 487 366 -1 40 487 37 -1 488 374 489 -1 488 490 374 -1 54 491 52 -1 54 492 491 -1 35 294 293 -1 294 35 34 -1 493 371 283 -1 367 371 493 -1 287 285 376 -1 287 289 285 -1 375 494 82 -1 375 282 494 -1 284 370 495 -1 372 370 284 -1 78 368 290 -1 78 72 368 -1 369 496 373 -1 369 497 496 -1 485 286 288 -1 485 498 286 -1 91 349 479 -1 349 91 90 -1 478 431 346 -1 478 477 431 -1 93 475 29 -1 475 93 95 -1 309 423 357 -1 423 309 107 -1 390 424 425 -1 397 424 390 -1 237 13 425 -1 237 105 13 -1 100 423 236 -1 100 102 423 -1 204 499 116 -1 499 204 500 -1 501 203 502 -1 501 205 203 -1 215 422 213 -1 215 400 422 -1 467 503 465 -1 467 504 503 -1 188 465 503 -1 465 188 459 -1 458 505 462 -1 458 191 505 -1 174 469 421 -1 174 176 469 -1 411 506 507 -1 508 506 411 -1 509 510 511 -1 512 510 509 -1 419 513 514 -1 419 167 513 -1 416 515 516 -1 416 418 515 -1 147 517 148 -1 147 162 517 -1 518 519 520 -1 518 521 519 -1 147 522 158 -1 147 146 522 -1 156 161 523 -1 164 161 156 -1 524 163 525 -1 160 163 524 -1 526 146 417 -1 522 146 526 -1 148 165 415 -1 517 165 148 -1 527 524 528 -1 527 523 524 -1 525 420 529 -1 530 420 525 -1 520 166 168 -1 519 166 520 -1 158 518 159 -1 158 521 518 -1 508 527 506 -1 508 153 527 -1 529 419 510 -1 420 419 529 -1 143 417 416 -1 417 143 526 -1 415 138 418 -1 165 138 415 -1 452 185 442 -1 452 414 185 -1 135 453 136 -1 135 455 453 -1 470 531 532 -1 470 466 531 -1 183 463 413 -1 182 463 183 -1 144 532 531 -1 145 532 144 -1 516 178 180 -1 515 178 516 -1 444 450 533 -1 450 444 448 -1 7 446 451 -1 7 5 446 -1 505 456 534 -1 505 447 456 -1 504 449 503 -1 504 8 449 -1 461 410 409 -1 410 461 412 -1 408 535 457 -1 535 408 407 -1 536 464 537 -1 536 468 464 -1 412 507 410 -1 507 412 411 -1 407 511 535 -1 511 407 509 -1 537 513 536 -1 513 537 514 -1 438 538 1 -1 438 441 538 -1 443 539 445 -1 443 540 539 -1 202 214 541 -1 214 202 212 -1 541 111 502 -1 541 112 111 -1 501 120 500 -1 501 405 120 -1 116 122 114 -1 116 499 122 -1 542 543 544 -1 545 543 542 -1 546 547 548 -1 546 549 547 -1 542 550 551 -1 542 552 550 -1 545 553 548 -1 553 545 554 -1 403 546 404 -1 403 207 546 -1 124 206 402 -1 124 121 206 -1 555 554 551 -1 556 554 555 -1 553 210 404 -1 210 553 557 -1 403 211 402 -1 211 403 209 -1 1 555 2 -1 538 555 1 -1 556 540 557 -1 540 556 539 -1 552 558 550 -1 558 552 559 -1 193 2 560 -1 193 0 2 -1 395 561 559 -1 561 395 396 -1 194 560 401 -1 194 193 560 -1 562 129 422 -1 562 561 129 -1 226 242 238 -1 226 398 242 -1 231 243 399 -1 231 246 243 -1 247 235 394 -1 229 235 247 -1 399 563 564 -1 399 398 563 -1 227 395 565 -1 227 224 395 -1 563 544 543 -1 563 225 544 -1 549 564 547 -1 549 230 564 -1 228 152 234 -1 152 228 208 -1 260 397 390 -1 394 397 260 -1 392 75 257 -1 75 392 84 -1 391 250 392 -1 391 566 250 -1 258 389 259 -1 389 258 387 -1 261 23 262 -1 23 261 388 -1 567 387 386 -1 567 389 387 -1 21 388 568 -1 21 23 388 -1 386 569 567 -1 569 386 570 -1 263 568 264 -1 263 21 568 -1 571 570 384 -1 571 569 570 -1 384 572 571 -1 572 384 385 -1 573 265 574 -1 573 266 265 -1 385 575 572 -1 575 385 576 -1 574 577 573 -1 577 574 578 -1 381 576 579 -1 381 575 576 -1 578 482 577 -1 482 578 383 -1 382 579 580 -1 382 381 579 -1 267 383 268 -1 267 482 383 -1 484 580 483 -1 484 382 580 -1 269 577 482 -1 577 269 271 -1 275 44 42 -1 275 273 44 -1 267 378 481 -1 47 378 267 -1 48 276 46 -1 48 38 276 -1 486 82 494 -1 486 80 82 -1 52 498 485 -1 491 498 52 -1 489 373 496 -1 374 373 489 -1 497 367 493 -1 367 497 369 -1 495 366 487 -1 370 366 495 -1 79 371 73 -1 79 372 371 -1 68 78 62 -1 78 68 70 -1 300 58 301 -1 300 56 58 -1 364 299 581 -1 296 299 364 -1 95 98 475 -1 95 97 98 -1 28 363 582 -1 28 27 363 -1 363 490 488 -1 363 25 490 -1 54 583 584 -1 54 55 583 -1 306 59 359 -1 306 361 59 -1 303 585 302 -1 471 585 303 -1 251 50 49 -1 251 586 50 -1 360 83 85 -1 361 83 360 -1 437 472 17 -1 474 472 437 -1 314 239 244 -1 314 313 239 -1 312 15 587 -1 15 312 16 -1 273 353 44 -1 273 352 353 -1 588 379 434 -1 272 379 588 -1 355 329 324 -1 320 329 355 -1 434 354 588 -1 434 67 354 -1 588 326 352 -1 588 354 326 -1 587 310 312 -1 351 310 587 -1 315 351 587 -1 350 351 315 -1 350 316 322 -1 350 315 316 -1 321 318 589 -1 321 323 318 -1 589 327 325 -1 589 318 327 -1 92 348 90 -1 92 347 348 -1 291 490 63 -1 291 374 490 -1 346 479 478 -1 346 91 479 -1 339 297 340 -1 339 295 297 -1 431 427 89 -1 431 429 427 -1 88 430 476 -1 430 88 96 -1 336 103 106 -1 336 342 103 -1 50 344 364 -1 50 345 344 -1 50 581 51 -1 364 581 50 -1 297 342 336 -1 297 344 342 -1 106 105 109 -1 106 103 105 -1 99 32 31 -1 32 99 426 -1 429 477 428 -1 477 429 431 -1 295 89 427 -1 89 295 339 -1 340 336 335 -1 340 297 336 -1 334 340 332 -1 340 334 339 -1 480 337 86 -1 337 480 432 -1 108 341 335 -1 341 108 308 -1 331 324 329 -1 331 325 324 -1 325 348 589 -1 331 348 325 -1 347 589 348 -1 347 321 589 -1 333 321 347 -1 333 322 321 -1 322 332 350 -1 333 332 322 -1 66 320 355 -1 66 65 320 -1 354 324 326 -1 354 355 324 -1 272 352 273 -1 272 588 352 -1 323 319 318 -1 323 356 319 -1 18 587 15 -1 18 315 587 -1 16 313 314 -1 16 312 313 -1 22 19 14 -1 436 19 22 -1 17 436 437 -1 17 19 436 -1 266 473 435 -1 573 473 266 -1 313 240 239 -1 313 311 240 -1 306 83 361 -1 306 307 83 -1 85 49 360 -1 85 251 49 -1 345 586 471 -1 345 50 586 -1 252 471 586 -1 585 471 252 -1 488 582 363 -1 492 582 488 -1 300 582 584 -1 300 28 582 -1 298 29 28 -1 298 93 29 -1 298 581 299 -1 298 301 581 -1 296 94 299 -1 94 296 295 -1 584 56 300 -1 584 583 56 -1 301 51 581 -1 58 51 301 -1 491 496 498 -1 489 496 491 -1 493 286 497 -1 493 289 286 -1 494 487 486 -1 495 487 494 -1 74 257 75 -1 74 433 257 -1 377 275 378 -1 275 377 274 -1 481 275 42 -1 275 481 378 -1 573 271 473 -1 271 573 577 -1 474 380 472 -1 474 270 380 -1 45 382 484 -1 45 268 382 -1 256 483 580 -1 483 256 255 -1 391 580 579 -1 580 391 256 -1 383 575 381 -1 383 578 575 -1 579 566 391 -1 579 576 566 -1 572 578 574 -1 578 572 575 -1 253 576 385 -1 576 253 566 -1 574 571 572 -1 574 265 571 -1 265 569 571 -1 265 264 569 -1 585 384 570 -1 384 585 252 -1 264 567 569 -1 264 568 567 -1 570 302 585 -1 570 386 302 -1 389 568 388 -1 568 389 567 -1 260 261 245 -1 261 260 259 -1 566 249 250 -1 566 253 249 -1 586 249 252 -1 586 251 249 -1 246 241 243 -1 246 248 241 -1 151 234 152 -1 151 232 234 -1 208 230 549 -1 208 228 230 -1 547 563 543 -1 547 564 563 -1 225 565 544 -1 225 227 565 -1 230 399 564 -1 230 231 399 -1 225 398 226 -1 563 398 225 -1 218 224 227 -1 218 221 224 -1 110 151 118 -1 110 223 151 -1 217 424 233 -1 217 216 424 -1 422 401 562 -1 422 400 401 -1 127 561 396 -1 129 561 127 -1 401 558 562 -1 401 560 558 -1 562 559 561 -1 562 558 559 -1 560 550 558 -1 560 2 550 -1 565 559 552 -1 559 565 395 -1 200 557 540 -1 200 210 557 -1 538 556 555 -1 539 556 538 -1 554 557 553 -1 557 554 556 -1 2 551 550 -1 555 551 2 -1 548 404 546 -1 404 548 553 -1 545 551 554 -1 545 542 551 -1 549 207 208 -1 207 549 546 -1 548 543 545 -1 548 547 543 -1 552 544 565 -1 542 544 552 -1 123 499 119 -1 122 499 123 -1 205 500 204 -1 205 501 500 -1 502 202 541 -1 203 202 502 -1 201 541 214 -1 201 112 541 -1 198 540 443 -1 198 200 540 -1 441 539 538 -1 441 445 539 -1 192 0 193 -1 0 192 440 -1 531 513 144 -1 531 536 513 -1 535 514 537 -1 514 535 511 -1 410 509 407 -1 509 410 507 -1 466 536 531 -1 466 468 536 -1 457 537 464 -1 537 457 535 -1 133 8 504 -1 133 10 8 -1 503 189 188 -1 503 449 189 -1 191 447 505 -1 191 190 447 -1 451 533 450 -1 451 446 533 -1 187 448 444 -1 448 187 184 -1 515 183 178 -1 140 183 515 -1 180 145 516 -1 180 532 145 -1 412 463 182 -1 412 461 463 -1 532 181 470 -1 180 181 532 -1 534 455 135 -1 534 456 455 -1 453 174 136 -1 453 177 174 -1 175 131 176 -1 175 173 131 -1 442 454 452 -1 442 439 454 -1 172 9 170 -1 9 172 3 -1 142 526 143 -1 526 142 166 -1 512 529 510 -1 529 512 528 -1 154 508 141 -1 154 153 508 -1 506 528 512 -1 506 527 528 -1 166 522 526 -1 522 166 519 -1 530 168 420 -1 520 168 530 -1 525 528 524 -1 525 529 528 -1 153 523 527 -1 523 153 156 -1 517 154 165 -1 155 154 517 -1 417 148 415 -1 417 146 148 -1 113 197 117 -1 113 406 197 -1 150 223 149 -1 232 223 150 -1 530 163 159 -1 163 530 525 -1 523 160 524 -1 161 160 523 -1 157 156 155 -1 157 164 156 -1 519 158 522 -1 521 158 519 -1 162 155 517 -1 162 157 155 -1 159 520 530 -1 159 518 520 -1 418 140 515 -1 418 138 140 -1 145 416 516 -1 143 416 145 -1 167 144 513 -1 167 142 144 -1 510 514 511 -1 510 419 514 -1 507 512 509 -1 506 512 507 -1 141 411 139 -1 141 508 411 -1 460 135 134 -1 460 534 135 -1 130 176 131 -1 469 176 130 -1 462 534 460 -1 462 505 534 -1 459 191 458 -1 459 188 191 -1 132 504 467 -1 132 133 504 -1 233 150 217 -1 233 232 150 -1 502 405 501 -1 405 502 111 -1 124 114 122 -1 124 115 114 -1 119 500 120 -1 119 499 500 -1 11 105 104 -1 105 11 13 -1 216 425 424 -1 237 425 216 -1 357 102 220 -1 102 357 423 -1 107 308 108 -1 107 309 308 -1 94 99 97 -1 94 427 99 -1 476 86 88 -1 86 476 480 -1 84 307 75 -1 84 83 307 -1 497 498 496 -1 286 498 497 -1 282 495 494 -1 282 284 495 -1 78 69 77 -1 78 70 69 -1 289 283 285 -1 289 493 283 -1 367 73 371 -1 71 73 367 -1 434 69 67 -1 69 434 293 -1 366 34 37 -1 366 294 34 -1 489 492 488 -1 491 492 489 -1 60 66 61 -1 60 65 66 -1 486 40 278 -1 486 487 40 -1 80 281 81 -1 80 279 281 -1 87 490 25 -1 490 87 63 -1 359 55 53 -1 583 55 359 -1 359 56 583 -1 359 59 56 -1 305 376 393 -1 376 305 287 -1 485 53 52 -1 485 358 53 -1 492 584 582 -1 584 492 54 -1 277 255 280 -1 255 277 483 -1 48 484 39 -1 484 48 45 -1 42 269 481 -1 269 42 41 -1 318 44 353 -1 317 44 318 -1 36 274 377 -1 274 36 379 -1 328 479 349 -1 328 432 479 -1 477 480 476 -1 480 477 478 -1 362 29 475 -1 362 27 29 -1 435 474 437 -1 473 474 435 -1 317 380 43 -1 317 319 380 -1 20 472 356 -1 472 20 17 -1 15 19 18 -1 19 15 14 -1 104 303 11 -1 104 343 303 -1 421 181 179 -1 469 181 421 -1 130 466 470 -1 132 466 130 -1 468 465 464 -1 465 468 467 -1 461 134 463 -1 134 461 460 -1 408 462 409 -1 462 408 458 -1 447 186 456 -1 186 447 184 -1 455 452 453 -1 452 455 414 -1 175 454 171 -1 175 177 454 -1 170 10 173 -1 9 10 170 -1 8 451 449 -1 451 8 7 -1 189 448 190 -1 448 189 450 -1 192 3 172 -1 192 4 3 -1 406 446 197 -1 533 446 406 -1 440 172 169 -1 440 192 172 -1 198 533 406 -1 533 198 444 -1 187 445 185 -1 187 443 445 -1 439 171 454 -1 171 439 169 -1 440 1 0 -1 440 438 1 -1' creaseAngle='1.571'>
            <Coordinate DEF='lradius_Coord' point='8.0208 36.006 -0.9466 8.0129 36.0212 -0.9224 8.0162 35.8971 -0.8648 7.9621 36.2591 -1.2772 7.9537 36.2061 -1.2443 7.8327 36.2605 -1.2891 7.8291 36.2006 -1.2662 7.8328 36.3702 -1.352 7.8305 36.4184 -1.388 7.9841 36.3704 -1.371 7.9944 36.4118 -1.4161 7.5815 31.3845 1.1721 7.5684 31.3933 1.1826 7.6616 32.2188 0.838 7.597 30.8557 2.0122 7.6293 30.8518 2.0083 7.7307 31.587 1.6211 7.5267 30.2945 2.3696 7.5996 30.5862 2.1471 7.5619 30.5913 2.146 7.5644 30.287 2.3603 7.5408 30.8264 1.9788 7.5722 30.844 2.0051 7.6604 31.5828 1.6109 7.7459 29.4066 2.1173 7.7256 29.296 2.2629 7.7351 29.3183 2.1363 7.7164 29.3968 2.0102 7.674 29.3923 1.8921 7.7192 29.4487 1.9883 7.7855 29.4335 2.1488 7.755 29.5137 2.0676 7.7987 29.5252 2.0923 7.7534 29.4186 2.1253 7.2839 29.333 2.7521 7.3964 29.2695 2.8395 7.3515 29.3431 2.8845 7.1808 29.3639 2.5735 7.1223 29.4229 2.5721 7.0438 29.3865 2.3859 7.1026 29.3321 2.3583 7.363 29.9307 2.6745 7.3369 29.8567 2.754 7.4239 29.9358 2.6696 7.4247 29.8281 2.7575 7.1282 29.5458 2.5188 7.2016 29.5743 2.6993 7.192 29.6292 2.6783 7.1269 29.5022 2.5404 7.5033 29.6883 1.7152 7.5184 29.9466 1.6759 7.5317 29.6962 1.7197 7.4608 29.1312 1.9135 7.4572 29.1471 1.8868 7.4841 29.1296 1.9035 7.4796 29.1478 1.8807 7.5524 29.3905 1.7609 7.5176 29.541 1.7234 7.5467 29.5424 1.7305 7.5213 29.3926 1.76 7.6745 29.2325 2.4921 7.6235 29.2225 2.6582 7.5694 29.2135 2.6181 7.6424 29.2089 2.4205 7.6737 29.2761 2.4334 7.6847 29.2586 2.5114 7.6364 29.2439 2.6686 7.4932 29.2464 2.7958 7.5048 29.2257 2.7593 7.4805 29.236 2.7821 7.4852 29.2341 2.7799 7.4559 29.3382 2.5043 7.4363 29.3195 2.5968 7.4118 29.3558 2.534 7.0461 29.2921 1.9318 7.1642 29.3717 1.8841 7.0924 29.2979 1.9175 7.4158 29.2987 2.6587 7.4618 29.2788 2.6414 7.3614 29.3731 2.5578 6.9897 29.2502 2.0359 7.0088 29.2816 1.9407 7.0435 29.2785 1.9509 7.3084 29.4543 1.8211 7.2488 29.4706 1.8369 7.335 29.5906 1.7778 7.7491 29.3234 2.3263 7.7009 29.2554 2.3409 7.7477 29.3117 2.2994 7.7908 29.8399 2.0372 7.8023 29.6732 2.2036 7.8126 29.6585 2.1713 7.8153 29.8694 2.1077 7.7171 29.591 1.932 7.7294 29.8011 1.9184 7.7272 29.5964 1.9555 7.7406 29.31 2.2733 7.7414 29.603 2.0047 7.7438 29.5059 2.06 7.7495 29.6129 2.0167 7.8501 33.9328 0.0601 7.8793 34.6491 -0.3532 7.9804 34.0028 0.1478 7.6256 31.3675 1.1707 7.6006 31.3759 1.1682 7.6867 32.2133 0.828 7.7868 31.3846 1.2568 7.9909 32.3336 0.9815 7.906 31.4254 1.3751 7.8214 32.2579 0.909 7.6622 35.4035 -0.842 7.638 35.5286 -0.9688 7.6685 35.5186 -0.9922 7.6174 36.0072 -1.0762 7.5886 35.8376 -1.0381 7.576 35.8493 -1.0264 7.6166 35.8136 -1.0614 7.6585 35.9689 -1.1438 7.5816 35.4525 -0.7963 7.5941 35.5708 -0.8945 7.6066 35.5608 -0.9068 7.5208 35.6126 -0.8626 7.5481 35.7373 -0.9735 7.5429 35.5981 -0.8816 7.5299 35.7588 -0.9548 7.8004 34.991 -0.6042 7.7975 35.3978 -0.8732 7.8148 35.3971 -0.8729 7.8246 35.5046 -0.9565 7.8404 35.5062 -0.9499 8.1728 36.5218 -1.3897 8.1573 36.5101 -1.3718 8.0097 36.4631 -1.5024 8.0056 36.445 -1.4665 8.0646 36.8196 -0.928 8.0586 36.789 -0.9312 8.1952 36.7486 -1.0108 8.2048 36.7675 -1.0154 8.2082 36.9157 -1.1244 8.0629 36.9349 -0.9991 8.2241 36.9081 -1.1089 8.0524 36.937 -1.0263 8.0327 36.6963 -1.5482 8.1899 36.7347 -1.4639 8.0428 36.6436 -1.5769 8.2194 36.6946 -1.4683 8.0753 36.7588 -1.3085 7.9936 36.7543 -1.3039 8.0777 36.7695 -1.2895 7.7264 35.3872 -0.857 7.7571 35.0048 -0.5957 7.601 35.3186 -0.7101 7.5215 35.5084 -0.7338 7.8991 36.8794 -1.0918 8.0226 36.9047 -1.0991 7.9904 36.8031 -1.2028 7.931 36.7997 -1.2114 7.965 36.7692 -1.2683 7.9805 36.7518 -1.3258 7.9179 36.7457 -1.3248 7.919 36.7565 -1.2911 7.9359 36.7666 -1.2748 7.9866 36.7695 -1.2755 7.9097 36.7505 -1.3134 7.9449 36.7681 -1.2712 8.1558 36.8836 -1.1555 8.0157 36.7105 -1.4999 7.8087 36.6922 -1.5365 7.8503 36.718 -1.4875 8.0815 36.3406 -1.1509 8.0942 36.4238 -1.2763 8.1334 36.4598 -1.2163 8.0629 36.314 -1.2124 8.1145 36.4665 -1.3152 8.2416 36.6312 -1.1789 8.1642 36.5103 -1.2406 8.2263 36.5755 -1.2727 8.147 36.5522 -1.1742 8.2903 36.7546 -1.2059 8.2766 36.6709 -1.1953 8.2819 36.6848 -1.3223 8.2548 36.6079 -1.3025 8.0793 36.8934 -0.9522 8.2183 36.8467 -1.0534 7.7932 36.563 -0.9912 7.9378 36.4775 -0.9511 7.9081 36.6016 -0.9498 7.8092 36.4541 -0.9622 7.5996 36.5729 -1.2437 7.6517 36.4991 -1.2523 7.6716 36.5561 -1.111 7.6273 36.6482 -1.1067 8.0492 36.2584 -1.1848 8.0048 35.9691 -1.031 7.9172 35.9171 -1.1192 7.8012 35.9143 -1.1793 7.7068 35.95 -1.1651 7.7352 36.227 -1.2245 7.6874 36.3364 -1.0368 7.5891 36.0682 -1.0013 7.6334 36.1312 -0.8742 7.761 35.5019 -0.9842 7.6964 35.7433 -1.1633 7.6687 35.745 -1.1446 7.6286 35.7999 -1.0758 7.6563 35.7525 -1.1307 7.4977 35.6341 -0.8113 7.5065 35.678 -0.7534 7.511 35.5528 -0.6748 7.5279 35.9261 -0.9161 7.6155 36.0181 -0.7901 7.5418 35.8871 -0.9856 7.8035 35.7391 -1.1569 7.8509 35.6498 -1.0621 7.7902 35.6429 -1.1195 7.8496 35.7411 -1.1251 7.7443 33.9219 -0.0259 7.7808 34.6453 -0.3864 8.0153 34.783 -0.1506 7.9974 34.0734 0.2552 7.9996 34.0276 0.1833 7.9597 34.7137 -0.2434 7.8667 34.998 -0.5586 7.6543 35.293 -0.7458 7.9728 35.0468 -0.4886 7.9733 35.2111 -0.3085 7.9566 34.8549 -0.0734 8.016 35.1194 -0.3856 7.5666 35.1729 -0.3781 7.586 34.8033 -0.1474 7.623 35.2246 -0.3015 7.624 34.8589 -0.0722 7.638 35.0631 -0.5459 7.6574 34.7166 -0.3583 7.571 35.0994 -0.4592 7.6075 34.7545 -0.2444 7.8615 33.2137 0.443 7.7325 33.1574 0.3079 7.9704 34.1334 0.3512 7.9735 33.3787 0.7437 8.0344 33.3497 0.6366 7.7411 33.4127 0.7764 7.864 34.1976 0.4096 7.7417 34.1726 0.4438 7.8804 33.4305 0.7725 7.6898 33.3513 0.6482 7.6246 34.1427 0.3718 7.6428 34.1168 0.2391 7.6922 33.3975 0.7398 7.3364 29.7673 1.808 7.2641 29.6024 1.8249 7.3842 29.7226 1.755 7.3916 30.011 1.7688 7.3109 29.7911 1.8474 6.9944 29.3091 1.9436 6.964 29.3243 1.9925 7.0305 29.418 1.9469 7.0902 29.386 1.9014 7.6266 32.3066 0.9345 7.6292 32.3272 0.9856 7.6862 33.2812 0.5091 7.6274 32.3987 1.1093 7.6964 32.4477 1.2029 7.4947 30.5758 2.0968 7.4573 30.5477 2.0466 7.4303 30.1863 2.2007 7.4434 30.2174 2.2753 7.213 29.7106 2.6342 7.1778 29.6026 2.507 7.3267 29.9238 2.6615 7.4132 30.0028 2.6047 7.3792 29.9876 2.5777 7.4019 29.4646 2.9106 7.4271 29.6764 2.8435 7.3499 29.4667 2.8997 7.331 29.7019 2.8385 7.2096 29.4368 2.756 6.9611 29.3134 2.1976 6.9674 29.2736 2.171 6.9643 29.2637 2.0358 6.9541 29.2901 2.0138 6.98 29.2898 1.9623 7.1463 29.3319 2.0915 7.3238 29.3569 2.263 7.2284 29.3534 2.3012 7.2632 29.3217 2.0978 7.3887 29.2442 2.0351 7.2548 29.2817 1.9349 7.3312 29.2562 1.9438 7.3096 29.3068 2.0843 7.5624 29.2716 2.4521 7.6251 29.1997 2.4175 7.3776 29.3059 2.6816 7.421 29.2573 2.8249 7.2966 29.3241 2.7272 7.7184 29.9741 1.8371 7.6751 29.9523 1.7835 7.7048 30.2718 1.6961 7.6794 29.5706 1.8342 7.6675 29.7719 1.8193 7.614 29.3981 1.79 7.6004 29.5537 1.7581 7.4851 30.5984 1.5483 7.5068 30.5529 1.5286 7.3356 29.2643 1.9148 7.2575 29.2924 1.9089 7.3942 29.3095 1.8451 7.2662 29.3451 1.8769 7.9223 31.457 1.4105 8.0073 32.351 1.0196 7.9186 31.515 1.4506 7.9863 32.385 1.055 7.8084 31.5924 1.5638 7.9028 32.412 1.1894 7.787 32.4503 1.2332 7.6446 30.5733 2.1322 7.606 30.2575 2.3246 7.4743 29.9316 2.6561 7.6239 29.8905 2.5831 7.4875 29.9838 2.6196 7.6837 29.3132 2.5174 7.7127 29.9912 2.3275 7.7325 30.1919 2.2155 7.618 30.062 2.449 7.6971 29.5174 2.5937 7.6959 29.6152 2.5162 7.5994 29.5839 2.7264 7.6344 29.7158 2.6618 7.7722 29.5181 2.3357 7.7315 29.4228 2.4539 7.7382 29.3865 2.4077 7.7418 29.5465 2.3989 7.8054 30.414 1.9416 7.7812 30.123 2.0955 7.7874 30.0532 2.0499 7.8181 30.6134 1.7079 7.7265 30.5063 1.5938 7.731 29.3744 2.3719 7.6741 29.2665 2.4053 7.7886 30.0084 1.9664 7.7954 30.3094 1.8338 7.8536 30.6853 1.8087 7.6074 30.504 1.5405 7.5473 30.5437 1.5159 7.6004 30.2646 1.6312 7.5343 30.284 1.5954 7.825 29.651 2.1282 7.761 29.9201 2.205 7.7547 29.7245 2.3072 7.7938 29.6294 2.2408 7.7678 30.5194 2.0274 7.8022 30.7776 1.8632 7.547 29.6327 2.7935 7.5729 29.7556 2.7095 7.5428 29.4117 2.7924 7.6547 29.3815 2.6565 7.5379 30.1055 2.4946 8.0268 33.3229 0.5914 7.3833 29.2337 1.9122 7.5066 29.2396 1.8119 7.4811 29.545 1.733 7.4479 29.4113 1.7898 7.7209 29.3978 2.0375 7.7286 29.2898 2.14 7.5948 29.9237 1.7149 7.3317 29.3602 2.5918 7.1991 29.3518 2.5601 7.4474 29.3419 2.4537 7.525 29.3067 2.4423 7.5116 29.2937 2.3798 7.2754 29.3736 2.5063 7.4007 29.36 2.4653 7.32 29.3757 2.4817 7.5519 29.2606 2.3748 7.6063 29.1761 2.3347 7.0987 29.2858 1.9387 7.2026 29.2891 1.9335 7.3075 29.4633 2.8743 7.2561 29.695 2.7992 7.3875 29.358 2.9052 7.4486 29.9997 2.6184 7.2263 29.6324 2.2251 7.1057 29.5133 2.3169 7.2626 29.7405 2.4262 7.3741 30.0557 1.912 7.3293 29.8438 1.997 7.4501 30.6783 1.6483 7.5461 31.4527 1.3238 7.6089 31.561 1.535 7.5575 31.4865 1.4279 7.6993 33.2223 0.4107 7.1529 29.5467 1.9245 7.1891 29.4869 1.8527 7.2029 29.301 1.9084 7.6731 34.0366 0.1421 7.9738 35.4175 -0.7361 7.8846 35.3789 -0.8525 7.6955 33.9851 0.0607 7.8501 34.902 -0.0087 7.7415 34.8989 -0.0166 7.8639 35.7423 -1.1139 7.898 35.7467 -1.0833 7.5139 35.8006 -0.9125 7.5055 35.8477 -0.8514 7.6044 35.9193 -0.7344 7.627 35.5358 -0.9533 7.6778 36.2722 -1.1422 7.6034 36.7324 -1.1354 7.6019 36.7087 -1.1217 7.7295 36.7992 -0.9716 7.7415 36.8264 -0.9784 7.8931 36.9039 -0.9829 7.8966 36.8643 -0.9236 8.2116 36.793 -1.0259 7.9654 36.589 -0.9839 8.2082 36.8231 -1.2608 8.2537 36.7859 -1.3482 8.2055 36.785 -1.3395 8.2641 36.8458 -1.2563 7.7145 36.7097 -1.4782 7.7848 36.7252 -1.4375 8.2622 36.647 -1.184 7.8656 35.6548 -1.0544 8.0044 33.2985 0.5545 7.718 33.9336 -0.0207 7.7123 33.1633 0.3122 7.7934 29.6242 2.0452 7.7404 29.8065 1.9353 7.8138 29.5297 2.1063 7.8047 29.6281 2.0613 7.8044 29.4385 2.1607 7.8256 29.6406 2.1033 7.7828 29.4954 2.3106 7.0097 29.3005 1.9276 7.431 29.2816 2.8703 7.4567 30.2625 2.331 7.5314 30.5886 2.1288 7.486 30.2847 2.3582 8.0503 36.3083 -1.0762 8.0643 36.3643 -1.1026 8.0676 36.2848 -1.1239 7.9971 36.3751 -0.987 8.0096 36.4336 -1.0078 7.8096 36.3966 -0.9374 7.6918 36.3913 -1.066 7.9332 36.4184 -0.9316 7.7397 36.2858 -1.2475 7.7789 36.6236 -0.9928 7.6865 36.4966 -1.1014 7.7237 36.4495 -1.3417 7.6711 36.4451 -1.2236 7.7343 36.3992 -1.3067 8.0546 36.5743 -1.0396 8.0851 36.6276 -1.041 8.1133 36.5035 -1.1608 7.9857 36.647 -0.9825 7.9024 36.6641 -0.9407 7.5739 36.6209 -1.2777 7.6096 36.6811 -1.1122 7.5829 36.5939 -1.2613 7.9033 36.7987 -0.9013 7.9013 36.8278 -0.9073 7.7333 36.7648 -0.9642 8.0669 36.8528 -0.9332 7.6747 36.5378 -1.4269 7.6856 36.5124 -1.4066 8.0136 36.4874 -1.5255 7.816 36.4729 -1.4886 7.8125 36.495 -1.513 8.2427 36.587 -1.2862 8.1829 36.543 -1.4085 7.4807 30.3071 1.6065 7.4998 30.1142 2.5008 7.4324 30.0912 2.4619 7.4646 30.1094 2.49 7.7266 29.4684 2.007 7.8215 29.4513 2.1915 7.8328 29.5423 2.1427 7.8333 29.556 2.1691 7.8031 29.6068 2.2152 7.8231 29.4683 2.2195 7.2722 29.837 2.7244 7.2752 29.8086 2.5248 6.9675 29.3548 2.1842 7.0483 29.4308 2.3664 7.3811 29.2241 1.9411 6.9873 29.2628 2.165 7.1205 29.3199 2.3533 7.5987 29.1489 2.1702 7.5755 29.1491 2.1768 7.6267 29.1741 2.3212 7.5125 29.1296 2.0354 7.5358 29.1277 2.0251 7.3683 29.3428 2.2466 7.1004 29.3224 2.1101 7.1824 29.344 2.322 7.4978 29.2403 2.2036 7.4605 29.2751 2.2162 7.4245 29.2097 2.0175 7.5906 35.7226 -1.0054 7.6093 35.709 -1.0293 7.6335 35.6787 -1.093 7.6475 35.6644 -1.1061 7.7033 36.4929 -1.3839 7.8212 36.4585 -1.4504 7.7425 36.7287 -0.9669 7.7748 36.8783 -1.0514 7.7631 36.8742 -1.0304 7.8934 36.9057 -1.003 7.6301 36.8017 -1.1819 7.6359 36.7545 -1.3543 7.6015 36.7291 -1.3463 7.654 36.8136 -1.1979 7.7996 36.6422 -1.567 7.6778 36.665 -1.4844 8.2971 36.8208 -1.2356 8.2881 36.7566 -1.3418 8.0471 36.8001 -1.2299 7.9289 36.7443 -1.3362 7.9877 36.7302 -1.406 7.8834 36.7289 -1.4044 7.9651 36.7457 -1.3406 8.0372 36.7407 -1.3711 7.9041 36.7953 -1.222 7.854 36.7652 -1.2706 7.8345 36.7478 -1.3344 8.1446 36.7375 -1.4298 7.8196 36.858 -1.1199 7.7382 36.8035 -1.2268 7.7257 36.7542 -1.3447 7.8508 36.7333 -1.3705 8.0232 36.5644 -1.561 8.2179 36.6263 -1.4356 7.6833 36.3287 -1.1683 7.9032 36.7735 -0.9038 7.5719 36.6732 -1.3015 7.8073 36.5617 -1.548 7.666 36.6024 -1.4641 7.9735 36.1012 -0.8495 7.8942 36.1576 -0.786 7.7746 36.182 -0.799 7.6841 35.6423 -1.1214 7.997 35.7607 -0.6203 7.8675 35.6897 -0.4638 7.9851 35.6152 -0.5234 7.8772 35.8191 -0.5434 7.5972 35.7498 -0.6286 7.7238 35.6846 -0.4768 7.7305 35.7994 -0.5566 7.5939 35.6319 -0.5562 8.0231 35.7887 -0.8074 7.9783 35.8807 -0.7153 8.0357 35.6803 -0.7454 7.7332 35.957 -0.6638 7.8654 35.9596 -0.6453 7.9735 35.9802 -0.7846 7.8635 36.052 -0.7049 7.7407 36.0579 -0.7181 7.9956 35.6999 -0.9114 7.9923 35.5905 -0.8421 7.992 35.815 -0.9663 7.8881 35.514 -0.9312 7.8907 35.6361 -1.0214 7.8488 35.2576 -0.2215 7.7357 35.2672 -0.2462 8.0291 35.5133 -0.6201 7.2311 29.6564 1.8798 7.4596 30.7397 1.7713 7.5053 30.8018 1.9199 7.4135 30.4664 1.8757 7.4132 30.4053 1.7771 7.3772 30.0876 2.012 7.353 29.8914 2.1107 7.4 30.0289 2.3753 7.3774 29.9644 2.2854 7.2863 29.7095 2.1961 7.2583 29.6834 2.0626 7.3223 29.8891 2.4767 7.3076 29.8114 2.3688 7.1983 29.5915 2.0791 7.0352 29.4572 2.1351 7.5887 29.7408 1.7446 7.668 29.2508 1.9578 7.5368 29.229 1.8156 7.5771 29.2257 1.8375 7.4363 30.3339 1.6567 7.4421 29.9501 1.6969 7.6689 30.8322 1.9932 7.4762 29.4476 2.8703 7.7194 29.8017 2.4185'/>
          </IndexedFaceSet>
        </Shape>
        <Shape DEF='lulna'>
          <Appearance>
            <Material ambientIntensity='0.098' diffuseColor='1 0.9765 0.8667' emissiveColor='0 0 0' shininess='0.05' specularColor='0.349 0.349 0.349'/>
          </Appearance>
          <IndexedFaceSet DEF='lulna_Geo' coordIndex='0 1 2 -1 3 4 5 -1 6 7 8 -1 8 9 6 -1 10 11 12 -1 13 14 11 -1 15 16 17 -1 18 19 20 -1 21 22 23 -1 21 24 22 -1 25 26 27 -1 25 28 26 -1 29 30 31 -1 29 32 30 -1 33 34 35 -1 36 37 38 -1 39 40 41 -1 39 42 40 -1 43 44 45 -1 46 47 48 -1 45 49 43 -1 50 51 52 -1 53 54 55 -1 54 56 57 -1 54 53 56 -1 58 59 60 -1 54 61 55 -1 61 54 62 -1 54 63 62 -1 64 65 66 -1 67 68 69 -1 67 70 68 -1 71 72 73 -1 71 74 72 -1 75 76 77 -1 78 79 80 -1 78 81 79 -1 4 3 82 -1 83 84 85 -1 86 87 88 -1 86 89 87 -1 90 91 92 -1 93 94 95 -1 96 97 98 -1 97 99 98 -1 100 99 101 -1 101 102 100 -1 103 104 105 -1 105 106 103 -1 107 108 109 -1 109 110 107 -1 111 112 113 -1 114 115 116 -1 116 117 114 -1 118 119 120 -1 118 121 119 -1 122 116 115 -1 25 123 124 -1 124 125 25 -1 126 127 128 -1 129 130 131 -1 34 132 133 -1 34 33 132 -1 134 135 66 -1 136 137 138 -1 139 140 141 -1 141 142 139 -1 143 144 145 -1 143 146 144 -1 147 148 62 -1 147 146 148 -1 41 149 150 -1 41 151 149 -1 35 152 153 -1 153 33 35 -1 33 154 132 -1 33 155 154 -1 156 157 77 -1 158 159 160 -1 160 76 158 -1 161 162 163 -1 164 165 166 -1 167 168 169 -1 143 148 146 -1 59 58 170 -1 170 58 171 -1 171 74 170 -1 172 173 174 -1 172 175 173 -1 176 80 177 -1 81 178 179 -1 81 78 178 -1 180 181 182 -1 182 178 180 -1 183 184 185 -1 186 187 188 -1 157 156 189 -1 131 190 191 -1 131 192 190 -1 193 194 195 -1 195 196 193 -1 197 125 124 -1 197 198 125 -1 199 200 201 -1 199 202 200 -1 203 204 205 -1 206 207 208 -1 209 210 211 -1 209 212 210 -1 213 214 215 -1 216 217 218 -1 219 220 221 -1 220 222 221 -1 223 224 225 -1 223 64 224 -1 36 38 226 -1 227 41 150 -1 227 39 41 -1 228 229 82 -1 230 37 36 -1 230 5 37 -1 231 232 233 -1 234 235 236 -1 237 238 239 -1 240 241 235 -1 242 67 243 -1 244 245 246 -1 244 247 245 -1 248 249 143 -1 249 250 143 -1 251 207 252 -1 207 253 252 -1 254 255 154 -1 254 256 255 -1 75 177 76 -1 46 257 258 -1 202 259 260 -1 202 199 259 -1 140 216 261 -1 216 262 261 -1 263 264 265 -1 263 266 264 -1 244 267 268 -1 244 246 267 -1 9 269 270 -1 9 8 269 -1 69 68 271 -1 224 272 32 -1 272 30 32 -1 273 274 275 -1 273 276 274 -1 277 278 279 -1 279 280 277 -1 281 282 283 -1 282 284 283 -1 250 285 286 -1 250 249 285 -1 191 129 131 -1 191 287 129 -1 288 289 290 -1 289 291 290 -1 292 293 294 -1 293 295 294 -1 296 297 298 -1 296 299 297 -1 300 301 302 -1 300 14 301 -1 303 56 128 -1 56 53 128 -1 213 304 305 -1 213 306 304 -1 307 308 309 -1 308 310 309 -1 311 312 313 -1 314 315 316 -1 314 317 315 -1 318 319 320 -1 318 321 319 -1 322 20 323 -1 322 15 20 -1 324 325 326 -1 325 91 326 -1 325 92 91 -1 95 94 327 -1 328 329 330 -1 328 331 329 -1 332 18 333 -1 18 17 333 -1 334 335 336 -1 335 337 336 -1 2 338 0 -1 339 340 341 -1 342 343 109 -1 344 273 345 -1 346 347 348 -1 349 350 351 -1 349 352 350 -1 353 354 355 -1 355 356 353 -1 160 357 358 -1 160 159 357 -1 359 360 361 -1 360 299 361 -1 204 203 294 -1 203 362 294 -1 202 260 363 -1 363 205 202 -1 52 175 261 -1 175 172 261 -1 302 209 364 -1 209 365 364 -1 228 42 366 -1 228 40 42 -1 127 126 367 -1 368 276 369 -1 370 180 186 -1 370 371 180 -1 293 292 372 -1 372 373 293 -1 374 375 344 -1 344 345 374 -1 376 110 86 -1 376 107 110 -1 377 378 379 -1 380 381 382 -1 380 383 381 -1 384 385 386 -1 384 387 385 -1 388 84 389 -1 265 390 263 -1 320 23 318 -1 320 21 23 -1 391 392 393 -1 392 394 393 -1 22 24 395 -1 24 396 395 -1 351 397 349 -1 351 398 397 -1 399 400 401 -1 399 402 400 -1 403 402 399 -1 403 404 402 -1 405 406 407 -1 405 408 406 -1 310 409 309 -1 310 410 409 -1 411 404 403 -1 411 16 404 -1 411 412 413 -1 414 415 416 -1 415 417 416 -1 418 419 420 -1 418 421 419 -1 336 337 422 -1 423 424 425 -1 334 426 427 -1 334 336 426 -1 426 428 429 -1 429 427 426 -1 430 431 432 -1 430 433 431 -1 434 435 436 -1 435 437 436 -1 386 385 438 -1 112 439 440 -1 112 114 439 -1 340 441 442 -1 441 443 442 -1 444 445 446 -1 447 97 96 -1 447 448 97 -1 350 299 360 -1 350 297 299 -1 24 449 396 -1 24 450 449 -1 450 451 449 -1 450 452 451 -1 241 453 235 -1 241 454 453 -1 70 455 456 -1 243 255 256 -1 243 67 255 -1 254 457 198 -1 252 458 362 -1 252 253 458 -1 459 460 354 -1 459 461 460 -1 462 134 463 -1 464 79 51 -1 465 466 157 -1 157 189 465 -1 467 468 469 -1 467 306 468 -1 214 470 215 -1 214 471 470 -1 61 62 148 -1 47 472 473 -1 473 183 47 -1 221 474 475 -1 221 222 474 -1 258 257 476 -1 477 219 478 -1 477 479 219 -1 201 200 357 -1 200 295 357 -1 78 80 176 -1 176 480 78 -1 481 482 483 -1 482 484 483 -1 482 485 484 -1 482 195 485 -1 482 486 196 -1 196 195 482 -1 487 488 278 -1 489 126 55 -1 490 460 461 -1 364 469 491 -1 492 493 208 -1 208 494 492 -1 493 13 495 -1 493 492 13 -1 168 496 169 -1 168 355 496 -1 150 149 460 -1 149 496 460 -1 151 5 497 -1 151 3 5 -1 238 498 239 -1 238 499 498 -1 452 123 451 -1 452 454 123 -1 86 110 89 -1 500 501 502 -1 500 503 501 -1 504 505 503 -1 329 331 506 -1 506 507 329 -1 508 439 379 -1 379 378 508 -1 509 510 511 -1 511 440 509 -1 512 513 514 -1 514 515 512 -1 389 84 83 -1 93 0 338 -1 516 517 518 -1 519 520 521 -1 520 522 521 -1 415 523 417 -1 415 332 523 -1 420 425 524 -1 425 424 524 -1 418 420 525 -1 420 524 525 -1 526 419 421 -1 527 528 337 -1 527 529 528 -1 413 16 411 -1 413 17 16 -1 309 418 525 -1 309 409 418 -1 529 406 317 -1 529 527 406 -1 408 317 406 -1 408 315 317 -1 308 307 399 -1 307 403 399 -1 530 321 531 -1 530 319 321 -1 532 533 534 -1 533 535 534 -1 223 68 536 -1 537 538 539 -1 538 280 539 -1 540 541 542 -1 541 330 542 -1 108 543 342 -1 342 109 108 -1 543 117 116 -1 427 544 521 -1 427 429 544 -1 88 545 104 -1 88 87 545 -1 379 117 546 -1 546 547 379 -1 106 100 102 -1 102 103 106 -1 548 549 381 -1 381 383 548 -1 379 550 377 -1 379 547 550 -1 549 551 552 -1 549 548 551 -1 71 170 74 -1 71 145 170 -1 294 295 204 -1 295 200 204 -1 130 553 192 -1 554 372 555 -1 372 292 555 -1 368 274 276 -1 368 556 274 -1 57 479 477 -1 477 63 57 -1 490 470 557 -1 490 461 470 -1 558 158 464 -1 464 51 558 -1 158 76 177 -1 177 464 158 -1 357 159 201 -1 159 559 201 -1 560 561 293 -1 560 156 561 -1 215 306 213 -1 562 350 360 -1 563 564 565 -1 566 389 567 -1 566 388 389 -1 507 568 329 -1 118 120 90 -1 91 569 570 -1 91 120 569 -1 334 521 522 -1 334 427 521 -1 115 571 572 -1 115 111 571 -1 341 567 339 -1 341 566 567 -1 95 0 93 -1 573 512 574 -1 512 515 574 -1 91 570 326 -1 343 575 109 -1 343 327 575 -1 576 378 387 -1 576 508 378 -1 510 509 577 -1 577 578 510 -1 378 385 387 -1 317 314 416 -1 416 529 317 -1 579 320 319 -1 579 236 320 -1 237 239 580 -1 239 232 580 -1 581 408 405 -1 581 531 408 -1 582 583 312 -1 467 365 584 -1 532 534 585 -1 585 586 532 -1 212 302 301 -1 212 209 302 -1 14 587 11 -1 14 300 587 -1 297 401 298 -1 588 589 292 -1 292 294 588 -1 590 591 592 -1 590 593 591 -1 290 594 288 -1 290 595 594 -1 69 132 255 -1 132 154 255 -1 55 61 286 -1 61 250 286 -1 596 73 72 -1 205 363 211 -1 265 285 249 -1 597 279 598 -1 279 29 31 -1 31 598 279 -1 599 7 600 -1 7 6 600 -1 273 344 565 -1 344 601 565 -1 602 499 238 -1 602 603 499 -1 604 282 263 -1 282 266 263 -1 305 214 213 -1 305 218 214 -1 605 48 606 -1 160 358 77 -1 607 608 609 -1 608 610 609 -1 253 152 458 -1 253 611 152 -1 248 265 249 -1 248 390 265 -1 612 246 245 -1 563 613 614 -1 607 267 242 -1 267 615 242 -1 499 616 498 -1 617 618 234 -1 235 234 618 -1 618 240 235 -1 239 498 579 -1 369 276 564 -1 276 565 564 -1 619 229 620 -1 227 535 39 -1 535 533 39 -1 621 368 369 -1 55 6 489 -1 31 30 600 -1 600 286 31 -1 66 135 64 -1 220 219 622 -1 471 218 217 -1 471 214 218 -1 495 11 10 -1 495 13 11 -1 224 623 225 -1 224 32 623 -1 218 262 216 -1 218 624 262 -1 625 559 558 -1 182 179 178 -1 464 80 79 -1 464 177 80 -1 179 182 173 -1 173 175 179 -1 139 142 626 -1 626 627 139 -1 628 596 72 -1 72 629 628 -1 605 630 48 -1 630 631 48 -1 475 474 162 -1 162 632 475 -1 312 633 313 -1 312 634 633 -1 481 554 287 -1 255 67 69 -1 45 635 626 -1 626 142 45 -1 136 138 141 -1 138 142 141 -1 48 631 161 -1 160 77 76 -1 357 561 358 -1 192 636 637 -1 152 611 153 -1 638 291 639 -1 291 289 639 -1 277 280 538 -1 164 137 165 -1 621 238 237 -1 621 602 238 -1 36 580 230 -1 36 226 580 -1 640 219 641 -1 640 622 219 -1 144 60 59 -1 191 190 486 -1 625 558 642 -1 161 163 48 -1 131 130 192 -1 128 643 303 -1 644 641 219 -1 115 572 122 -1 106 105 645 -1 646 96 647 -1 96 98 647 -1 543 122 324 -1 543 116 122 -1 120 91 90 -1 424 423 634 -1 2 1 389 -1 340 442 341 -1 37 4 82 -1 368 38 648 -1 156 77 358 -1 358 561 156 -1 81 51 79 -1 52 51 81 -1 74 629 72 -1 74 171 629 -1 70 536 68 -1 147 478 60 -1 147 477 478 -1 171 649 650 -1 650 629 171 -1 219 479 651 -1 54 57 63 -1 644 219 651 -1 46 652 472 -1 472 47 46 -1 49 45 137 -1 45 138 137 -1 138 45 142 -1 46 653 652 -1 258 653 46 -1 40 3 41 -1 3 151 41 -1 640 654 622 -1 225 591 271 -1 588 362 594 -1 362 458 594 -1 362 588 294 -1 595 130 129 -1 595 290 130 -1 129 555 589 -1 589 595 129 -1 589 555 292 -1 17 20 15 -1 17 18 20 -1 451 25 27 -1 451 123 25 -1 415 18 332 -1 452 453 454 -1 252 362 203 -1 492 14 13 -1 492 301 14 -1 251 212 494 -1 251 210 212 -1 10 655 495 -1 10 28 655 -1 656 489 9 -1 489 6 9 -1 656 657 367 -1 657 658 367 -1 565 276 273 -1 5 4 37 -1 389 83 2 -1 148 250 61 -1 148 143 250 -1 659 242 615 -1 659 455 242 -1 660 456 661 -1 660 662 456 -1 269 663 275 -1 269 664 663 -1 274 657 270 -1 556 657 274 -1 665 666 620 -1 665 658 666 -1 367 665 127 -1 367 658 665 -1 667 668 669 -1 668 667 670 -1 210 252 203 -1 210 251 252 -1 492 212 301 -1 492 494 212 -1 449 27 671 -1 449 451 27 -1 322 402 404 -1 672 402 322 -1 673 674 400 -1 675 674 673 -1 676 452 450 -1 676 453 452 -1 677 678 679 -1 677 680 678 -1 415 19 18 -1 415 414 19 -1 68 225 271 -1 225 68 223 -1 638 553 291 -1 638 681 553 -1 487 590 592 -1 487 682 590 -1 29 623 32 -1 488 623 29 -1 130 291 553 -1 290 291 130 -1 152 289 288 -1 35 289 152 -1 34 593 639 -1 34 133 593 -1 152 594 458 -1 288 594 152 -1 683 654 640 -1 683 586 654 -1 532 684 533 -1 684 532 685 -1 686 43 687 -1 686 44 43 -1 653 476 688 -1 653 258 476 -1 472 689 690 -1 689 472 652 -1 49 164 691 -1 49 137 164 -1 651 57 56 -1 651 479 57 -1 650 628 629 -1 650 630 628 -1 477 62 63 -1 62 477 147 -1 621 38 368 -1 38 621 226 -1 619 38 37 -1 648 38 619 -1 388 573 574 -1 566 573 388 -1 692 339 567 -1 339 692 569 -1 1 567 389 -1 567 1 692 -1 97 101 99 -1 97 448 101 -1 693 446 694 -1 447 446 693 -1 445 695 696 -1 445 444 695 -1 697 646 647 -1 698 646 697 -1 699 98 700 -1 699 647 98 -1 694 701 693 -1 694 552 701 -1 696 381 549 -1 381 696 695 -1 88 551 86 -1 88 702 551 -1 548 703 376 -1 548 383 703 -1 704 705 706 -1 380 705 704 -1 706 707 708 -1 705 707 706 -1 709 710 711 -1 710 709 545 -1 712 713 714 -1 712 715 713 -1 547 716 550 -1 717 716 547 -1 575 110 109 -1 110 575 89 -1 502 718 719 -1 502 501 718 -1 503 720 721 -1 503 505 720 -1 722 723 724 -1 504 723 722 -1 641 303 725 -1 644 303 641 -1 50 558 51 -1 558 50 642 -1 625 624 726 -1 625 642 624 -1 640 725 683 -1 641 725 640 -1 226 237 580 -1 226 621 237 -1 727 728 729 -1 727 730 728 -1 201 625 199 -1 201 559 625 -1 682 636 681 -1 636 682 277 -1 75 157 731 -1 75 77 157 -1 689 687 691 -1 687 689 688 -1 172 136 141 -1 172 174 136 -1 732 45 44 -1 45 732 635 -1 628 733 596 -1 734 733 628 -1 338 727 729 -1 338 633 727 -1 735 162 474 -1 162 735 163 -1 475 650 649 -1 650 475 632 -1 605 736 734 -1 605 606 736 -1 473 184 183 -1 371 184 473 -1 283 737 281 -1 737 283 738 -1 262 642 50 -1 624 642 262 -1 558 159 158 -1 559 159 558 -1 488 279 278 -1 279 488 29 -1 177 731 176 -1 177 75 731 -1 537 189 739 -1 537 740 189 -1 483 373 372 -1 483 484 373 -1 373 485 741 -1 484 485 373 -1 493 655 742 -1 495 655 493 -1 198 256 254 -1 256 198 197 -1 622 743 220 -1 622 744 743 -1 685 745 684 -1 745 685 746 -1 127 643 128 -1 127 747 643 -1 456 463 65 -1 456 662 463 -1 748 374 345 -1 374 748 462 -1 668 749 664 -1 749 668 670 -1 134 750 135 -1 134 751 750 -1 656 270 657 -1 9 270 656 -1 564 621 369 -1 602 621 564 -1 665 747 127 -1 665 752 747 -1 616 234 498 -1 234 616 617 -1 609 267 607 -1 609 268 267 -1 564 603 602 -1 603 564 563 -1 245 613 612 -1 245 614 613 -1 603 616 499 -1 616 603 753 -1 71 143 145 -1 71 248 143 -1 284 734 736 -1 734 284 733 -1 754 755 188 -1 755 754 466 -1 264 597 265 -1 264 539 597 -1 608 242 243 -1 242 608 607 -1 612 601 756 -1 612 613 601 -1 600 272 599 -1 600 30 272 -1 739 156 560 -1 739 189 156 -1 265 598 285 -1 597 598 265 -1 604 390 73 -1 263 390 604 -1 259 305 304 -1 305 259 726 -1 370 184 371 -1 370 738 184 -1 370 188 755 -1 370 186 188 -1 757 163 735 -1 163 757 257 -1 594 589 588 -1 594 595 589 -1 587 12 11 -1 587 361 12 -1 272 750 599 -1 750 272 135 -1 725 643 746 -1 643 725 303 -1 758 535 557 -1 758 534 535 -1 308 349 310 -1 308 352 349 -1 517 582 759 -1 517 516 582 -1 760 761 412 -1 761 760 583 -1 407 762 405 -1 762 407 763 -1 764 765 766 -1 765 764 767 -1 768 497 5 -1 497 768 769 -1 232 579 233 -1 232 239 579 -1 528 416 417 -1 528 529 416 -1 770 673 672 -1 673 770 395 -1 675 771 674 -1 771 675 671 -1 25 655 28 -1 125 655 25 -1 742 457 206 -1 742 198 457 -1 772 412 411 -1 772 760 412 -1 773 429 428 -1 773 384 429 -1 432 774 775 -1 774 432 431 -1 776 777 435 -1 776 778 777 -1 437 517 779 -1 437 780 517 -1 781 311 83 -1 781 759 311 -1 2 633 338 -1 2 313 633 -1 509 576 577 -1 509 508 576 -1 540 578 782 -1 540 510 578 -1 436 541 434 -1 783 541 436 -1 784 514 785 -1 515 514 784 -1 85 515 784 -1 85 574 515 -1 343 95 327 -1 343 570 95 -1 441 719 786 -1 441 119 719 -1 787 722 571 -1 787 720 722 -1 119 340 120 -1 119 441 340 -1 571 724 572 -1 724 571 722 -1 326 543 324 -1 543 326 342 -1 0 692 1 -1 692 0 95 -1 542 113 511 -1 113 542 568 -1 512 788 513 -1 512 443 788 -1 573 443 512 -1 573 442 443 -1 572 324 122 -1 325 324 572 -1 777 789 780 -1 777 790 789 -1 516 583 582 -1 583 516 761 -1 526 334 522 -1 335 334 526 -1 113 571 111 -1 787 571 113 -1 530 766 233 -1 530 764 766 -1 791 398 767 -1 398 791 397 -1 346 360 359 -1 346 562 360 -1 215 468 306 -1 468 215 459 -1 346 168 167 -1 346 348 168 -1 293 741 560 -1 741 293 373 -1 792 793 794 -1 792 347 793 -1 166 182 181 -1 173 182 166 -1 470 459 215 -1 461 459 470 -1 229 37 82 -1 229 619 37 -1 128 55 126 -1 128 53 55 -1 467 304 306 -1 467 584 304 -1 287 555 129 -1 287 554 555 -1 637 194 193 -1 194 637 739 -1 553 636 192 -1 553 681 636 -1 73 248 71 -1 390 248 73 -1 750 7 599 -1 750 669 7 -1 649 221 475 -1 649 795 221 -1 8 664 269 -1 668 664 8 -1 65 134 66 -1 65 463 134 -1 717 706 716 -1 717 704 706 -1 106 700 100 -1 106 707 700 -1 103 701 702 -1 103 102 701 -1 796 704 717 -1 704 796 703 -1 394 797 94 -1 797 394 710 -1 385 377 798 -1 385 378 377 -1 708 715 712 -1 708 645 715 -1 376 796 107 -1 376 703 796 -1 575 94 797 -1 575 327 94 -1 392 710 394 -1 392 711 710 -1 645 709 715 -1 645 105 709 -1 787 568 507 -1 113 568 787 -1 93 729 393 -1 729 93 338 -1 747 746 643 -1 746 747 745 -1 799 391 438 -1 391 799 392 -1 350 401 297 -1 401 350 352 -1 531 315 408 -1 531 321 315 -1 349 410 310 -1 349 397 410 -1 314 680 677 -1 314 316 680 -1 677 416 314 -1 414 416 677 -1 527 407 406 -1 407 527 800 -1 409 421 418 -1 409 763 421 -1 800 337 335 -1 800 527 337 -1 801 412 761 -1 413 412 801 -1 333 413 801 -1 333 17 413 -1 802 417 523 -1 528 417 802 -1 420 520 425 -1 420 419 520 -1 803 332 790 -1 332 803 523 -1 422 433 430 -1 422 802 433 -1 730 423 519 -1 423 730 727 -1 778 790 777 -1 803 790 778 -1 801 789 333 -1 801 518 789 -1 423 633 634 -1 423 727 633 -1 781 785 779 -1 781 784 785 -1 774 782 578 -1 774 776 782 -1 773 577 576 -1 773 775 577 -1 391 729 728 -1 729 391 393 -1 83 784 781 -1 83 85 784 -1 514 328 783 -1 514 513 328 -1 542 510 540 -1 542 511 510 -1 440 508 509 -1 439 508 440 -1 786 331 788 -1 786 506 331 -1 543 546 117 -1 546 543 108 -1 714 799 798 -1 714 713 799 -1 646 447 96 -1 698 447 646 -1 444 447 698 -1 446 447 444 -1 804 765 805 -1 765 804 769 -1 562 167 806 -1 562 346 167 -1 233 768 231 -1 233 766 768 -1 167 807 804 -1 169 807 167 -1 10 26 28 -1 12 26 10 -1 231 5 230 -1 231 768 5 -1 82 40 228 -1 82 3 40 -1 169 149 807 -1 149 169 496 -1 355 460 496 -1 355 354 460 -1 491 794 364 -1 491 792 794 -1 610 241 609 -1 454 241 610 -1 247 616 753 -1 247 617 616 -1 33 611 155 -1 611 33 153 -1 300 364 794 -1 302 364 300 -1 227 557 535 -1 227 490 557 -1 366 684 745 -1 366 42 684 -1 656 126 489 -1 367 126 656 -1 463 660 462 -1 463 662 660 -1 462 751 134 -1 462 667 751 -1 462 670 667 -1 462 749 670 -1 462 808 749 -1 462 748 808 -1 277 487 278 -1 277 682 487 -1 266 740 264 -1 809 740 266 -1 755 738 370 -1 737 738 755 -1 604 596 733 -1 596 604 73 -1 165 173 166 -1 165 174 173 -1 81 175 52 -1 175 81 179 -1 141 261 172 -1 261 141 140 -1 810 471 217 -1 758 471 810 -1 627 585 810 -1 585 627 811 -1 654 744 622 -1 744 654 811 -1 743 222 220 -1 743 812 222 -1 757 44 686 -1 757 732 44 -1 630 632 631 -1 632 630 650 -1 476 757 686 -1 476 257 757 -1 257 48 163 -1 48 257 46 -1 757 812 732 -1 757 735 812 -1 606 47 183 -1 606 48 47 -1 162 631 632 -1 162 161 631 -1 732 743 635 -1 812 743 732 -1 586 811 654 -1 811 586 585 -1 534 810 585 -1 810 534 758 -1 627 744 811 -1 627 626 744 -1 627 217 139 -1 627 810 217 -1 726 218 305 -1 726 624 218 -1 211 365 209 -1 211 363 365 -1 164 181 690 -1 164 166 181 -1 473 690 181 -1 690 473 472 -1 282 733 284 -1 604 733 282 -1 178 186 180 -1 178 187 186 -1 187 78 480 -1 187 178 78 -1 285 31 286 -1 285 598 31 -1 752 745 747 -1 752 366 745 -1 491 468 353 -1 469 468 491 -1 610 197 124 -1 610 608 197 -1 615 375 659 -1 615 756 375 -1 753 245 247 -1 753 614 245 -1 240 244 268 -1 618 244 240 -1 587 794 793 -1 587 300 794 -1 356 347 792 -1 348 347 356 -1 361 793 359 -1 361 587 793 -1 769 807 497 -1 769 804 807 -1 235 676 236 -1 235 453 676 -1 771 12 296 -1 26 12 771 -1 167 805 806 -1 805 167 804 -1 676 320 236 -1 320 676 21 -1 296 674 771 -1 298 674 296 -1 398 806 805 -1 398 351 806 -1 702 552 551 -1 702 701 552 -1 502 118 500 -1 502 121 118 -1 500 504 503 -1 500 723 504 -1 441 788 443 -1 788 441 786 -1 328 541 783 -1 328 330 541 -1 438 728 386 -1 728 438 391 -1 384 576 387 -1 384 773 576 -1 578 775 774 -1 577 775 578 -1 434 776 435 -1 782 776 434 -1 436 779 785 -1 779 436 437 -1 518 780 789 -1 518 517 780 -1 433 778 431 -1 433 803 778 -1 426 432 428 -1 426 430 432 -1 519 544 730 -1 519 521 544 -1 336 430 426 -1 336 422 430 -1 802 803 433 -1 802 523 803 -1 424 312 583 -1 424 634 312 -1 519 425 520 -1 425 519 423 -1 419 522 520 -1 419 526 522 -1 337 802 422 -1 337 528 802 -1 763 800 421 -1 763 407 800 -1 323 19 679 -1 20 19 323 -1 411 307 772 -1 403 307 411 -1 763 410 762 -1 763 409 410 -1 679 770 323 -1 679 678 770 -1 791 405 762 -1 791 581 405 -1 316 23 680 -1 318 23 316 -1 399 352 308 -1 401 352 399 -1 400 298 401 -1 400 674 298 -1 550 798 377 -1 714 798 550 -1 678 395 770 -1 22 395 678 -1 319 233 579 -1 530 233 319 -1 379 114 117 -1 379 439 114 -1 545 105 104 -1 105 545 709 -1 713 392 799 -1 392 713 711 -1 706 712 716 -1 708 712 706 -1 438 798 799 -1 385 798 438 -1 393 94 93 -1 94 393 394 -1 700 705 699 -1 700 707 705 -1 380 699 705 -1 380 382 699 -1 374 659 375 -1 661 659 374 -1 275 345 273 -1 663 345 275 -1 737 466 465 -1 466 737 755 -1 281 266 282 -1 809 266 281 -1 194 560 741 -1 194 739 560 -1 176 754 480 -1 731 754 176 -1 353 792 491 -1 353 356 792 -1 55 600 6 -1 55 286 600 -1 293 357 295 -1 293 561 357 -1 620 648 619 -1 620 666 648 -1 460 227 150 -1 490 227 460 -1 216 139 217 -1 139 216 140 -1 199 726 259 -1 199 625 726 -1 611 207 206 -1 611 253 207 -1 155 206 457 -1 155 611 206 -1 347 359 793 -1 347 346 359 -1 355 348 356 -1 348 355 168 -1 353 459 354 -1 353 468 459 -1 767 805 765 -1 805 767 398 -1 350 806 351 -1 562 806 350 -1 531 764 530 -1 531 581 764 -1 565 613 563 -1 565 601 613 -1 236 498 234 -1 498 236 579 -1 335 421 800 -1 335 526 421 -1 759 312 311 -1 312 759 582 -1 333 790 332 -1 790 333 789 -1 112 511 113 -1 440 511 112 -1 788 328 513 -1 788 331 328 -1 329 542 330 -1 568 542 329 -1 95 569 692 -1 95 570 569 -1 343 326 570 -1 326 343 342 -1 723 92 724 -1 92 723 500 -1 507 720 787 -1 720 507 721 -1 718 507 506 -1 507 718 721 -1 719 506 786 -1 719 718 506 -1 340 569 120 -1 339 569 340 -1 783 785 514 -1 783 436 785 -1 541 782 434 -1 782 541 540 -1 83 313 2 -1 83 311 313 -1 759 779 517 -1 781 779 759 -1 780 435 777 -1 437 435 780 -1 776 431 778 -1 776 774 431 -1 428 775 773 -1 775 428 432 -1 544 384 386 -1 384 544 429 -1 583 524 424 -1 760 524 583 -1 742 125 198 -1 742 655 125 -1 26 671 27 -1 671 26 771 -1 395 675 673 -1 675 395 396 -1 672 323 770 -1 672 322 323 -1 321 316 315 -1 316 321 318 -1 229 366 752 -1 366 229 228 -1 769 766 765 -1 768 766 769 -1 581 767 764 -1 767 581 791 -1 518 761 516 -1 518 801 761 -1 397 762 410 -1 791 762 397 -1 772 309 525 -1 772 307 309 -1 525 760 772 -1 525 524 760 -1 758 470 471 -1 758 557 470 -1 64 536 65 -1 223 536 64 -1 296 361 299 -1 12 361 296 -1 480 188 187 -1 188 480 754 -1 283 736 185 -1 283 284 736 -1 365 260 584 -1 260 365 363 -1 193 192 637 -1 193 190 192 -1 623 591 225 -1 623 592 591 -1 455 67 242 -1 455 70 67 -1 344 756 601 -1 344 375 756 -1 267 756 615 -1 267 612 756 -1 246 612 267 -1 539 279 597 -1 279 539 280 -1 740 539 264 -1 740 537 539 -1 261 50 52 -1 261 262 50 -1 304 260 259 -1 260 304 584 -1 271 132 69 -1 271 133 132 -1 618 247 244 -1 618 617 247 -1 603 614 753 -1 603 563 614 -1 241 268 609 -1 241 240 268 -1 232 230 580 -1 232 231 230 -1 497 149 151 -1 497 807 149 -1 368 666 556 -1 368 648 666 -1 751 669 750 -1 667 669 751 -1 663 748 345 -1 748 663 808 -1 462 661 374 -1 661 462 660 -1 70 65 536 -1 70 456 65 -1 683 746 685 -1 746 683 725 -1 644 56 303 -1 644 651 56 -1 221 478 219 -1 478 221 795 -1 467 364 365 -1 469 364 467 -1 494 207 251 -1 494 208 207 -1 203 211 210 -1 211 203 205 -1 200 205 204 -1 205 200 202 -1 493 206 208 -1 493 742 206 -1 197 243 256 -1 197 608 243 -1 454 124 123 -1 124 454 610 -1 741 195 194 -1 485 195 741 -1 196 190 193 -1 486 190 196 -1 481 372 554 -1 481 483 372 -1 191 481 287 -1 486 481 191 -1 482 481 486 -1 739 538 537 -1 637 538 739 -1 466 731 157 -1 731 466 754 -1 740 465 189 -1 740 809 465 -1 465 281 737 -1 465 809 281 -1 738 185 184 -1 738 283 185 -1 185 606 183 -1 185 736 606 -1 181 371 473 -1 180 371 181 -1 812 474 222 -1 812 735 474 -1 145 59 170 -1 145 144 59 -1 635 744 626 -1 744 635 743 -1 49 687 43 -1 49 691 687 -1 652 688 689 -1 688 652 653 -1 457 154 155 -1 457 254 154 -1 386 730 544 -1 730 386 728 -1 144 147 60 -1 146 147 144 -1 137 174 165 -1 136 174 137 -1 637 277 538 -1 637 636 277 -1 638 593 590 -1 638 639 593 -1 724 325 572 -1 724 92 325 -1 720 504 722 -1 505 504 720 -1 501 721 718 -1 501 503 721 -1 119 502 719 -1 121 502 119 -1 500 90 92 -1 500 118 90 -1 112 115 114 -1 111 115 112 -1 546 717 547 -1 546 796 717 -1 108 796 546 -1 107 796 108 -1 716 714 550 -1 716 712 714 -1 715 711 713 -1 711 715 709 -1 710 87 797 -1 710 545 87 -1 707 645 708 -1 707 106 645 -1 703 380 704 -1 383 380 703 -1 86 548 376 -1 551 548 86 -1 104 702 88 -1 103 702 104 -1 381 697 382 -1 381 695 697 -1 696 552 694 -1 549 552 696 -1 102 693 701 -1 102 101 693 -1 98 100 700 -1 100 98 99 -1 382 647 699 -1 697 647 382 -1 695 698 697 -1 444 698 695 -1 694 445 696 -1 446 445 694 -1 448 693 101 -1 448 447 693 -1 797 89 575 -1 89 797 87 -1 566 442 573 -1 341 442 566 -1 84 574 85 -1 388 574 84 -1 64 272 224 -1 272 64 135 -1 58 478 795 -1 478 58 60 -1 171 795 649 -1 58 795 171 -1 734 630 605 -1 628 630 734 -1 690 691 164 -1 691 690 689 -1 688 686 687 -1 688 476 686 -1 42 533 684 -1 533 42 39 -1 586 685 532 -1 685 586 683 -1 133 591 593 -1 271 591 133 -1 289 34 639 -1 289 35 34 -1 488 592 623 -1 488 487 592 -1 590 681 638 -1 590 682 681 -1 679 414 677 -1 19 414 679 -1 680 22 678 -1 680 23 22 -1 450 21 676 -1 24 21 450 -1 672 400 402 -1 673 400 672 -1 404 15 322 -1 404 16 15 -1 396 671 675 -1 396 449 671 -1 7 668 8 -1 7 669 668 -1 752 620 229 -1 752 665 620 -1 658 556 666 -1 658 657 556 -1 270 275 274 -1 270 269 275 -1 664 808 663 -1 664 749 808 -1 661 455 659 -1 661 456 455 -1' creaseAngle='1.571'>
            <Coordinate DEF='lulna_Coord' point='7.2689 28.8009 1.5876 7.2022 28.8201 1.6241 7.1769 28.8806 1.5804 7.4591 35.748 -1.5628 7.499 35.6973 -1.4419 7.5217 35.3975 -1.2927 7.6129 36.6336 -1.4373 7.6136 36.6204 -1.3973 7.6394 36.5458 -1.4025 7.6353 36.5419 -1.4547 6.9537 35.504 -1.0052 6.9369 35.4897 -1.0341 7.0303 34.9728 -0.8793 6.8598 35.9052 -1.0801 6.8502 35.8955 -1.1094 7.1198 30.2329 1.2045 7.0978 30.2226 1.1776 7.1326 29.7882 1.4472 7.1864 29.8195 1.5108 7.2083 30.2659 1.2862 7.1789 30.253 1.253 7.47 34.0389 -0.288 7.4021 32.9008 0.1875 7.4235 32.9049 0.198 7.4471 34.0369 -0.2939 7.1088 35.5905 -0.9022 7.0865 34.9945 -0.8229 7.1574 35.0039 -0.7995 7.0121 35.5426 -0.9509 7.347 36.8045 -1.1236 7.449 36.7591 -1.2489 7.4354 36.7641 -1.2624 7.369 36.7903 -1.1079 6.9278 36.9427 -0.8929 6.9177 37.0738 -0.8769 6.8799 36.9974 -0.8871 7.5397 35.8679 -1.3403 7.5239 35.8731 -1.3895 7.5678 36.1238 -1.383 7.3862 36.2196 -1.8578 7.4285 36.023 -1.7358 7.4071 36.0048 -1.7649 7.4119 36.2345 -1.8315 7.1121 37.3667 -2.0191 7.1253 37.3617 -2.0195 7.1063 37.1954 -2.1374 7.3587 37.5927 -1.6459 7.3567 37.5927 -1.632 7.4697 37.5395 -1.6262 7.0627 37.3925 -2.0237 6.8587 36.9159 -1.8262 6.8521 36.9197 -1.8139 6.8527 37.1352 -1.9215 7.5308 36.7764 -1.6508 7.5331 36.7895 -1.6259 7.5643 36.6755 -1.4984 7.5664 36.8742 -1.7987 7.5749 36.8784 -1.7927 7.7324 37.2811 -1.7676 7.7234 37.206 -1.8041 7.723 37.157 -1.8646 7.5338 36.8021 -1.5989 7.6063 36.8968 -1.7695 7.59 36.8873 -1.7803 7.3799 36.6721 -1.1285 7.4031 36.601 -1.1308 7.4141 36.6336 -1.1702 7.35 36.6296 -0.9556 7.2265 36.8464 -0.9313 7.1624 36.8753 -0.9065 7.3628 36.6546 -0.9704 7.6032 37.1291 -1.6639 7.617 37.2813 -1.6237 7.5273 37.1573 -1.6233 7.6763 37.2642 -1.6804 6.9897 36.9821 -1.6635 6.9594 36.9167 -1.6999 7.0503 36.9509 -1.5952 6.8587 37.2233 -1.8202 6.8697 36.9969 -1.7652 6.8976 37.0261 -1.739 6.8397 37.2095 -1.8622 7.476 35.806 -1.4891 7.1098 28.9291 1.6288 7.1315 28.8522 1.6564 7.1192 28.8574 1.6633 7.3884 28.6098 1.7248 7.389 28.6388 1.6604 7.4152 28.6138 1.674 7.3644 28.6485 1.7117 7.3047 28.8342 1.7618 7.3072 28.7948 1.7223 7.3539 28.8461 1.8073 7.2947 28.7845 1.5725 7.3363 28.7194 1.6109 7.2884 28.7731 1.6296 7.4765 28.6069 1.7367 7.4727 28.5988 1.7251 7.4972 28.6136 1.7379 7.4882 28.6039 1.7138 7.4986 28.6084 1.7043 7.4708 28.5958 1.7045 7.4709 28.5979 1.6912 7.4704 28.6023 1.6805 7.4685 28.6124 1.6642 7.5271 28.6322 1.671 7.5218 28.6222 1.6896 7.3843 28.6736 1.804 7.3808 28.694 1.8046 7.343 28.6729 1.7328 7.3548 28.6523 1.7317 7.4737 28.8967 1.9675 7.487 28.9087 1.9861 7.4061 28.9329 2.0443 7.5132 28.861 1.8794 7.4924 28.8582 1.8789 7.4404 28.7693 1.8132 7.4446 28.7606 1.8088 7.3016 28.8839 1.8117 7.2251 28.8816 1.804 7.2461 28.85 1.7657 7.2957 28.8903 1.8229 7.4273 28.8135 1.8197 7.1598 35.6028 -0.8986 7.1518 35.9554 -0.9219 7.099 35.949 -0.9848 7.5432 36.5872 -1.5899 7.5198 36.5485 -1.6459 7.5236 36.7426 -1.7126 6.7581 36.851 -1.1078 6.8109 36.9192 -1.0128 6.8046 36.8948 -1.067 7.0017 36.9296 -0.8894 6.9799 37.0715 -0.8834 7.4629 36.5787 -1.2298 7.4449 36.6543 -1.2361 6.9881 37.2629 -2.0752 7.0508 37.3924 -2.0244 7.0912 37.2023 -2.1317 7.0664 36.9903 -2.0983 6.9579 37.0627 -2.0342 6.9752 37.2203 -2.075 7.0961 37.1594 -2.1236 7.5853 36.9465 -1.6805 7.698 37.1325 -1.808 7.6699 37.1159 -1.7305 7.6224 36.9504 -1.7546 7.6333 36.9416 -1.835 7.5993 36.9154 -1.7268 7.3455 35.6795 -1.6659 7.3592 35.9894 -1.7964 7.3988 35.7075 -1.6164 6.8042 36.9049 -0.971 6.8751 36.9431 -0.9163 7.074 36.7107 -0.9899 6.9972 36.7472 -1.0019 7.0589 36.9538 -1.5769 7.0655 36.9645 -1.5833 6.9109 36.8976 -1.7231 6.9059 36.8805 -1.707 6.9428 36.8995 -1.6851 7.5232 37.5026 -1.7351 7.5432 37.484 -1.7627 7.4645 37.5071 -1.8202 7.0911 37.534 -1.9015 7.016 37.4447 -1.9758 6.9887 37.5288 -1.8816 7.2766 34.8243 -1.2942 7.2361 35.2993 -1.5073 7.2726 35.2904 -1.5346 7.7216 37.2452 -1.748 7.7254 37.3476 -1.6978 6.9121 37.2637 -2.0125 6.8821 37.3478 -1.9486 6.9306 37.3057 -2.0157 6.8755 37.3006 -1.944 6.9174 37.036 -1.7219 6.9213 37 -1.7173 6.8877 37.4137 -1.8032 6.8588 37.3768 -1.8434 6.999 37.594 -1.7362 7.0116 37.623 -1.761 6.87 37.424 -1.8393 7.2858 37.555 -1.4237 7.2441 37.5238 -1.4264 7.2989 37.4924 -1.4103 7.02 37.4944 -1.7268 6.9445 37.4093 -1.7748 7.0381 37.3631 -1.7163 7.0898 36.9466 -1.4872 6.9121 36.8186 -1.2073 6.8366 36.8096 -1.171 6.966 36.8922 -1.1021 6.9601 36.824 -1.2889 6.9815 36.8389 -1.35 6.9003 36.7932 -1.3315 6.8919 36.7907 -1.3142 7.199 36.3966 -1.0033 7.0986 36.3822 -1.0516 6.8847 36.8028 -1.7206 6.8443 36.7968 -1.6445 6.8782 36.824 -1.7124 6.8547 36.7739 -1.6467 6.6639 36.7239 -1.2406 6.7237 36.7516 -1.4405 6.743 36.73 -1.4509 6.8994 36.6083 -1.0903 6.7505 36.6486 -1.1367 6.7666 36.5991 -1.1358 6.7322 36.5757 -1.3537 6.6776 36.6442 -1.2338 6.7355 36.6681 -1.4036 6.6951 36.5809 -1.2252 7.0656 36.5392 -1.8596 7.0696 36.5378 -1.8974 7.0918 36.4023 -1.8497 6.9503 36.8397 -1.9743 7.0722 36.7537 -2.0259 6.9761 36.7858 -1.919 7.7056 37.1453 -1.9129 7.6161 37.1533 -2.0092 7.6821 37.303 -1.8396 7.5779 37.2808 -1.9351 7.2885 36.7895 -0.9976 7.3854 36.7666 -1.0908 7.2625 36.8452 -1.0097 7.5588 35.9075 -1.2928 7.3556 36.2129 -1.8691 7.441 36.1056 -1.6702 7.4692 36.1352 -1.6135 7.5393 35.5037 -1.2036 7.574 34.9522 -0.9506 7.5786 34.9708 -0.9188 7.6052 34.4871 -0.6963 7.52 35.0408 -0.768 7.493 35.0463 -0.7455 7.5659 34.5578 -0.5492 7.5715 35.6083 -1.11 7.5587 35.6281 -1.0781 7.5809 35.0181 -0.8379 7.4078 35.6325 -0.879 7.3874 35.6329 -0.8665 7.4438 36.4372 -0.999 7.2972 36.5269 -0.9903 7.4209 35.9437 -1.0131 7.4801 36.213 -1.1198 7.4619 36.2443 -1.0885 7.435 35.9303 -1.0533 7.5228 36.9753 -1.6154 7.443 36.8515 -1.4844 7.5264 36.8243 -1.533 6.6834 36.6487 -1.1975 6.6656 36.7219 -1.2142 6.7355 36.7473 -1.0938 7.0964 36.5714 -1.0176 7.1877 36.6855 -0.9724 7.1948 36.5453 -0.9868 7.3494 37.5634 -1.8093 7.2746 37.6032 -1.7294 6.9239 36.7488 -1.7391 6.9024 36.7101 -1.6407 6.8919 37.0938 -1.9728 6.8923 36.8964 -1.889 7.3923 37.0232 -1.5732 7.2353 36.9077 -1.4714 7.3517 36.8667 -1.4673 7.2907 37.0582 -1.5578 7.4301 36.2988 -1.0245 7.4005 35.9714 -0.9367 7.6647 36.469 -1.3857 7.655 36.4449 -1.431 7.1221 36.9983 -0.9009 7.4561 36.7313 -1.2308 7.6393 36.3125 -1.2907 7.653 36.3498 -1.3865 7.657 36.3809 -1.346 7.6462 36.2636 -1.307 7.0565 36.9933 -1.0479 7.1875 36.9195 -1.0353 7.2868 36.8326 -1.1625 7.1786 36.8668 -1.2045 7.265 37.2359 -1.5484 7.3475 37.2096 -1.5585 7.3013 37.4178 -1.4707 7.4039 37.3832 -1.5048 7.4245 36.8227 -1.4509 7.5152 36.7651 -1.434 6.7821 36.803 -1.1942 6.796 36.9064 -0.9823 6.8739 37.0047 -0.8941 6.8053 36.9192 -0.998 6.8741 37.0292 -0.9474 6.7534 36.836 -1.4352 6.867 36.8691 -1.6014 6.7311 36.8052 -1.4531 6.8462 36.8457 -1.628 7.0824 34.4496 -0.7118 7.0951 33.9379 -0.5457 7.0867 33.9579 -0.499 7.073 34.4247 -0.755 6.85 35.8639 -1.1816 6.78 36.2436 -1.1745 6.7905 36.221 -1.2535 7.5362 36.8417 -1.831 6.9814 36.6419 -1.7452 6.9786 36.7057 -1.834 7.0152 36.5259 -1.7443 7.0459 30.7306 0.7212 7.0582 31.7686 0.2416 7.1127 30.7071 0.6546 7.1664 31.7325 0.1851 7.1096 28.9637 1.6123 7.1757 29.1434 1.5037 7.1741 28.9232 1.5634 7.3662 30.8892 1.0229 7.4742 31.9711 0.5626 7.44 31.9824 0.585 7.3857 30.8822 1.0041 7.5111 32.9063 0.2222 7.6205 34.0259 -0.3179 7.5866 34.0359 -0.295 7.5619 32.8961 0.197 7.0616 30.8103 0.916 7.1585 30.8415 0.9529 7.3775 28.7994 1.7877 7.3666 28.8297 1.7989 7.3184 28.7785 1.7177 7.3241 28.7123 1.6787 7.1452 28.9132 1.9956 7.2435 28.9509 2.0451 7.2222 28.9788 2.0652 7.1748 28.9021 1.9824 7.2076 29.5697 1.6498 7.1574 29.5166 1.6205 7.5224 29.5017 1.4642 7.5237 29.7701 1.3347 7.5202 29.5627 1.5768 7.4936 29.8317 1.4467 7.2577 28.8519 1.5327 7.2317 28.7945 1.6874 7.2291 28.8391 1.7606 7.1997 28.7661 1.7216 7.3363 28.7228 1.7342 7.3262 28.714 1.7113 7.5847 36.3067 -1.2369 7.5402 36.4143 -1.2645 7.1088 34.8798 -1.1311 7.0369 35.3639 -1.2771 7.1148 35.3445 -1.3517 7.2324 32.7657 -0.2673 7.12 33.8951 -0.6372 7.2837 33.8183 -0.7746 7.1048 32.7854 -0.1817 7.0805 36.0967 -1.6318 7.1485 36.0507 -1.7674 7.2166 35.6889 -1.6555 7.1119 35.7412 -1.5143 6.8938 36.8661 -1.6916 6.9275 36.8882 -1.6709 7.048 34.8955 -1.0481 7.0823 34.369 -0.837 7.0107 34.9422 -0.9392 6.6745 36.7821 -1.2282 6.7733 36.6802 -1.4576 6.8377 36.2049 -1.3471 6.7953 36.5872 -1.4417 7.4379 36.275 -1.7592 7.5492 36.5213 -1.5606 7.5978 36.264 -1.3912 7.6149 36.1679 -1.2912 7.1652 37.5036 -1.5853 7.1352 37.6199 -1.5255 6.7795 36.8236 -1.3882 6.8666 36.8247 -1.4778 7.4883 36.4188 -1.1919 7.5142 36.3654 -1.1374 7.4007 28.6275 1.7855 7.55 28.7873 1.7568 7.5407 28.8492 1.76 7.5153 28.7913 1.8054 7.4996 28.6396 1.784 7.4551 28.6101 1.776 7.4822 28.6213 1.7716 7.4531 28.6244 1.788 7.5428 28.9952 1.6915 7.5677 28.8196 1.6527 7.5423 28.933 1.5936 7.5451 28.8894 1.7398 7.1593 28.7864 1.6818 7.1907 28.8193 1.6342 7.45 37.0032 -1.5883 7.481 28.7568 1.5737 7.5057 28.6955 1.6057 7.4078 28.7435 1.5471 7.4354 28.6927 1.5859 7.2964 32.9099 0.0686 7.3239 34.0098 -0.3719 7.3577 32.757 -0.2879 7.411 33.8217 -0.762 7.0111 31.8335 0.3388 7.1302 32.8549 -0.0212 7.0631 32.8254 -0.0822 7.0527 31.8731 0.3893 7.0203 30.7736 0.8153 7.0386 30.7965 0.8951 7.4735 31.8518 0.3406 7.4189 30.856 0.9406 7.4599 30.7966 0.8093 7.4786 31.928 0.4774 7.2694 30.7295 0.6424 7.292 31.7433 0.1525 7.0575 30.1949 1.101 7.1172 29.7227 1.3059 7.1206 29.7626 1.3848 7.229 30.2708 1.297 7.2099 29.8284 1.522 7.3172 30.2803 1.3076 7.267 29.8405 1.5154 7.2889 30.0505 0.9689 7.4336 29.688 1.2041 7.3014 29.6385 1.1716 7.4084 30.0931 1.0259 7.499 29.5796 1.6121 7.313 29.0891 1.4419 7.2321 29.3527 1.3714 7.3028 29.3382 1.3234 7.5431 29.2936 1.7276 7.5169 29.2254 1.5937 7.5869 29.1506 1.7727 7.5364 29.0721 1.658 7.4929 29.3444 1.7986 7.4298 29.2473 1.9863 7.5268 29.2244 1.9326 7.4267 29.3831 1.8345 7.1807 29.0961 2.083 7.1551 29.1742 2.035 7.0611 29.0413 1.9959 7.0647 29.1335 1.9487 7.5511 28.7929 1.6095 7.5524 28.8885 1.8985 7.4993 28.9413 2.0116 7.2086 28.8711 1.8018 7.1915 28.7636 1.732 7.1442 28.7792 1.8016 7.4584 28.5987 1.75 7.4496 28.5949 1.745 7.4505 28.5944 1.7356 7.4516 28.5943 1.7258 7.464 28.5947 1.7205 7.2794 34.5099 -0.5991 7.4082 34.5388 -0.5485 7.228 35.0132 -0.7763 7.3516 35.031 -0.7452 7.3761 35.0341 -0.7424 7.2587 35.6267 -0.8919 7.456 36.4955 -1.0198 7.4473 36.5147 -1.1069 7.0613 36.5832 -1.0278 6.7182 36.8183 -1.0861 7.1211 36.2119 -1.8109 7.2072 36.0289 -1.8305 7.1584 36.1933 -1.869 7.4764 36.5057 -1.216 7.4563 36.5605 -1.2015 6.8727 36.9751 -1.7552 7.1566 37.0945 -1.5738 7.1195 37.121 -1.6261 6.9462 36.5594 -1.6022 7.0568 36.2471 -1.673 6.9404 36.2372 -1.4924 7.1302 36.3591 -1.9035 7.0849 36.5352 -1.9513 7.2539 37.6281 -1.7029 7.1545 37.6473 -1.5341 7.5599 37.3986 -1.859 7.6513 37.4062 -1.7515 7.212 37.5916 -1.7962 7.6194 36.9347 -1.8514 7.7184 37.1532 -1.8923 7.5941 36.9385 -1.8566 6.9183 37.1909 -1.7783 6.8547 36.7827 -1.3126 6.8622 36.7848 -1.3032 6.8577 36.7899 -1.3396 6.8761 36.7901 -1.3585 6.893 36.7945 -1.3481 6.8697 36.787 -1.2938 7.1153 37.0225 -0.9332 7.2289 36.8932 -1.031 7.5597 36.5986 -1.5273 7.2088 36.1933 -1.8885 6.9501 36.1569 -1.4689 6.7849 36.2576 -1.1364 6.8466 36.2837 -1.1161 6.705 36.5895 -1.1919 6.8953 35.9128 -1.0559 7.2562 35.6718 -1.6964 7.4244 35.319 -1.4511 7.5454 35.0303 -0.801 7.478 35.6196 -1.0624 7.3276 28.8795 1.8232 7.2972 28.9039 1.8534 7.2918 28.8955 1.8388 7.3134 28.9088 1.8597 7.3361 28.8973 1.8446 7.3288 28.9026 1.8533 7.2176 28.9325 1.9358 7.2927 28.9574 1.9663 7.5821 28.9258 1.8941 7.523 28.9998 2.028 7.4331 29.0233 2.0769 7.4272 28.9664 2.07 7.1152 28.7748 1.7963 7.0967 28.8441 1.9034 7.0547 28.8942 1.9121 7.0845 28.8162 1.7906 7.1095 29.2491 1.6848 7.0254 29.1438 1.8019 7.1065 29.2734 1.7218 7.4407 29.1326 1.471 7.4404 29.4088 1.3438 7.4939 29.1734 1.5159 7.4691 29.4414 1.3859 7.2748 29.5887 1.6716 7.1943 29.6641 1.2085 7.1569 30.0832 0.9843 7.4604 29.7124 1.243 7.4439 30.2522 1.2408 7.4027 29.8451 1.5012 7.3859 30.2797 1.2997 7.6151 33.9746 -0.4331 7.5758 32.8523 0.1093 7.4031 36.5578 -1.991 7.3957 36.3929 -1.9288 7.3831 36.549 -1.9922 7.3764 36.3855 -1.9386 7.304 36.7486 -0.9886 7.1327 36.9017 -1.3515 7.1014 36.8858 -1.2292 7.2112 36.8662 -1.3315 7.3006 29.0332 2.1134 7.1984 29.032 2.0936 7.3262 28.9844 2.0979 7.3835 28.7448 1.7903 7.5288 29.0103 1.5694 7.4634 28.6366 1.6347 7.4369 28.7091 1.817 7.5084 28.7247 1.8099 7.4145 28.6123 1.7765 7.4268 28.5994 1.76 7.5459 28.7213 1.7742 7.4063 28.5999 1.7285 7.4299 28.5968 1.7325 6.8797 37.0304 -0.9579 6.7651 36.7895 -1.26 6.7211 36.8128 -1.2544 7.5781 36.3269 -1.4532 7.2089 36.3572 -1.9477 6.8849 36.8473 -1.7701 6.8849 36.8404 -1.7579 7.0197 36.9186 -1.535 6.9124 36.8877 -1.6583 7.1293 34.3602 -0.8889 7.5509 36.1781 -1.23 7.592 36.1609 -1.2562 7.6394 36.265 -1.2871 7.1775 28.7606 1.7054 7.2253 28.793 1.6676 7.3234 28.9527 2.0708 7.2391 28.7946 1.6829 7.2963 28.7769 1.6726 7.4003 28.9052 1.8951 7.3986 28.8598 1.8395 7.1686 28.7584 1.7152 7.1493 28.7861 1.6905 7.3528 28.6661 1.7043 7.6029 28.9777 1.868 7.5392 29.0649 2.0208 7.4351 29.0859 2.0661 7.5999 34.5455 -0.5825 7.5514 35.5765 -1.1487 7.5383 32.8329 -0.0813 7.1377 29.192 1.5899 7.1747 29.3937 1.4274 6.9273 36.6172 -1.6185 7.4005 36.7561 -2.0642 7.4455 36.7727 -2.0403 6.9223 35.4419 -1.074 6.6817 36.7935 -1.2314 6.7095 36.8124 -1.25 7.0072 37.0928 -0.9173 7.1246 37.009 -0.9088 7.1183 37.0203 -0.9203 6.9822 37.083 -0.8894 6.7203 36.8285 -1.0903 6.7438 36.8442 -1.1043 7.5857 37.2903 -1.5937 7.3272 36.8318 -1.3064 7.3818 36.8 -1.289 7.5546 36.7004 -1.347 7.5468 36.7334 -1.3754 7.5886 36.2624 -1.2276 7.5701 35.9198 -1.1957 7.4944 35.9414 -1.1527 7.4414 37.1836 -1.5916 7.5228 37.4589 -1.4904 7.4318 37.4977 -1.4366 7.4024 36.352 -1.0101 7.2689 36.3877 -0.9995 7.3585 35.9784 -0.9106 7.2405 35.9641 -0.9235 6.8722 36.7616 -1.0441 7.4858 36.2594 -1.1113 7.5544 36.212 -1.218 7.5251 36.1817 -1.1955 7.4776 36.3673 -1.0519 7.454 35.6244 -1.0279 7.4301 35.6244 -0.9774 7.4209 35.6252 -0.9583 7.5326 36.2016 -1.4989 7.5289 36.2649 -1.5293 7.5917 35.9182 -1.23 7.6083 37.0912 -2.0231 7.2338 36.8886 -1.0192 6.913 36.8436 -1.8568 6.8992 36.8218 -1.7793 7.217 37.0984 -2.1722 7.2171 36.9247 -2.1256 7.6244 37.3884 -1.5295 7.6755 37.3616 -1.6106 7.6305 37.4307 -1.5441 7.5703 37.4891 -1.654 7.616 37.4503 -1.6993 7.2458 28.8976 1.5144 7.2289 29.1179 1.4525 7.2328 37.1579 -2.1591 7.0109 36.9887 -1.0567 7.0425 36.882 -1.255 6.9251 37.1022 -0.909 6.9157 37.0852 -0.8818 7.5145 36.9077 -2.0269 7.5543 36.9277 -1.9403 6.891 36.8465 -1.7891 7.5073 36.6815 -1.7911 7.571 36.9338 -1.9003 7.5328 28.6354 1.6743 7.4722 28.6052 1.7422 7.4882 28.6149 1.7485 7.5729 36.2417 -1.432 7.7221 37.3666 -1.7073 7.6763 37.4058 -1.6295 7.5848 36.9366 -1.8667 7.2606 37.6221 -1.7127 7.267 37.611 -1.7207 7.4978 36.903 -2.045 6.9955 35.9308 -1.0298 7.5631 36.5264 -1.5263 7.5695 36.4033 -1.4982 7.546 36.3833 -1.5345 7.4841 36.422 -1.0748 7.47 36.5205 -1.2029 7.4678 36.4667 -1.1494 7.4637 36.5354 -1.1897 7.5512 36.4554 -1.2919 7.5622 36.4966 -1.3192 7.5232 36.3614 -1.5758 7.5566 36.3049 -1.486 7.4953 36.5564 -1.2597 7.5557 36.5395 -1.326 7.5492 36.5825 -1.3328 7.4997 36.5429 -1.2604 7.1864 34.49 -0.6339 7.0778 31.8877 0.4098 7.1587 32.8656 -0.0015 7.1632 33.9793 -0.4424 7.1946 33.9864 -0.4247 7.4322 34.5428 -0.5444 7.2438 30.8779 1.0182 7.3099 31.972 0.5599 7.222 30.8723 1.0096 7.3321 31.9765 0.569 6.9301 37.1017 -0.9199 7.0064 37.093 -0.9297 7.4696 36.7758 -2.0091 7.4204 36.4118 -1.9017 7.4298 36.5685 -1.9627 7.1559 37.5112 -1.8939 7.1432 37.5168 -1.8932 7.2007 37.5992 -1.7911 7.1634 37.6204 -1.788 7.1524 37.6268 -1.781 7.1064 37.5372 -1.8964 7.2368 28.7939 1.6598 7.446 28.5949 1.7151 7.4436 28.5952 1.7346 7.4596 28.6037 1.7635 7.4418 28.5961 1.7534 7.478 28.6134 1.761 7.4676 28.6035 1.7488 7.4965 28.6224 1.7561 7.5115 28.6223 1.7388 7.4331 28.5974 1.7056 7.426 28.6026 1.6896 7.4487 28.6424 1.7989 7.5029 28.6578 1.7954 7.5222 28.642 1.7652 7.5332 28.6588 1.7703 7.5326 28.6369 1.7349 7.546 28.6513 1.7312 7.5222 28.6472 1.649 7.4613 28.6523 1.6191 7.5223 28.6645 1.6349 7.5569 28.6841 1.7216 7.5468 28.6798 1.6497 7.5612 28.7055 1.7153 7.5426 28.6604 1.6595 7.5427 28.6995 1.7757 7.5064 28.7027 1.8077 7.2312 28.934 1.9214 7.2103 28.9015 1.8653 7.3528 28.929 1.921 7.2936 28.9526 1.9457 7.381 28.9085 1.8876 7.3355 28.886 1.8316 7.3787 28.8651 1.8372 7.4996 36.8043 -1.92 6.9216 36.7854 -1.7957 7.3398 28.9093 1.4815 7.4651 28.8894 1.5386 7.3509 28.8436 1.5036 7.4514 28.9534 1.5181 6.9983 37.0162 -1.6584 7.2787 37.3246 -2.041 7.4885 37.3466 -1.5446 7.5221 37.4166 -1.4835 7.4564 37.4217 -1.9209 7.4231 37.4654 -1.4276 7.2063 37.2624 -1.5696 7.2424 37.4365 -1.4922 7.0626 36.8996 -1.3735 7.1486 36.9462 -1.4676 6.9468 36.8453 -1.4285 6.9757 36.3325 -1.1021 7.4277 37.1368 -2.1184 7.4255 37.0756 -2.1309 7.4539 36.4624 -1.8269 7.4692 36.6122 -1.8787 7.4888 36.5017 -1.734 7.4925 36.5043 -1.2385 7.4993 36.5298 -1.2555 7.5007 36.6416 -1.2971 7.4802 36.5747 -1.2486 7.4735 36.3097 -1.6791 7.4706 35.9435 -1.1203 7.0203 37.1555 -1.7012 7.1545 37.2916 -1.6239 7.5088 36.3149 -1.1189 7.3161 37.4583 -1.9253 7.2123 36.5358 -2.0096 7.055 29.0382 1.6837 7.141 29.6902 1.2529 7.1476 29.4282 1.503 7.3599 31.7651 0.1881 7.3625 30.7405 0.6843 7.5798 33.9194 -0.5549 7.4777 34.3567 -0.9562 7.5754 34.4299 -0.8073 7.4765 33.8461 -0.7043 7.5496 34.8969 -1.0523 7.4587 34.839 -1.2044 7.2035 31.9299 0.4797 7.1618 34.4847 -0.6432 7.0868 30.1294 1.0291 7.6001 29.0663 1.8158 7.4315 29.1766 2.034 7.5372 29.1524 1.9738 7.2968 29.1849 2.0687 7.1662 29.2474 1.9842 7.2935 29.2569 2.0142 7.0105 29.0725 1.8432 7.0743 29.199 1.8947 7.0494 28.9971 1.707 7.3033 29.1048 2.1052 7.0924 28.9748 2.0166 7.0497 28.9022 1.7466 7.0224 28.9676 1.8966 7.1916 28.8942 1.8702 7.3659 28.9306 1.9381 7.1367 28.8443 1.9007 7.1243 29.3144 1.7818 7.1836 29.3566 1.8232 7.4317 32.7752 -0.232 7.0018 35.7951 -1.3852 6.9684 35.3882 -1.1948 6.8947 35.8391 -1.2842 7.7264 37.2956 -1.7865 7.4377 28.6872 1.8152 7.3788 28.655 1.6486 7.5656 28.757 1.6837 7.5497 28.7286 1.6287 7.4969 30.1787 1.1274 7.139 29.4721 1.5749 7.4162 29.5979 1.6701 7.289 29.3816 1.8546 7.3849 34.8192 -1.2706 7.4009 34.3212 -1.0138 7.2869 34.3006 -1.0262 7.3634 35.2905 -1.5123 7.4981 36.5145 -1.2489 7.218 37.0813 -1.5474 7.2132 36.7206 -2.0748 7.4176 36.8881 -2.0916 7.432 37.2896 -2.0092'/>
          </IndexedFaceSet>
        </Shape>
      </Transform>
    </Group>
  </Scene>
</X3D>