<?xml version="1.0" encoding="UTF-8"?>
<!DOCTYPE X3D PUBLIC "ISO//Web3D//DTD X3D 3.3//EN" "https://www.web3d.org/specifications/x3d-3.3.dtd">
<X3D profile='Interchange' version='3.3' xmlns:xsd='http://www.w3.org/2001/XMLSchema-instance' xsd:noNamespaceSchemaLocation='https://www.web3d.org/specifications/x3d-3.3.xsd'>
  <head>
    <meta content='BonesRightRadiusUlna.x3d' name='title'/>
    <meta content='Damon Hernandez, Joe Williams' name='creator'/>
    <meta content='Human bone model for Right RadiusUlna' name='description'/>
    <meta content='Joe Williams, Don Brutzman' name='translator'/>
    <meta content='5 December 2013' name='created'/>
    <meta content='2 March 2026' name='modified'/>
    <meta content='This model has no HAnim nodes, rather it is purely geometry' name='warning'/>
    <meta content='document unit conversions applied: approximation of inches to meters, which ordinarily is a scale factor of 0.0254' name='TODO'/>
    <meta content='X3D-Edit 4.0, https://www.web3d.org/x3d/tools/X3D-Edit' name='generator'/>
    <meta content='https://www.web3d.org/x3d/content/examples/HumanoidAnimation/Medical/BonesRightRadiusUlna.x3d' name='identifier'/>
    <meta content='../license.html' name='license'/>
  </head>
  <Scene>
    <WorldInfo title='BonesRightRadiusUlna.x3d'/>
    <NavigationInfo type='"EXAMINE" "LOOKAT" "ANY"'/>
    <Transform DEF='DSkeletonParts' scale='0.029 0.029 0.029'>
      <Group DEF='RightHumerus'>
        <!-- rradius rulna -->
        <Shape DEF='rradius'>
          <Appearance>
            <Material ambientIntensity='0.098' diffuseColor='1 0.9765 0.8667' emissiveColor='1 0 0' shininess='0.05' specularColor='0.349 0.349 0.349'/>
          </Appearance>
          <IndexedFaceSet DEF='rradius_Geo' coordIndex='0 1 2 -1 3 4 5 -1 3 6 4 -1 7 8 9 -1 7 10 8 -1 11 12 13 -1 14 15 16 -1 17 18 19 -1 17 20 18 -1 21 22 23 -1 24 25 26 -1 27 28 29 -1 30 31 32 -1 30 33 31 -1 34 35 36 -1 34 37 35 -1 35 37 38 -1 39 40 41 -1 40 42 41 -1 43 44 45 -1 43 46 44 -1 47 48 49 -1 47 50 48 -1 51 52 53 -1 53 54 51 -1 55 56 57 -1 58 59 60 -1 58 61 59 -1 62 63 64 -1 62 65 63 -1 66 67 63 -1 68 69 70 -1 70 71 68 -1 72 73 74 -1 75 76 77 -1 78 73 79 -1 72 80 73 -1 81 82 83 -1 84 85 86 -1 87 88 89 -1 90 91 92 -1 92 93 90 -1 94 95 96 -1 25 88 97 -1 97 32 31 -1 95 94 98 -1 99 100 98 -1 99 33 100 -1 26 25 31 -1 25 97 31 -1 101 102 103 -1 104 105 106 -1 107 108 109 -1 108 110 109 -1 111 112 113 -1 114 115 116 -1 116 115 117 -1 115 118 117 -1 119 120 121 -1 122 123 124 -1 124 125 122 -1 126 127 128 -1 126 129 127 -1 126 130 129 -1 131 132 133 -1 131 134 132 -1 135 136 137 -1 136 138 137 -1 139 140 141 -1 142 140 143 -1 142 141 140 -1 128 144 145 -1 128 127 144 -1 146 147 121 -1 148 141 142 -1 148 149 141 -1 150 151 152 -1 150 153 151 -1 143 140 154 -1 154 155 156 -1 154 157 155 -1 140 158 154 -1 156 159 160 -1 161 162 163 -1 161 164 162 -1 165 166 167 -1 165 168 166 -1 134 169 132 -1 134 10 169 -1 170 171 172 -1 171 173 172 -1 174 175 176 -1 174 177 175 -1 135 178 136 -1 135 179 178 -1 180 181 182 -1 181 183 182 -1 184 185 186 -1 186 187 184 -1 4 188 189 -1 188 190 189 -1 188 4 191 -1 4 6 191 -1 192 117 193 -1 194 195 196 -1 144 197 113 -1 197 111 113 -1 198 199 193 -1 193 117 198 -1 200 117 201 -1 202 203 204 -1 203 146 204 -1 194 205 195 -1 194 206 205 -1 114 116 207 -1 144 127 129 -1 129 197 144 -1 208 209 210 -1 208 211 209 -1 209 191 210 -1 212 213 102 -1 213 103 102 -1 214 215 216 -1 216 217 214 -1 212 218 128 -1 212 102 218 -1 128 145 212 -1 144 113 219 -1 218 102 220 -1 102 217 220 -1 221 216 222 -1 216 223 222 -1 224 225 226 -1 225 227 226 -1 228 229 230 -1 229 231 230 -1 232 103 213 -1 232 233 103 -1 215 234 235 -1 234 236 235 -1 237 238 239 -1 237 240 238 -1 241 242 243 -1 241 244 242 -1 245 246 247 -1 245 84 246 -1 248 247 249 -1 250 51 54 -1 54 251 250 -1 252 253 254 -1 242 239 255 -1 255 256 242 -1 257 258 259 -1 259 260 257 -1 261 262 47 -1 47 49 261 -1 263 45 264 -1 263 265 45 -1 266 267 47 -1 47 262 266 -1 268 269 270 -1 270 271 268 -1 39 272 273 -1 39 41 272 -1 53 52 274 -1 275 276 277 -1 275 278 276 -1 279 280 281 -1 279 282 280 -1 62 283 284 -1 284 78 62 -1 285 286 287 -1 288 289 290 -1 95 291 292 -1 292 96 95 -1 292 293 294 -1 294 28 292 -1 295 13 296 -1 13 12 296 -1 297 298 299 -1 297 300 298 -1 301 302 303 -1 301 304 302 -1 305 301 306 -1 305 304 301 -1 239 307 255 -1 239 238 307 -1 22 21 16 -1 21 14 16 -1 20 308 18 -1 308 309 18 -1 310 311 312 -1 64 63 67 -1 67 66 313 -1 62 71 65 -1 314 315 316 -1 314 309 315 -1 317 318 319 -1 319 320 317 -1 321 322 323 -1 321 324 322 -1 325 326 327 -1 107 328 329 -1 107 109 328 -1 330 283 64 -1 330 331 283 -1 89 88 332 -1 88 333 332 -1 334 335 329 -1 334 327 335 -1 233 104 110 -1 233 232 104 -1 106 336 337 -1 106 105 336 -1 337 338 339 -1 337 336 338 -1 93 340 90 -1 88 87 97 -1 333 88 64 -1 92 326 325 -1 92 341 326 -1 342 343 91 -1 344 345 327 -1 345 335 327 -1 301 303 335 -1 335 345 301 -1 317 346 311 -1 70 347 348 -1 347 349 348 -1 324 321 313 -1 321 67 313 -1 62 64 283 -1 18 314 350 -1 18 309 314 -1 255 14 21 -1 255 307 14 -1 234 351 302 -1 302 304 234 -1 297 352 353 -1 353 354 297 -1 355 29 356 -1 356 24 355 -1 288 339 357 -1 357 289 288 -1 79 286 69 -1 79 287 286 -1 287 358 285 -1 358 359 285 -1 74 360 361 -1 360 362 361 -1 363 359 358 -1 364 278 275 -1 364 365 278 -1 283 366 284 -1 283 331 366 -1 367 277 276 -1 367 368 277 -1 76 369 77 -1 76 251 369 -1 39 48 40 -1 267 370 371 -1 371 50 267 -1 36 271 270 -1 45 265 43 -1 265 372 43 -1 373 374 261 -1 261 375 373 -1 376 248 377 -1 248 378 377 -1 248 249 378 -1 249 379 378 -1 296 12 380 -1 12 381 380 -1 382 256 383 -1 382 253 256 -1 12 11 381 -1 11 254 381 -1 11 252 254 -1 11 384 252 -1 251 385 250 -1 251 386 385 -1 85 84 245 -1 245 386 85 -1 75 387 300 -1 300 76 75 -1 388 243 252 -1 388 241 243 -1 235 236 240 -1 236 238 240 -1 234 215 351 -1 215 214 351 -1 389 218 390 -1 218 220 390 -1 226 227 228 -1 227 229 228 -1 230 219 147 -1 389 126 128 -1 128 218 389 -1 244 227 225 -1 244 241 227 -1 231 229 388 -1 388 391 231 -1 240 392 393 -1 240 237 392 -1 216 215 223 -1 215 235 223 -1 102 101 217 -1 101 214 217 -1 394 191 395 -1 394 188 191 -1 126 396 130 -1 126 389 396 -1 207 123 114 -1 207 397 123 -1 206 398 205 -1 206 399 398 -1 398 202 397 -1 202 204 397 -1 124 204 146 -1 125 400 122 -1 125 120 400 -1 401 119 121 -1 121 112 401 -1 121 113 112 -1 116 402 195 -1 191 6 193 -1 6 192 193 -1 403 196 404 -1 403 194 196 -1 9 5 7 -1 9 3 5 -1 136 178 405 -1 405 406 136 -1 176 407 179 -1 176 175 407 -1 180 408 181 -1 149 409 410 -1 149 411 409 -1 412 164 161 -1 412 413 164 -1 414 415 416 -1 414 172 415 -1 417 211 129 -1 129 130 417 -1 209 395 191 -1 118 201 117 -1 200 198 117 -1 125 121 120 -1 125 146 121 -1 125 124 146 -1 242 256 243 -1 108 418 110 -1 418 233 110 -1 231 391 419 -1 384 11 420 -1 421 100 422 -1 421 290 95 -1 25 24 356 -1 423 30 424 -1 423 422 30 -1 423 421 422 -1 32 97 425 -1 340 93 426 -1 323 427 321 -1 427 332 321 -1 332 333 321 -1 333 67 321 -1 76 86 85 -1 76 300 86 -1 360 74 73 -1 358 287 79 -1 358 73 80 -1 358 79 73 -1 352 297 299 -1 298 300 387 -1 64 67 333 -1 64 88 330 -1 88 25 330 -1 369 251 54 -1 53 82 369 -1 369 54 53 -1 369 82 77 -1 82 81 77 -1 57 428 61 -1 47 267 50 -1 35 371 370 -1 35 38 371 -1 37 34 286 -1 33 26 31 -1 33 99 26 -1 355 24 26 -1 429 430 258 -1 430 431 258 -1 431 259 258 -1 46 43 312 -1 416 175 414 -1 416 407 175 -1 432 171 165 -1 432 173 171 -1 195 402 196 -1 167 433 434 -1 435 433 167 -1 434 436 437 -1 434 433 436 -1 438 404 196 -1 183 404 438 -1 437 439 181 -1 437 436 439 -1 3 192 6 -1 192 3 440 -1 182 184 441 -1 442 184 182 -1 443 444 185 -1 445 444 443 -1 169 165 171 -1 165 169 168 -1 173 446 447 -1 446 173 432 -1 448 180 449 -1 180 448 408 -1 450 451 452 -1 453 451 450 -1 454 455 456 -1 457 455 454 -1 407 458 459 -1 458 407 416 -1 460 453 461 -1 460 451 453 -1 462 463 464 -1 131 463 462 -1 465 466 177 -1 466 465 133 -1 336 467 338 -1 467 336 295 -1 310 468 350 -1 468 310 372 -1 429 23 22 -1 23 429 258 -1 265 469 470 -1 265 263 469 -1 471 26 99 -1 471 355 26 -1 472 424 425 -1 473 424 472 -1 474 427 475 -1 474 476 427 -1 342 322 343 -1 342 323 322 -1 477 266 262 -1 264 266 477 -1 478 39 273 -1 479 39 478 -1 352 279 480 -1 352 299 279 -1 481 482 483 -1 481 353 482 -1 368 387 75 -1 368 367 387 -1 298 279 299 -1 279 298 282 -1 75 81 368 -1 81 75 77 -1 57 58 55 -1 61 58 57 -1 274 484 83 -1 272 484 274 -1 485 42 359 -1 42 485 41 -1 348 71 70 -1 71 348 65 -1 331 486 487 -1 331 330 486 -1 488 483 482 -1 488 489 483 -1 285 37 286 -1 38 37 285 -1 365 490 278 -1 490 365 361 -1 276 282 367 -1 276 280 282 -1 491 368 81 -1 491 277 368 -1 363 275 492 -1 275 363 364 -1 360 78 284 -1 360 73 78 -1 493 362 366 -1 493 494 362 -1 281 480 279 -1 281 495 480 -1 342 90 475 -1 91 90 342 -1 426 474 340 -1 426 473 474 -1 471 96 27 -1 94 96 471 -1 418 302 351 -1 108 302 418 -1 419 384 420 -1 384 419 391 -1 11 232 420 -1 11 104 232 -1 418 103 233 -1 418 101 103 -1 400 201 118 -1 496 201 400 -1 198 497 498 -1 198 200 497 -1 417 209 211 -1 417 395 209 -1 499 462 461 -1 499 500 462 -1 461 186 499 -1 453 186 461 -1 501 450 457 -1 501 187 450 -1 466 172 414 -1 466 170 172 -1 416 502 458 -1 416 415 502 -1 503 406 504 -1 406 503 505 -1 506 507 508 -1 507 506 509 -1 510 413 511 -1 510 164 413 -1 512 513 514 -1 513 512 162 -1 515 411 516 -1 515 409 411 -1 517 140 139 -1 517 158 140 -1 518 519 520 -1 518 521 519 -1 155 152 522 -1 152 155 157 -1 159 523 524 -1 523 159 156 -1 525 139 410 -1 139 525 517 -1 523 526 527 -1 523 522 526 -1 412 524 528 -1 524 412 529 -1 163 520 161 -1 520 163 518 -1 154 160 143 -1 156 160 154 -1 519 143 160 -1 519 521 143 -1 526 505 503 -1 526 151 505 -1 138 525 137 -1 138 153 525 -1 413 528 506 -1 528 413 412 -1 149 512 411 -1 148 512 149 -1 137 410 409 -1 410 137 525 -1 181 446 437 -1 181 408 446 -1 447 502 415 -1 447 448 502 -1 530 465 531 -1 530 463 465 -1 459 179 407 -1 179 459 178 -1 531 513 530 -1 513 531 514 -1 176 516 174 -1 516 176 515 -1 443 438 532 -1 442 438 443 -1 440 9 445 -1 440 3 9 -1 449 501 533 -1 449 441 501 -1 444 500 499 -1 444 8 500 -1 534 456 455 -1 405 456 534 -1 535 452 451 -1 536 452 535 -1 460 537 538 -1 460 464 537 -1 504 405 534 -1 406 405 504 -1 508 536 535 -1 507 536 508 -1 510 538 537 -1 511 538 510 -1 539 433 1 -1 539 436 433 -1 540 404 439 -1 540 403 404 -1 208 199 541 -1 210 199 208 -1 112 541 498 -1 112 111 541 -1 119 497 496 -1 119 401 497 -1 122 118 115 -1 122 400 118 -1 542 543 544 -1 543 542 545 -1 546 547 548 -1 546 549 547 -1 550 543 551 -1 550 552 543 -1 553 545 548 -1 554 545 553 -1 547 398 399 -1 547 202 398 -1 204 123 397 -1 204 124 123 -1 554 555 551 -1 555 554 556 -1 206 553 399 -1 557 553 206 -1 207 398 397 -1 205 398 207 -1 555 1 0 -1 1 555 539 -1 403 556 557 -1 540 556 403 -1 558 552 550 -1 559 552 558 -1 0 190 560 -1 0 2 190 -1 396 390 559 -1 389 390 396 -1 560 188 394 -1 560 190 188 -1 130 561 417 -1 130 396 561 -1 240 223 235 -1 240 393 223 -1 237 225 392 -1 237 244 225 -1 229 241 388 -1 241 229 227 -1 562 392 563 -1 562 393 392 -1 390 221 564 -1 390 220 221 -1 544 562 542 -1 544 222 562 -1 563 549 546 -1 563 224 549 -1 146 226 228 -1 203 226 146 -1 391 252 384 -1 252 391 388 -1 76 386 251 -1 85 386 76 -1 245 385 386 -1 245 376 385 -1 382 254 253 -1 381 254 382 -1 21 256 255 -1 383 256 21 -1 381 565 380 -1 381 382 565 -1 383 23 566 -1 383 21 23 -1 567 380 565 -1 568 380 567 -1 566 258 257 -1 566 23 258 -1 568 569 379 -1 568 567 569 -1 570 379 569 -1 378 379 570 -1 260 571 572 -1 260 259 571 -1 573 378 570 -1 377 378 573 -1 574 572 571 -1 575 572 574 -1 377 373 576 -1 377 573 373 -1 477 575 574 -1 374 575 477 -1 576 375 577 -1 576 373 375 -1 374 262 261 -1 374 477 262 -1 577 479 478 -1 577 375 479 -1 574 264 477 -1 263 264 574 -1 46 268 44 -1 46 269 268 -1 42 371 38 -1 42 40 371 -1 371 48 50 -1 371 40 48 -1 81 484 491 -1 81 83 484 -1 495 482 480 -1 482 495 488 -1 366 487 493 -1 487 366 331 -1 361 494 490 -1 362 494 361 -1 359 492 485 -1 492 359 363 -1 365 80 72 -1 365 364 80 -1 78 71 62 -1 68 71 78 -1 58 294 293 -1 58 60 294 -1 291 357 578 -1 357 291 289 -1 99 94 471 -1 99 98 94 -1 356 28 579 -1 356 29 28 -1 330 356 486 -1 330 25 356 -1 580 483 581 -1 580 481 483 -1 59 297 354 -1 59 582 297 -1 583 295 296 -1 295 583 467 -1 56 246 57 -1 56 584 246 -1 86 428 84 -1 428 86 582 -1 468 430 19 -1 430 468 470 -1 236 307 238 -1 236 305 307 -1 15 306 585 -1 14 306 15 -1 346 269 46 -1 346 586 269 -1 36 587 34 -1 587 36 270 -1 324 349 319 -1 349 324 313 -1 347 34 587 -1 347 70 34 -1 320 587 586 -1 320 347 587 -1 301 585 306 -1 585 301 345 -1 345 308 585 -1 308 345 344 -1 309 344 315 -1 309 308 344 -1 311 316 588 -1 311 314 316 -1 317 588 318 -1 317 311 588 -1 343 92 91 -1 343 341 92 -1 475 340 474 -1 475 90 340 -1 589 92 325 -1 93 92 589 -1 288 589 334 -1 288 290 589 -1 421 426 93 -1 421 423 426 -1 425 87 472 -1 97 87 425 -1 106 328 109 -1 106 337 328 -1 339 56 357 -1 339 338 56 -1 578 56 55 -1 56 578 357 -1 337 288 328 -1 337 339 288 -1 104 109 110 -1 104 106 109 -1 30 100 33 -1 422 100 30 -1 473 423 424 -1 426 423 473 -1 93 290 421 -1 589 290 93 -1 328 334 329 -1 328 288 334 -1 334 325 327 -1 589 325 334 -1 332 476 89 -1 427 476 332 -1 335 107 329 -1 303 107 335 -1 319 322 324 -1 319 318 322 -1 343 318 588 -1 318 343 322 -1 588 341 343 -1 588 316 341 -1 316 326 341 -1 316 315 326 -1 327 315 344 -1 315 327 326 -1 586 317 320 -1 586 346 317 -1 313 348 349 -1 313 66 348 -1 319 347 320 -1 319 349 347 -1 586 270 269 -1 586 587 270 -1 310 314 311 -1 310 350 314 -1 585 20 15 -1 585 308 20 -1 305 14 307 -1 305 306 14 -1 17 22 16 -1 22 17 429 -1 429 19 430 -1 429 17 19 -1 469 259 431 -1 259 469 571 -1 234 305 236 -1 234 304 305 -1 86 297 582 -1 86 300 297 -1 57 84 428 -1 57 246 84 -1 584 338 467 -1 584 56 338 -1 467 249 584 -1 249 467 583 -1 61 582 59 -1 61 428 582 -1 579 486 356 -1 486 579 489 -1 579 294 581 -1 579 28 294 -1 27 292 28 -1 27 96 292 -1 578 292 291 -1 578 293 292 -1 95 289 291 -1 290 289 95 -1 60 581 294 -1 60 580 581 -1 55 293 578 -1 293 55 58 -1 493 488 495 -1 488 493 487 -1 281 490 494 -1 281 280 490 -1 485 491 484 -1 491 485 492 -1 272 52 273 -1 52 272 274 -1 268 370 267 -1 271 370 268 -1 268 266 44 -1 267 266 268 -1 263 571 469 -1 574 571 263 -1 372 470 468 -1 372 265 470 -1 375 49 479 -1 375 261 49 -1 478 250 577 -1 51 250 478 -1 577 385 576 -1 250 385 577 -1 573 374 373 -1 573 575 374 -1 376 576 385 -1 376 377 576 -1 575 570 572 -1 573 570 575 -1 569 572 570 -1 569 260 572 -1 567 260 569 -1 567 257 260 -1 379 583 568 -1 249 583 379 -1 565 257 567 -1 565 566 257 -1 296 568 583 -1 296 380 568 -1 566 382 383 -1 565 382 566 -1 256 252 243 -1 253 252 256 -1 247 376 245 -1 247 248 376 -1 247 584 249 -1 247 246 584 -1 239 244 237 -1 239 242 244 -1 228 147 146 -1 228 230 147 -1 224 203 549 -1 224 226 203 -1 562 546 542 -1 562 563 546 -1 564 222 544 -1 564 221 222 -1 392 224 563 -1 392 225 224 -1 393 222 223 -1 222 393 562 -1 220 216 221 -1 220 217 216 -1 147 113 121 -1 147 219 113 -1 419 212 231 -1 419 213 212 -1 208 129 211 -1 197 129 208 -1 394 417 561 -1 394 395 417 -1 558 394 561 -1 558 560 394 -1 559 561 396 -1 559 558 561 -1 550 560 558 -1 550 0 560 -1 559 564 552 -1 390 564 559 -1 205 116 195 -1 205 207 116 -1 557 194 403 -1 557 206 194 -1 556 539 555 -1 539 556 540 -1 557 554 553 -1 556 554 557 -1 551 0 550 -1 0 551 555 -1 399 548 547 -1 553 548 399 -1 551 545 554 -1 551 543 545 -1 202 549 203 -1 547 549 202 -1 542 548 545 -1 542 546 548 -1 544 552 564 -1 552 544 543 -1 496 200 201 -1 496 497 200 -1 199 498 541 -1 498 199 198 -1 541 197 208 -1 541 111 197 -1 199 191 193 -1 191 199 210 -1 540 436 539 -1 540 439 436 -1 2 189 190 -1 435 189 2 -1 510 530 513 -1 510 537 530 -1 511 535 538 -1 508 535 511 -1 507 534 536 -1 504 534 507 -1 537 463 530 -1 537 464 463 -1 538 451 460 -1 535 451 538 -1 455 536 534 -1 455 452 536 -1 8 134 500 -1 8 10 134 -1 185 499 186 -1 185 444 499 -1 441 187 501 -1 441 184 187 -1 532 445 443 -1 532 440 445 -1 442 183 438 -1 182 183 442 -1 179 515 176 -1 515 179 135 -1 514 174 516 -1 514 531 174 -1 459 405 178 -1 459 456 405 -1 177 531 465 -1 531 177 174 -1 448 533 502 -1 448 449 533 -1 172 447 415 -1 172 173 447 -1 132 171 170 -1 132 169 171 -1 432 437 446 -1 432 434 437 -1 7 166 168 -1 5 166 7 -1 148 162 512 -1 163 162 148 -1 528 509 506 -1 527 509 528 -1 505 153 138 -1 505 151 153 -1 527 503 509 -1 527 526 503 -1 142 163 148 -1 518 163 142 -1 161 529 412 -1 529 161 520 -1 527 524 523 -1 527 528 524 -1 522 151 526 -1 152 151 522 -1 153 517 525 -1 517 153 150 -1 139 149 410 -1 139 141 149 -1 192 116 117 -1 192 402 116 -1 219 145 144 -1 145 219 230 -1 159 529 160 -1 524 529 159 -1 156 522 523 -1 522 156 155 -1 152 154 150 -1 152 157 154 -1 143 518 142 -1 518 143 521 -1 150 158 517 -1 150 154 158 -1 520 160 529 -1 520 519 160 -1 135 409 515 -1 135 137 409 -1 411 514 516 -1 514 411 512 -1 513 164 510 -1 513 162 164 -1 511 506 508 -1 511 413 506 -1 509 504 507 -1 504 509 503 -1 406 138 136 -1 406 505 138 -1 502 454 458 -1 502 533 454 -1 170 133 132 -1 133 170 466 -1 533 457 454 -1 533 501 457 -1 187 453 450 -1 187 186 453 -1 500 131 462 -1 500 134 131 -1 145 231 212 -1 145 230 231 -1 401 498 497 -1 112 498 401 -1 115 123 122 -1 115 114 123 -1 496 120 119 -1 496 400 120 -1 104 13 105 -1 11 13 104 -1 420 213 419 -1 213 420 232 -1 101 351 214 -1 418 351 101 -1 303 108 107 -1 303 302 108 -1 100 95 98 -1 100 421 95 -1 89 472 87 -1 476 472 89 -1 495 494 493 -1 494 495 281 -1 360 366 362 -1 366 360 284 -1 358 364 363 -1 358 80 364 -1 492 277 491 -1 492 275 277 -1 69 78 79 -1 69 68 78 -1 278 280 276 -1 278 490 280 -1 72 361 365 -1 361 72 74 -1 69 34 70 -1 286 34 69 -1 38 359 42 -1 38 285 359 -1 489 487 486 -1 487 489 488 -1 348 63 65 -1 348 66 63 -1 41 484 272 -1 41 485 484 -1 53 83 82 -1 53 274 83 -1 481 354 353 -1 354 481 580 -1 60 354 580 -1 60 59 354 -1 367 298 387 -1 282 298 367 -1 353 480 482 -1 353 352 480 -1 581 489 579 -1 483 489 581 -1 51 273 52 -1 478 273 51 -1 479 48 39 -1 49 48 479 -1 264 44 266 -1 45 44 264 -1 46 311 346 -1 311 46 312 -1 271 35 370 -1 36 35 271 -1 475 323 342 -1 475 427 323 -1 476 473 472 -1 474 473 476 -1 425 30 32 -1 424 30 425 -1 27 355 471 -1 27 29 355 -1 470 431 430 -1 431 470 469 -1 372 312 43 -1 372 310 312 -1 468 18 350 -1 19 18 468 -1 17 15 20 -1 16 15 17 -1 295 105 13 -1 295 336 105 -1 177 414 175 -1 414 177 466 -1 463 133 465 -1 133 463 131 -1 461 464 460 -1 462 464 461 -1 458 456 459 -1 454 456 458 -1 457 452 455 -1 450 452 457 -1 180 441 449 -1 182 441 180 -1 446 448 447 -1 408 448 446 -1 10 168 169 -1 168 10 7 -1 445 8 444 -1 9 8 445 -1 442 185 184 -1 443 185 442 -1 5 189 166 -1 5 4 189 -1 440 402 192 -1 402 440 532 -1 166 435 167 -1 166 189 435 -1 532 196 402 -1 438 196 532 -1 439 183 181 -1 439 404 183 -1 165 434 432 -1 167 434 165 -1 1 435 2 -1 1 433 435 -1' creaseAngle='1.571'>
            <Coordinate DEF='rradius_Coord' point='-8.0162 35.8971 -0.8648 -8.0129 36.0212 -0.9224 -8.0208 36.006 -0.9466 -7.8327 36.2605 -1.2891 -7.9537 36.2061 -1.2443 -7.9621 36.2591 -1.2772 -7.8291 36.2006 -1.2662 -7.9841 36.3704 -1.371 -7.8305 36.4184 -1.388 -7.8328 36.3702 -1.352 -7.9944 36.4118 -1.4161 -7.6616 32.2188 0.838 -7.5684 31.3933 1.1826 -7.5815 31.3845 1.1721 -7.7307 31.587 1.6211 -7.6293 30.8518 2.0083 -7.597 30.8557 2.0122 -7.5619 30.5913 2.146 -7.5644 30.287 2.3603 -7.5267 30.2945 2.3696 -7.5996 30.5862 2.1471 -7.6604 31.5828 1.6109 -7.5722 30.844 2.0051 -7.5408 30.8264 1.9788 -7.7351 29.3183 2.1363 -7.7256 29.296 2.2629 -7.7459 29.4066 2.1173 -7.7192 29.4487 1.9883 -7.674 29.3923 1.8921 -7.7164 29.3968 2.0102 -7.7987 29.5252 2.0923 -7.7534 29.4186 2.1253 -7.7855 29.4335 2.1488 -7.755 29.5137 2.0676 -7.431 29.2816 2.8703 -7.3515 29.3431 2.8845 -7.3875 29.358 2.9052 -7.3964 29.2695 2.8395 -7.2839 29.333 2.7521 -7.0438 29.3865 2.3859 -7.1223 29.4229 2.5721 -7.1026 29.3321 2.3583 -7.1808 29.3639 2.5735 -7.4239 29.9358 2.6696 -7.3369 29.8567 2.754 -7.363 29.9307 2.6745 -7.4247 29.8281 2.7575 -7.192 29.6292 2.6783 -7.1269 29.5022 2.5404 -7.1282 29.5458 2.5188 -7.2016 29.5743 2.6993 -6.964 29.3243 1.9925 -6.9541 29.2901 2.0138 -6.98 29.2898 1.9623 -6.9944 29.3091 1.9436 -7.5317 29.6962 1.7197 -7.5184 29.9466 1.6759 -7.5033 29.6883 1.7152 -7.5467 29.5424 1.7305 -7.5213 29.3926 1.76 -7.5524 29.3905 1.7609 -7.5176 29.541 1.7234 -7.5694 29.2135 2.6181 -7.6745 29.2325 2.4921 -7.6424 29.2089 2.4205 -7.6235 29.2225 2.6582 -7.6847 29.2586 2.5114 -7.6737 29.2761 2.4334 -7.4852 29.2341 2.7799 -7.4805 29.236 2.7821 -7.4932 29.2464 2.7958 -7.5048 29.2257 2.7593 -7.4118 29.3558 2.534 -7.4363 29.3195 2.5968 -7.4559 29.3382 2.5043 -7.0924 29.2979 1.9175 -7.1642 29.3717 1.8841 -7.0461 29.2921 1.9318 -7.4618 29.2788 2.6414 -7.4158 29.2987 2.6587 -7.3614 29.3731 2.5578 -7.0435 29.2785 1.9509 -7.0088 29.2816 1.9407 -6.9897 29.2502 2.0359 -7.335 29.5906 1.7778 -7.2488 29.4706 1.8369 -7.3084 29.4543 1.8211 -7.7477 29.3117 2.2994 -7.7009 29.2554 2.3409 -7.7491 29.3234 2.3263 -7.8126 29.6585 2.1713 -7.8023 29.6732 2.2036 -7.8153 29.8694 2.1077 -7.7908 29.8399 2.0372 -7.7272 29.5964 1.9555 -7.7294 29.8011 1.9184 -7.7171 29.591 1.932 -7.7406 29.31 2.2733 -7.7414 29.603 2.0047 -7.7438 29.5059 2.06 -7.7495 29.6129 2.0167 -7.9804 34.0028 0.1478 -7.8793 34.6491 -0.3532 -7.8501 33.9328 0.0601 -7.6867 32.2133 0.828 -7.6006 31.3759 1.1682 -7.6256 31.3675 1.1707 -7.906 31.4254 1.3751 -7.9909 32.3336 0.9815 -7.7868 31.3846 1.2568 -7.8214 32.2579 0.909 -7.6685 35.5186 -0.9922 -7.638 35.5286 -0.9688 -7.6622 35.4035 -0.842 -7.576 35.8493 -1.0264 -7.5886 35.8376 -1.0381 -7.6174 36.0072 -1.0762 -7.6585 35.9689 -1.1438 -7.6166 35.8136 -1.0614 -7.6066 35.5608 -0.9068 -7.5941 35.5708 -0.8945 -7.5816 35.4525 -0.7963 -7.5481 35.7373 -0.9735 -7.5299 35.7588 -0.9548 -7.5208 35.6126 -0.8626 -7.5429 35.5981 -0.8816 -7.8148 35.3971 -0.8729 -7.7975 35.3978 -0.8732 -7.8004 34.991 -0.6042 -7.8246 35.5046 -0.9565 -7.8404 35.5062 -0.9499 -8.0097 36.4631 -1.5024 -8.1573 36.5101 -1.3718 -8.1728 36.5218 -1.3897 -8.0056 36.445 -1.4665 -8.2241 36.9081 -1.1089 -8.0629 36.9349 -0.9991 -8.2082 36.9157 -1.1244 -8.0524 36.937 -1.0263 -8.0777 36.7695 -1.2895 -7.9936 36.7543 -1.3039 -8.0753 36.7588 -1.3085 -8.0372 36.7407 -1.3711 -7.9805 36.7518 -1.3258 -7.7264 35.3872 -0.857 -7.7571 35.0048 -0.5957 -7.5215 35.5084 -0.7338 -7.601 35.3186 -0.7101 -8.1446 36.7375 -1.4298 -8.2055 36.785 -1.3395 -7.9904 36.8031 -1.2028 -7.8991 36.8794 -1.0918 -7.931 36.7997 -1.2114 -8.0226 36.9047 -1.0991 -7.965 36.7692 -1.2683 -7.9359 36.7666 -1.2748 -7.919 36.7565 -1.2911 -7.9449 36.7681 -1.2712 -7.9866 36.7695 -1.2755 -7.9097 36.7505 -1.3134 -7.9179 36.7457 -1.3248 -7.8503 36.718 -1.4875 -8.0327 36.6963 -1.5482 -8.0157 36.7105 -1.4999 -7.8087 36.6922 -1.5365 -8.1334 36.4598 -1.2163 -8.0629 36.314 -1.2124 -8.0815 36.3406 -1.1509 -8.0942 36.4238 -1.2763 -8.1145 36.4665 -1.3152 -8.2263 36.5755 -1.2727 -8.1642 36.5103 -1.2406 -8.2416 36.6312 -1.1789 -8.147 36.5522 -1.1742 -8.2819 36.6848 -1.3223 -8.2766 36.6709 -1.1953 -8.2903 36.7546 -1.2059 -8.2548 36.6079 -1.3025 -8.0793 36.8934 -0.9522 -8.2183 36.8467 -1.0534 -7.9081 36.6016 -0.9498 -7.9378 36.4775 -0.9511 -7.7932 36.563 -0.9912 -7.8092 36.4541 -0.9622 -7.6716 36.5561 -1.111 -7.6517 36.4991 -1.2523 -7.5996 36.5729 -1.2437 -7.6273 36.6482 -1.1067 -7.9172 35.9171 -1.1192 -8.0492 36.2584 -1.1848 -8.0048 35.9691 -1.031 -7.8012 35.9143 -1.1793 -7.7352 36.227 -1.2245 -7.7068 35.95 -1.1651 -7.6334 36.1312 -0.8742 -7.5891 36.0682 -1.0013 -7.6874 36.3364 -1.0368 -7.761 35.5019 -0.9842 -7.6687 35.745 -1.1446 -7.6964 35.7433 -1.1633 -7.6563 35.7525 -1.1307 -7.6286 35.7999 -1.0758 -7.5065 35.678 -0.7534 -7.511 35.5528 -0.6748 -7.4977 35.6341 -0.8113 -7.5279 35.9261 -0.9161 -7.6155 36.0181 -0.7901 -7.5418 35.8871 -0.9856 -7.7902 35.6429 -1.1195 -7.8496 35.7411 -1.1251 -7.8035 35.7391 -1.1569 -7.8509 35.6498 -1.0621 -7.7808 34.6453 -0.3864 -7.7443 33.9219 -0.0259 -7.9996 34.0276 0.1833 -7.9974 34.0734 0.2552 -8.0153 34.783 -0.1506 -7.9597 34.7137 -0.2434 -7.8667 34.998 -0.5586 -7.6543 35.293 -0.7458 -7.9728 35.0468 -0.4886 -8.016 35.1194 -0.3856 -7.9733 35.2111 -0.3085 -7.9566 34.8549 -0.0734 -7.623 35.2246 -0.3015 -7.624 34.8589 -0.0722 -7.5666 35.1729 -0.3781 -7.586 34.8033 -0.1474 -7.571 35.0994 -0.4592 -7.6075 34.7545 -0.2444 -7.638 35.0631 -0.5459 -7.6574 34.7166 -0.3583 -7.7325 33.1574 0.3079 -7.8615 33.2137 0.443 -8.0344 33.3497 0.6366 -7.9704 34.1334 0.3512 -7.9735 33.3787 0.7437 -7.7417 34.1726 0.4438 -7.8804 33.4305 0.7725 -7.7411 33.4127 0.7764 -7.864 34.1976 0.4096 -7.6428 34.1168 0.2391 -7.6922 33.3975 0.7398 -7.6898 33.3513 0.6482 -7.6246 34.1427 0.3718 -7.2641 29.6024 1.8249 -7.3842 29.7226 1.755 -7.3364 29.7673 1.808 -7.3109 29.7911 1.8474 -7.3916 30.011 1.7688 -7.0305 29.418 1.9469 -7.0902 29.386 1.9014 -7.6862 33.2812 0.5091 -7.6292 32.3272 0.9856 -7.6266 32.3066 0.9345 -7.6964 32.4477 1.2029 -7.6274 32.3987 1.1093 -7.4573 30.5477 2.0466 -7.4947 30.5758 2.0968 -7.4434 30.2174 2.2753 -7.4303 30.1863 2.2007 -7.1778 29.6026 2.507 -7.213 29.7106 2.6342 -7.3792 29.9876 2.5777 -7.3267 29.9238 2.6615 -7.4132 30.0028 2.6047 -7.2722 29.837 2.7244 -7.2561 29.695 2.7992 -7.331 29.7019 2.8385 -7.4271 29.6764 2.8435 -7.4019 29.4646 2.9106 -7.3499 29.4667 2.8997 -6.9674 29.2736 2.171 -6.9611 29.3134 2.1976 -6.9643 29.2637 2.0358 -7.2284 29.3534 2.3012 -7.2632 29.3217 2.0978 -7.1463 29.3319 2.0915 -7.3238 29.3569 2.263 -7.3312 29.2562 1.9438 -7.3096 29.3068 2.0843 -7.3887 29.2442 2.0351 -7.2548 29.2817 1.9349 -7.6251 29.1997 2.4175 -7.5624 29.2716 2.4521 -7.2966 29.3241 2.7272 -7.421 29.2573 2.8249 -7.3776 29.3059 2.6816 -7.7048 30.2718 1.6961 -7.6751 29.9523 1.7835 -7.7184 29.9741 1.8371 -7.6675 29.7719 1.8193 -7.6794 29.5706 1.8342 -7.6004 29.5537 1.7581 -7.614 29.3981 1.79 -7.5068 30.5529 1.5286 -7.4851 30.5984 1.5483 -7.3942 29.3095 1.8451 -7.2575 29.2924 1.9089 -7.3356 29.2643 1.9148 -7.2662 29.3451 1.8769 -7.9186 31.515 1.4506 -8.0073 32.351 1.0196 -7.9223 31.457 1.4105 -7.9863 32.385 1.055 -7.9028 32.412 1.1894 -7.8084 31.5924 1.5638 -7.787 32.4503 1.2332 -7.6446 30.5733 2.1322 -7.606 30.2575 2.3246 -7.4875 29.9838 2.6196 -7.6239 29.8905 2.5831 -7.4743 29.9316 2.6561 -7.6837 29.3132 2.5174 -7.618 30.062 2.449 -7.7325 30.1919 2.2155 -7.7127 29.9912 2.3275 -7.6344 29.7158 2.6618 -7.6959 29.6152 2.5162 -7.6971 29.5174 2.5937 -7.5994 29.5839 2.7264 -7.7382 29.3865 2.4077 -7.7418 29.5465 2.3989 -7.7722 29.5181 2.3357 -7.7315 29.4228 2.4539 -7.7874 30.0532 2.0499 -7.7812 30.123 2.0955 -7.8054 30.414 1.9416 -7.7265 30.5063 1.5938 -7.8181 30.6134 1.7079 -7.6267 29.1741 2.3212 -7.6063 29.1761 2.3347 -7.731 29.3744 2.3719 -7.6741 29.2665 2.4053 -7.7954 30.3094 1.8338 -7.8536 30.6853 1.8087 -7.5473 30.5437 1.5159 -7.6074 30.504 1.5405 -7.5343 30.284 1.5954 -7.6004 30.2646 1.6312 -7.825 29.651 2.1282 -7.761 29.9201 2.205 -7.7938 29.6294 2.2408 -7.7547 29.7245 2.3072 -7.7678 30.5194 2.0274 -7.8022 30.7776 1.8632 -7.5729 29.7556 2.7095 -7.5428 29.4117 2.7924 -7.6364 29.2439 2.6686 -7.6547 29.3815 2.6565 -7.5379 30.1055 2.4946 -8.0268 33.3229 0.5914 -7.3833 29.2337 1.9122 -7.4572 29.1471 1.8868 -7.5066 29.2396 1.8119 -7.7209 29.3978 2.0375 -7.7286 29.2898 2.14 -7.5948 29.9237 1.7149 -7.3317 29.3602 2.5918 -7.1991 29.3518 2.5601 -7.525 29.3067 2.4423 -7.4474 29.3419 2.4537 -7.5116 29.2937 2.3798 -7.2754 29.3736 2.5063 -7.32 29.3757 2.4817 -7.4007 29.36 2.4653 -7.5519 29.2606 2.3748 -7.2026 29.2891 1.9335 -7.0987 29.2858 1.9387 -7.0097 29.3005 1.9276 -7.3075 29.4633 2.8743 -7.2096 29.4368 2.756 -7.4486 29.9997 2.6184 -7.2263 29.6324 2.2251 -7.2626 29.7405 2.4262 -7.1057 29.5133 2.3169 -7.2311 29.6564 1.8798 -7.2583 29.6834 2.0626 -7.3293 29.8438 1.997 -7.3741 30.0557 1.912 -7.4501 30.6783 1.6483 -7.5461 31.4527 1.3238 -7.5575 31.4865 1.4279 -7.6089 31.561 1.535 -7.6993 33.2223 0.4107 -7.1529 29.5467 1.9245 -7.1891 29.4869 1.8527 -7.2029 29.301 1.9084 -7.6731 34.0366 0.1421 -7.8846 35.3789 -0.8525 -7.9738 35.4175 -0.7361 -7.6955 33.9851 0.0607 -7.7415 34.8989 -0.0166 -7.8501 34.902 -0.0087 -7.898 35.7467 -1.0833 -7.8639 35.7423 -1.1139 -7.8881 35.514 -0.9312 -7.5139 35.8006 -0.9125 -7.5055 35.8477 -0.8514 -7.6044 35.9193 -0.7344 -7.5906 35.7226 -1.0054 -7.627 35.5358 -0.9533 -7.6778 36.2722 -1.1422 -7.7746 36.182 -0.799 -7.8096 36.3966 -0.9374 -7.8966 36.8643 -0.9236 -7.8931 36.9039 -0.9829 -8.2116 36.793 -1.0259 -7.9654 36.589 -0.9839 -8.2641 36.8458 -1.2563 -8.2082 36.8231 -1.2608 -8.2537 36.7859 -1.3482 -7.7848 36.7252 -1.4375 -7.7145 36.7097 -1.4782 -8.2622 36.647 -1.184 -8.1952 36.7486 -1.0108 -8.2048 36.7675 -1.0154 -7.8656 35.6548 -1.0544 -8.0044 33.2985 0.5545 -7.718 33.9336 -0.0207 -7.7123 33.1633 0.3122 -7.7404 29.8065 1.9353 -7.7934 29.6242 2.0452 -7.8047 29.6281 2.0613 -7.8138 29.5297 2.1063 -7.8044 29.4385 2.1607 -7.8256 29.6406 2.1033 -7.7828 29.4954 2.3106 -7.4811 29.545 1.733 -7.5314 30.5886 2.1288 -7.486 30.2847 2.3582 -7.4567 30.2625 2.331 -8.1133 36.5035 -1.1608 -8.0503 36.3083 -1.0762 -8.0643 36.3643 -1.1026 -8.0676 36.2848 -1.1239 -7.9971 36.3751 -0.987 -8.0096 36.4336 -1.0078 -7.6918 36.3913 -1.066 -7.9332 36.4184 -0.9316 -7.7397 36.2858 -1.2475 -7.7789 36.6236 -0.9928 -7.6865 36.4966 -1.1014 -7.6711 36.4451 -1.2236 -7.7237 36.4495 -1.3417 -7.7343 36.3992 -1.3067 -8.0546 36.5743 -1.0396 -8.0851 36.6276 -1.041 -7.9857 36.647 -0.9825 -7.9024 36.6641 -0.9407 -7.6096 36.6811 -1.1122 -7.5739 36.6209 -1.2777 -7.6019 36.7087 -1.1217 -7.5829 36.5939 -1.2613 -7.9033 36.7987 -0.9013 -7.7295 36.7992 -0.9716 -7.9013 36.8278 -0.9073 -7.7333 36.7648 -0.9642 -8.0646 36.8196 -0.928 -8.0669 36.8528 -0.9332 -7.6747 36.5378 -1.4269 -7.6856 36.5124 -1.4066 -7.816 36.4729 -1.4886 -8.0136 36.4874 -1.5255 -7.8125 36.495 -1.513 -8.1829 36.543 -1.4085 -8.2427 36.587 -1.2862 -7.4807 30.3071 1.6065 -7.4998 30.1142 2.5008 -7.4324 30.0912 2.4619 -7.4646 30.1094 2.49 -7.7266 29.4684 2.007 -7.8215 29.4513 2.1915 -7.8328 29.5423 2.1427 -7.8333 29.556 2.1691 -7.8031 29.6068 2.2152 -7.8231 29.4683 2.2195 -7.2752 29.8086 2.5248 -6.9675 29.3548 2.1842 -7.0483 29.4308 2.3664 -7.3811 29.2241 1.9411 -7.4796 29.1478 1.8807 -7.4608 29.1312 1.9135 -7.4841 29.1296 1.9035 -6.9873 29.2628 2.165 -7.1205 29.3199 2.3533 -7.5987 29.1489 2.1702 -7.5755 29.1491 2.1768 -7.5125 29.1296 2.0354 -7.5358 29.1277 2.0251 -7.3683 29.3428 2.2466 -7.1004 29.3224 2.1101 -7.1824 29.344 2.322 -7.4978 29.2403 2.2036 -7.4605 29.2751 2.2162 -7.4245 29.2097 2.0175 -7.6093 35.709 -1.0293 -7.6335 35.6787 -1.093 -7.6475 35.6644 -1.1061 -7.7033 36.4929 -1.3839 -7.8212 36.4585 -1.4504 -7.7425 36.7287 -0.9669 -8.0586 36.789 -0.9312 -7.7748 36.8783 -1.0514 -7.7631 36.8742 -1.0304 -7.8934 36.9057 -1.003 -7.6359 36.7545 -1.3543 -7.6301 36.8017 -1.1819 -7.6015 36.7291 -1.3463 -7.654 36.8136 -1.1979 -7.7996 36.6422 -1.567 -7.6778 36.665 -1.4844 -8.1899 36.7347 -1.4639 -8.0428 36.6436 -1.5769 -8.2194 36.6946 -1.4683 -8.2971 36.8208 -1.2356 -8.2881 36.7566 -1.3418 -8.0471 36.8001 -1.2299 -7.9877 36.7302 -1.406 -7.9289 36.7443 -1.3362 -7.8834 36.7289 -1.4044 -7.9651 36.7457 -1.3406 -7.9041 36.7953 -1.222 -7.854 36.7652 -1.2706 -7.8345 36.7478 -1.3344 -8.1558 36.8836 -1.1555 -7.8196 36.858 -1.1199 -7.7382 36.8035 -1.2268 -7.7257 36.7542 -1.3447 -7.8508 36.7333 -1.3705 -8.0232 36.5644 -1.561 -8.2179 36.6263 -1.4356 -7.6833 36.3287 -1.1683 -7.9032 36.7735 -0.9038 -7.7415 36.8264 -0.9784 -7.5719 36.6732 -1.3015 -7.6034 36.7324 -1.1354 -7.8073 36.5617 -1.548 -7.666 36.6024 -1.4641 -7.9735 36.1012 -0.8495 -7.8942 36.1576 -0.786 -7.6841 35.6423 -1.1214 -7.8675 35.6897 -0.4638 -7.997 35.7607 -0.6203 -7.9851 35.6152 -0.5234 -7.8772 35.8191 -0.5434 -7.7238 35.6846 -0.4768 -7.5972 35.7498 -0.6286 -7.7305 35.7994 -0.5566 -7.5939 35.6319 -0.5562 -8.0231 35.7887 -0.8074 -7.9783 35.8807 -0.7153 -8.0357 35.6803 -0.7454 -7.7332 35.957 -0.6638 -7.8654 35.9596 -0.6453 -7.9735 35.9802 -0.7846 -7.8635 36.052 -0.7049 -7.7407 36.0579 -0.7181 -7.9956 35.6999 -0.9114 -7.9923 35.5905 -0.8421 -7.992 35.815 -0.9663 -7.8907 35.6361 -1.0214 -7.8488 35.2576 -0.2215 -7.7357 35.2672 -0.2462 -8.0291 35.5133 -0.6201 -7.4596 30.7397 1.7713 -7.5053 30.8018 1.9199 -7.4135 30.4664 1.8757 -7.4132 30.4053 1.7771 -7.3772 30.0876 2.012 -7.353 29.8914 2.1107 -7.4 30.0289 2.3753 -7.3774 29.9644 2.2854 -7.2863 29.7095 2.1961 -7.3223 29.8891 2.4767 -7.3076 29.8114 2.3688 -7.1983 29.5915 2.0791 -7.0352 29.4572 2.1351 -7.5887 29.7408 1.7446 -7.668 29.2508 1.9578 -7.5368 29.229 1.8156 -7.5771 29.2257 1.8375 -7.4479 29.4113 1.7898 -7.4363 30.3339 1.6567 -7.4421 29.9501 1.6969 -7.6689 30.8322 1.9932 -7.547 29.6327 2.7935 -7.4762 29.4476 2.8703 -7.7194 29.8017 2.4185 -7.7886 30.0084 1.9664'/>
          </IndexedFaceSet>
        </Shape>
        <Shape DEF='rulna'>
          <Appearance>
            <Material ambientIntensity='0.098' diffuseColor='1 0.9765 0.8667' emissiveColor='0 1 0.5' shininess='0.05' specularColor='0.349 0.349 0.349'/>
          </Appearance>
          <IndexedFaceSet DEF='rulna_Geo' coordIndex='0 1 2 -1 3 4 5 -1 5 6 3 -1 7 8 9 -1 10 11 12 -1 12 13 10 -1 14 15 16 -1 15 17 18 -1 19 20 21 -1 22 23 24 -1 25 26 27 -1 25 28 26 -1 29 30 31 -1 29 32 30 -1 33 34 35 -1 33 36 34 -1 37 38 39 -1 40 41 42 -1 41 43 42 -1 44 45 46 -1 47 48 49 -1 47 50 48 -1 51 52 53 -1 54 55 56 -1 53 57 51 -1 58 59 60 -1 61 62 63 -1 64 65 62 -1 65 63 62 -1 66 67 68 -1 61 6 62 -1 69 62 6 -1 69 70 62 -1 71 72 73 -1 74 75 76 -1 74 77 75 -1 78 79 80 -1 78 81 79 -1 82 83 84 -1 85 86 87 -1 85 88 86 -1 89 9 8 -1 90 91 92 -1 93 94 95 -1 94 96 95 -1 97 98 99 -1 100 101 102 -1 103 104 105 -1 103 106 104 -1 107 108 109 -1 107 106 108 -1 110 111 112 -1 110 113 111 -1 114 115 116 -1 114 117 115 -1 96 114 116 -1 96 118 114 -1 119 120 121 -1 122 123 124 -1 122 125 123 -1 126 127 128 -1 127 129 128 -1 123 125 130 -1 131 31 132 -1 132 133 131 -1 134 135 136 -1 137 138 139 -1 140 39 38 -1 38 141 140 -1 71 142 143 -1 144 145 146 -1 147 148 149 -1 147 150 148 -1 151 152 4 -1 151 153 152 -1 154 155 47 -1 155 156 47 -1 157 158 159 -1 157 160 158 -1 161 40 37 -1 37 39 161 -1 162 163 39 -1 39 140 162 -1 82 164 165 -1 83 166 167 -1 83 168 166 -1 169 170 171 -1 172 173 174 -1 175 176 177 -1 152 5 4 -1 178 68 67 -1 179 180 181 -1 179 182 180 -1 183 68 178 -1 178 79 183 -1 184 185 186 -1 185 187 186 -1 188 85 189 -1 190 87 86 -1 190 191 87 -1 192 193 194 -1 195 196 197 -1 198 165 164 -1 199 200 137 -1 200 201 137 -1 202 203 204 -1 203 205 204 -1 133 132 206 -1 132 207 206 -1 158 208 159 -1 208 209 159 -1 210 211 212 -1 213 214 215 -1 216 217 218 -1 218 219 216 -1 220 221 222 -1 223 224 225 -1 226 227 228 -1 226 229 227 -1 230 231 232 -1 231 73 232 -1 233 44 46 -1 154 49 234 -1 154 47 49 -1 89 235 236 -1 46 7 237 -1 46 45 7 -1 238 239 240 -1 241 242 243 -1 244 245 246 -1 242 247 248 -1 249 76 250 -1 251 252 253 -1 253 254 251 -1 255 256 257 -1 255 258 256 -1 4 259 260 -1 4 3 259 -1 261 214 262 -1 261 263 214 -1 83 188 84 -1 264 265 56 -1 266 159 209 -1 266 267 159 -1 268 225 150 -1 268 269 225 -1 270 271 272 -1 271 273 272 -1 253 252 255 -1 255 257 253 -1 274 275 13 -1 13 12 274 -1 276 77 74 -1 277 278 279 -1 277 280 278 -1 281 282 283 -1 281 284 282 -1 285 286 287 -1 285 288 286 -1 289 259 3 -1 3 290 289 -1 137 139 199 -1 139 291 199 -1 292 293 42 -1 293 294 42 -1 295 296 297 -1 296 298 297 -1 299 300 301 -1 299 302 300 -1 303 17 304 -1 303 305 17 -1 134 65 306 -1 134 63 65 -1 307 308 309 -1 308 310 309 -1 311 312 313 -1 314 315 316 -1 314 317 315 -1 318 319 320 -1 318 321 319 -1 322 21 323 -1 322 22 21 -1 324 325 326 -1 324 98 325 -1 98 97 325 -1 327 101 100 -1 328 329 330 -1 328 331 329 -1 332 326 325 -1 332 130 326 -1 333 334 335 -1 334 336 335 -1 2 337 0 -1 338 339 340 -1 114 341 342 -1 343 279 344 -1 345 346 347 -1 348 349 350 -1 348 351 349 -1 352 353 354 -1 354 355 352 -1 356 357 168 -1 357 166 168 -1 358 300 359 -1 300 360 359 -1 295 212 211 -1 295 361 212 -1 266 209 210 -1 210 362 266 -1 186 187 58 -1 58 268 186 -1 363 218 303 -1 363 364 218 -1 365 50 236 -1 365 48 50 -1 366 136 135 -1 367 278 368 -1 197 369 370 -1 369 371 370 -1 372 298 373 -1 372 297 298 -1 13 374 375 -1 13 275 374 -1 344 376 377 -1 377 343 344 -1 95 116 378 -1 116 115 378 -1 379 380 381 -1 382 383 384 -1 384 385 382 -1 386 387 388 -1 387 389 388 -1 390 91 391 -1 272 392 270 -1 320 27 318 -1 320 25 27 -1 393 26 28 -1 393 394 26 -1 350 395 348 -1 350 396 395 -1 397 398 399 -1 397 400 398 -1 399 401 402 -1 399 398 401 -1 403 404 405 -1 403 406 404 -1 307 407 308 -1 307 408 407 -1 402 20 409 -1 402 401 20 -1 410 411 409 -1 412 413 414 -1 412 415 413 -1 416 417 418 -1 416 419 417 -1 420 334 333 -1 421 422 423 -1 424 333 335 -1 424 425 333 -1 426 425 424 -1 424 427 426 -1 428 429 430 -1 430 431 428 -1 432 433 434 -1 432 435 433 -1 436 387 386 -1 437 92 438 -1 437 90 92 -1 439 124 120 -1 120 440 439 -1 441 442 339 -1 441 443 442 -1 105 444 445 -1 105 104 444 -1 104 446 444 -1 104 447 446 -1 447 448 446 -1 360 302 351 -1 360 300 302 -1 394 449 26 -1 394 450 449 -1 242 451 247 -1 242 452 451 -1 453 454 75 -1 455 76 249 -1 455 456 76 -1 207 457 458 -1 41 263 261 -1 261 361 41 -1 352 459 460 -1 352 461 459 -1 462 463 464 -1 464 465 462 -1 464 143 465 -1 59 88 466 -1 164 467 468 -1 468 198 164 -1 469 470 471 -1 469 472 470 -1 220 473 221 -1 220 474 473 -1 5 69 6 -1 475 55 194 -1 475 476 55 -1 477 229 226 -1 226 182 477 -1 478 265 264 -1 479 480 481 -1 479 228 480 -1 357 208 158 -1 357 296 208 -1 482 87 191 -1 191 196 482 -1 189 85 87 -1 87 482 189 -1 483 484 485 -1 484 486 202 -1 284 487 488 -1 61 136 489 -1 459 461 490 -1 491 469 363 -1 492 493 494 -1 492 213 493 -1 495 494 493 -1 495 18 494 -1 175 496 176 -1 496 355 176 -1 461 496 154 -1 496 155 154 -1 497 9 156 -1 497 7 9 -1 244 498 499 -1 499 245 244 -1 131 451 500 -1 500 501 131 -1 502 503 504 -1 502 505 503 -1 96 116 95 -1 506 129 507 -1 507 508 509 -1 506 128 129 -1 509 510 511 -1 512 329 331 -1 331 513 512 -1 379 439 514 -1 514 380 379 -1 515 516 440 -1 515 517 516 -1 92 91 390 -1 432 518 519 -1 519 435 432 -1 337 2 102 -1 520 521 522 -1 523 521 520 -1 520 524 523 -1 426 525 425 -1 426 526 525 -1 527 528 529 -1 527 530 528 -1 531 532 533 -1 531 431 532 -1 534 422 416 -1 422 421 416 -1 535 534 418 -1 534 416 418 -1 417 419 536 -1 334 537 538 -1 334 539 537 -1 409 19 410 -1 409 20 19 -1 535 408 307 -1 535 418 408 -1 315 538 537 -1 315 406 538 -1 406 315 317 -1 317 404 406 -1 399 402 310 -1 402 309 310 -1 540 321 541 -1 540 319 321 -1 542 543 544 -1 544 545 542 -1 546 77 232 -1 547 548 549 -1 547 283 548 -1 122 124 379 -1 124 439 379 -1 550 328 551 -1 328 552 551 -1 342 553 117 -1 117 114 342 -1 125 122 553 -1 527 554 424 -1 554 427 424 -1 113 555 93 -1 555 94 93 -1 109 112 111 -1 109 108 112 -1 556 557 558 -1 556 559 557 -1 382 560 383 -1 382 561 560 -1 381 562 379 -1 562 563 379 -1 505 502 561 -1 502 560 561 -1 79 151 80 -1 79 178 151 -1 211 208 295 -1 208 296 295 -1 201 564 138 -1 565 372 566 -1 565 297 372 -1 278 280 368 -1 280 567 368 -1 481 480 64 -1 64 70 481 -1 568 459 490 -1 568 474 459 -1 188 83 167 -1 167 466 188 -1 158 166 357 -1 158 160 166 -1 298 165 569 -1 298 570 165 -1 222 470 220 -1 360 351 571 -1 572 573 574 -1 575 391 576 -1 575 390 391 -1 331 577 513 -1 99 126 128 -1 578 126 98 -1 98 579 578 -1 527 424 335 -1 335 530 527 -1 580 313 312 -1 312 581 580 -1 332 582 123 -1 582 121 123 -1 340 575 576 -1 576 338 340 -1 102 2 100 -1 583 584 585 -1 583 586 584 -1 324 579 98 -1 114 327 341 -1 114 118 327 -1 389 380 587 -1 380 514 587 -1 588 516 517 -1 517 589 588 -1 389 387 380 -1 316 315 537 -1 537 412 316 -1 321 241 590 -1 321 318 241 -1 591 244 246 -1 591 239 244 -1 405 540 592 -1 405 404 540 -1 312 593 581 -1 594 364 471 -1 595 545 544 -1 595 596 545 -1 305 218 217 -1 305 303 218 -1 15 597 304 -1 304 17 15 -1 299 397 302 -1 297 598 295 -1 598 599 295 -1 600 601 602 -1 601 603 602 -1 42 43 292 -1 43 604 292 -1 81 78 605 -1 219 362 210 -1 259 289 270 -1 606 281 607 -1 35 281 606 -1 606 33 35 -1 608 10 609 -1 608 11 10 -1 272 286 610 -1 272 273 286 -1 222 223 611 -1 222 221 223 -1 612 54 613 -1 82 356 168 -1 254 614 251 -1 254 615 614 -1 41 40 263 -1 40 616 263 -1 259 392 260 -1 259 270 392 -1 258 255 617 -1 618 619 574 -1 250 252 251 -1 250 620 252 -1 498 621 499 -1 243 622 623 -1 248 243 242 -1 248 622 243 -1 590 498 244 -1 573 572 367 -1 572 278 367 -1 624 235 625 -1 49 543 234 -1 543 542 234 -1 367 368 626 -1 489 11 61 -1 73 142 71 -1 627 228 227 -1 224 223 473 -1 223 221 473 -1 213 628 493 -1 213 215 628 -1 16 15 18 -1 18 495 16 -1 230 629 34 -1 34 231 230 -1 630 160 157 -1 191 190 631 -1 85 188 466 -1 466 88 85 -1 149 148 632 -1 632 633 149 -1 81 605 634 -1 634 635 81 -1 170 182 179 -1 170 477 182 -1 311 636 312 -1 311 637 636 -1 291 566 485 -1 74 76 456 -1 633 51 149 -1 633 638 51 -1 147 144 146 -1 147 149 144 -1 171 639 54 -1 83 82 168 -1 356 570 357 -1 640 641 201 -1 161 616 40 -1 642 294 293 -1 293 643 642 -1 548 283 282 -1 173 145 174 -1 246 644 626 -1 246 245 644 -1 237 233 46 -1 237 591 233 -1 228 627 645 -1 645 646 228 -1 67 66 153 -1 647 200 199 -1 648 630 157 -1 54 169 171 -1 282 640 548 -1 282 641 640 -1 201 138 137 -1 306 649 134 -1 228 646 650 -1 130 332 123 -1 651 110 112 -1 652 105 653 -1 652 103 105 -1 326 125 553 -1 326 130 125 -1 99 98 126 -1 636 423 422 -1 390 1 0 -1 338 441 339 -1 89 8 45 -1 654 44 368 -1 570 82 165 -1 570 356 82 -1 88 59 86 -1 86 59 58 -1 81 183 79 -1 81 635 183 -1 77 546 75 -1 479 481 655 -1 655 66 479 -1 635 180 183 -1 635 181 180 -1 656 480 228 -1 70 64 62 -1 656 228 650 -1 476 657 56 -1 56 55 476 -1 145 51 57 -1 145 144 51 -1 149 51 144 -1 657 658 56 -1 56 658 264 -1 47 9 50 -1 47 156 9 -1 627 659 645 -1 276 601 230 -1 43 361 599 -1 43 41 361 -1 295 599 361 -1 138 292 604 -1 604 139 138 -1 598 565 139 -1 139 604 598 -1 297 565 598 -1 21 24 19 -1 21 22 24 -1 31 131 501 -1 501 29 31 -1 660 24 413 -1 451 452 500 -1 212 361 261 -1 18 305 494 -1 18 17 305 -1 492 216 262 -1 492 217 216 -1 495 30 16 -1 495 661 30 -1 12 489 662 -1 12 11 489 -1 663 664 662 -1 662 366 663 -1 279 278 572 -1 45 8 7 -1 0 92 390 -1 250 665 620 -1 250 454 665 -1 453 462 666 -1 453 463 462 -1 667 275 277 -1 667 374 275 -1 664 280 274 -1 280 664 567 -1 668 669 624 -1 668 663 669 -1 669 366 135 -1 669 663 366 -1 375 670 671 -1 672 670 375 -1 261 216 212 -1 261 262 216 -1 217 494 305 -1 217 492 494 -1 29 450 673 -1 29 501 450 -1 398 323 401 -1 323 398 674 -1 675 676 400 -1 676 675 677 -1 500 678 449 -1 500 452 678 -1 679 680 681 -1 679 682 680 -1 23 413 24 -1 23 414 413 -1 230 77 276 -1 232 77 230 -1 564 643 293 -1 564 683 643 -1 602 488 600 -1 602 684 488 -1 629 35 34 -1 35 629 487 -1 293 138 564 -1 138 293 292 -1 294 40 42 -1 40 294 37 -1 603 38 642 -1 603 141 38 -1 659 685 645 -1 659 595 685 -1 686 544 543 -1 687 544 686 -1 53 688 689 -1 53 52 688 -1 478 658 690 -1 478 264 658 -1 691 476 692 -1 657 476 691 -1 174 57 693 -1 174 145 57 -1 64 656 65 -1 64 480 656 -1 634 181 635 -1 634 694 181 -1 69 481 70 -1 655 481 69 -1 44 626 368 -1 233 626 44 -1 44 625 45 -1 625 44 654 -1 585 391 583 -1 391 585 576 -1 340 695 575 -1 578 695 340 -1 575 1 390 -1 695 1 575 -1 107 104 106 -1 107 447 104 -1 446 696 697 -1 696 446 448 -1 698 444 699 -1 698 445 444 -1 653 700 652 -1 700 653 701 -1 103 556 558 -1 103 652 556 -1 503 697 696 -1 503 505 697 -1 382 699 561 -1 698 699 382 -1 502 93 95 -1 502 504 93 -1 702 560 378 -1 702 383 560 -1 559 703 704 -1 703 559 384 -1 557 704 705 -1 704 557 559 -1 706 707 708 -1 555 707 706 -1 709 710 711 -1 709 712 710 -1 713 563 562 -1 563 713 714 -1 715 507 716 -1 715 508 507 -1 717 509 718 -1 717 510 509 -1 719 720 721 -1 720 719 511 -1 306 646 722 -1 646 306 650 -1 630 60 59 -1 648 60 630 -1 723 157 724 -1 723 648 157 -1 5 655 69 -1 5 152 655 -1 722 645 685 -1 645 722 646 -1 246 233 591 -1 246 626 233 -1 725 726 727 -1 725 728 726 -1 641 684 683 -1 282 684 641 -1 164 84 729 -1 164 82 84 -1 689 691 693 -1 690 691 689 -1 146 186 147 -1 146 184 186 -1 51 730 52 -1 638 730 51 -1 731 634 605 -1 634 731 732 -1 726 337 727 -1 726 637 337 -1 170 733 477 -1 169 733 170 -1 734 613 732 -1 734 612 613 -1 369 631 735 -1 631 369 191 -1 193 475 194 -1 475 193 371 -1 736 285 287 -1 737 285 736 -1 648 269 60 -1 269 648 723 -1 166 630 167 -1 630 166 160 -1 281 487 284 -1 35 487 281 -1 729 188 189 -1 729 84 188 -1 198 549 738 -1 198 739 549 -1 373 483 372 -1 373 484 483 -1 486 373 740 -1 373 486 484 -1 661 493 628 -1 493 661 495 -1 455 207 458 -1 206 207 455 -1 741 627 227 -1 741 742 627 -1 743 687 686 -1 744 687 743 -1 649 135 134 -1 649 745 135 -1 464 453 72 -1 464 463 453 -1 377 746 343 -1 465 746 377 -1 747 375 374 -1 672 375 747 -1 748 143 142 -1 748 749 143 -1 274 662 664 -1 662 274 12 -1 626 573 367 -1 573 626 644 -1 745 669 135 -1 745 750 669 -1 243 621 498 -1 623 621 243 -1 751 573 644 -1 574 573 751 -1 619 258 617 -1 619 618 258 -1 621 751 499 -1 752 751 621 -1 4 80 151 -1 4 260 80 -1 456 458 162 -1 456 455 458 -1 732 288 734 -1 731 288 732 -1 753 754 195 -1 467 754 753 -1 607 271 270 -1 607 547 271 -1 250 614 249 -1 251 614 250 -1 755 617 756 -1 755 619 617 -1 757 608 609 -1 757 36 608 -1 36 231 34 -1 36 757 231 -1 165 738 569 -1 165 198 738 -1 606 270 289 -1 270 606 607 -1 392 610 78 -1 610 392 272 -1 611 267 758 -1 724 267 611 -1 193 370 371 -1 193 737 370 -1 195 370 753 -1 195 197 370 -1 169 759 733 -1 265 759 169 -1 598 43 599 -1 598 604 43 -1 14 597 15 -1 14 358 597 -1 748 757 609 -1 142 757 748 -1 649 722 744 -1 306 722 649 -1 542 760 568 -1 542 545 760 -1 758 222 611 -1 758 470 222 -1 350 310 308 -1 350 349 310 -1 581 521 580 -1 581 522 521 -1 761 762 411 -1 593 762 761 -1 763 403 405 -1 764 403 763 -1 765 766 767 -1 768 766 765 -1 497 769 7 -1 770 769 497 -1 590 239 238 -1 590 244 239 -1 412 539 415 -1 412 537 539 -1 676 771 674 -1 393 771 676 -1 772 677 675 -1 673 677 772 -1 661 31 30 -1 31 661 132 -1 457 628 215 -1 457 207 628 -1 411 773 409 -1 411 762 773 -1 427 774 426 -1 427 388 774 -1 775 526 776 -1 777 526 775 -1 429 778 433 -1 429 428 778 -1 521 435 519 -1 521 523 435 -1 313 438 92 -1 313 580 438 -1 637 0 337 -1 637 311 0 -1 587 516 588 -1 587 514 516 -1 589 551 779 -1 589 517 551 -1 552 432 434 -1 432 552 780 -1 781 437 518 -1 437 781 586 -1 586 90 437 -1 586 583 90 -1 100 341 327 -1 100 579 341 -1 716 442 782 -1 716 127 442 -1 720 783 582 -1 720 717 783 -1 339 127 126 -1 339 442 127 -1 721 582 332 -1 720 582 721 -1 553 324 326 -1 342 324 553 -1 695 2 1 -1 100 2 695 -1 119 550 515 -1 577 550 119 -1 784 584 785 -1 784 443 584 -1 443 585 584 -1 443 441 585 -1 19 660 786 -1 19 24 660 -1 524 429 523 -1 524 430 429 -1 593 522 581 -1 761 522 593 -1 335 536 530 -1 536 335 336 -1 582 119 121 -1 119 582 783 -1 767 541 238 -1 767 766 541 -1 395 787 768 -1 396 787 395 -1 360 347 359 -1 360 571 347 -1 472 220 470 -1 460 220 472 -1 176 347 177 -1 176 345 347 -1 740 298 569 -1 373 298 740 -1 788 789 790 -1 788 346 789 -1 631 172 735 -1 172 631 185 -1 460 474 220 -1 474 460 459 -1 45 235 89 -1 45 625 235 -1 61 134 136 -1 61 63 134 -1 758 471 470 -1 758 594 471 -1 565 291 139 -1 565 566 291 -1 203 640 205 -1 738 640 203 -1 641 564 201 -1 641 683 564 -1 260 78 80 -1 78 260 392 -1 10 748 609 -1 10 671 748 -1 226 180 182 -1 226 791 180 -1 143 72 71 -1 143 464 72 -1 704 714 713 -1 704 703 714 -1 558 112 108 -1 558 557 112 -1 503 111 504 -1 503 109 111 -1 703 792 714 -1 702 792 703 -1 793 794 101 -1 706 794 793 -1 381 387 795 -1 381 380 387 -1 712 705 710 -1 712 651 705 -1 792 378 115 -1 792 702 378 -1 101 118 793 -1 101 327 118 -1 706 796 794 -1 706 708 796 -1 707 651 712 -1 707 110 651 -1 577 783 513 -1 783 577 119 -1 727 102 797 -1 337 102 727 -1 744 745 649 -1 743 745 744 -1 798 794 796 -1 797 794 798 -1 798 799 436 -1 796 799 798 -1 397 351 302 -1 349 351 397 -1 317 540 404 -1 317 319 540 -1 407 350 308 -1 407 396 350 -1 682 316 680 -1 682 314 316 -1 412 680 316 -1 680 412 414 -1 403 538 406 -1 800 538 403 -1 417 408 418 -1 417 764 408 -1 334 800 336 -1 334 538 800 -1 411 801 761 -1 801 411 410 -1 410 786 801 -1 410 19 786 -1 415 533 532 -1 533 415 539 -1 528 416 421 -1 528 419 416 -1 660 431 430 -1 532 431 660 -1 531 420 525 -1 531 533 420 -1 423 728 529 -1 726 728 423 -1 525 777 531 -1 526 777 525 -1 524 801 786 -1 524 520 801 -1 637 423 636 -1 637 726 423 -1 518 438 519 -1 518 437 438 -1 779 775 589 -1 779 778 775 -1 588 774 587 -1 588 776 774 -1 727 798 725 -1 797 798 727 -1 330 781 780 -1 330 785 781 -1 517 550 551 -1 517 515 550 -1 514 440 516 -1 440 514 439 -1 329 782 784 -1 329 512 782 -1 802 553 122 -1 117 553 802 -1 799 711 795 -1 799 709 711 -1 445 653 105 -1 445 701 653 -1 765 803 804 -1 770 803 765 -1 177 571 805 -1 177 347 571 -1 501 449 450 -1 501 500 449 -1 769 238 240 -1 769 767 238 -1 806 177 803 -1 177 806 175 -1 32 16 30 -1 16 32 14 -1 7 240 237 -1 7 769 240 -1 50 89 236 -1 50 9 89 -1 155 175 806 -1 496 175 155 -1 461 355 496 -1 461 352 355 -1 790 491 363 -1 790 789 491 -1 247 615 254 -1 615 247 451 -1 621 256 752 -1 621 623 256 -1 616 39 163 -1 161 39 616 -1 363 304 790 -1 304 363 303 -1 568 234 542 -1 568 490 234 -1 686 365 743 -1 686 48 365 -1 136 662 489 -1 662 136 366 -1 749 465 143 -1 670 465 749 -1 672 465 670 -1 747 465 672 -1 807 465 747 -1 807 746 465 -1 488 282 284 -1 488 684 282 -1 739 273 271 -1 273 739 808 -1 737 753 370 -1 753 737 736 -1 605 610 731 -1 78 610 605 -1 185 173 172 -1 185 184 173 -1 187 86 58 -1 190 86 187 -1 268 147 186 -1 150 147 268 -1 473 809 224 -1 809 473 760 -1 596 632 809 -1 810 632 596 -1 742 659 627 -1 810 659 742 -1 229 741 227 -1 229 811 741 -1 52 759 688 -1 52 730 759 -1 179 694 639 -1 181 694 179 -1 759 478 688 -1 759 265 478 -1 54 265 169 -1 56 265 54 -1 811 759 730 -1 811 733 759 -1 55 612 194 -1 55 54 612 -1 639 170 179 -1 639 171 170 -1 741 730 638 -1 730 741 811 -1 810 595 659 -1 596 595 810 -1 809 545 596 -1 760 545 809 -1 742 632 810 -1 742 633 632 -1 224 632 148 -1 224 809 632 -1 223 724 611 -1 223 723 724 -1 364 219 218 -1 364 362 219 -1 735 174 692 -1 735 172 174 -1 692 475 735 -1 476 475 692 -1 731 286 288 -1 286 731 610 -1 197 191 369 -1 197 196 191 -1 484 812 485 -1 484 647 812 -1 204 484 202 -1 484 204 647 -1 33 289 290 -1 33 606 289 -1 743 750 745 -1 743 365 750 -1 472 491 353 -1 491 472 469 -1 206 615 133 -1 206 614 615 -1 376 620 665 -1 376 756 620 -1 258 752 256 -1 258 618 752 -1 257 248 253 -1 248 257 622 -1 790 597 788 -1 790 304 597 -1 346 354 789 -1 354 346 345 -1 788 358 359 -1 788 597 358 -1 806 770 497 -1 806 803 770 -1 678 242 241 -1 678 452 242 -1 14 772 301 -1 772 14 32 -1 804 177 805 -1 803 177 804 -1 318 678 241 -1 27 678 318 -1 675 301 772 -1 301 675 299 -1 805 395 804 -1 805 348 395 -1 509 506 507 -1 511 506 509 -1 511 719 506 -1 784 442 443 -1 782 442 784 -1 552 330 780 -1 552 328 330 -1 785 586 781 -1 586 785 584 -1 725 436 386 -1 798 436 725 -1 587 388 389 -1 587 774 388 -1 776 589 775 -1 589 776 588 -1 778 434 433 -1 434 778 779 -1 428 531 777 -1 428 431 531 -1 554 529 728 -1 554 527 529 -1 525 333 425 -1 525 420 333 -1 312 422 593 -1 312 636 422 -1 421 529 528 -1 423 529 421 -1 530 419 528 -1 530 536 419 -1 533 334 420 -1 533 539 334 -1 413 532 660 -1 415 532 413 -1 800 764 417 -1 800 403 764 -1 23 322 681 -1 322 23 22 -1 309 409 773 -1 409 309 402 -1 407 764 763 -1 407 408 764 -1 771 681 322 -1 771 679 681 -1 405 787 763 -1 405 592 787 -1 25 314 682 -1 314 25 320 -1 349 399 310 -1 399 349 397 -1 299 400 397 -1 299 675 400 -1 795 562 381 -1 562 795 711 -1 393 679 771 -1 679 393 28 -1 238 321 590 -1 321 238 541 -1 110 555 113 -1 707 555 110 -1 796 709 799 -1 708 709 796 -1 710 704 713 -1 704 710 705 -1 795 436 799 -1 436 795 387 -1 101 797 102 -1 794 797 101 -1 563 122 379 -1 802 122 563 -1 556 384 559 -1 556 385 384 -1 665 377 376 -1 377 665 666 -1 343 277 279 -1 277 343 667 -1 467 736 468 -1 753 736 467 -1 273 287 286 -1 287 273 808 -1 569 203 740 -1 569 738 203 -1 754 189 482 -1 189 754 729 -1 789 353 491 -1 789 354 353 -1 608 61 11 -1 608 290 61 -1 357 298 296 -1 357 570 298 -1 654 624 625 -1 654 668 624 -1 234 461 154 -1 461 234 490 -1 167 59 466 -1 59 167 630 -1 148 225 224 -1 150 225 148 -1 724 159 267 -1 724 157 159 -1 214 616 215 -1 214 263 616 -1 215 163 457 -1 215 616 163 -1 359 346 788 -1 359 347 346 -1 345 355 354 -1 176 355 345 -1 460 353 352 -1 460 472 353 -1 804 768 765 -1 395 768 804 -1 805 351 348 -1 351 805 571 -1 766 540 541 -1 766 592 540 -1 619 572 574 -1 619 755 572 -1 498 241 243 -1 590 241 498 -1 417 336 800 -1 417 536 336 -1 430 786 660 -1 524 786 430 -1 515 120 119 -1 120 515 440 -1 330 784 785 -1 330 329 784 -1 550 331 328 -1 331 550 577 -1 578 100 695 -1 578 579 100 -1 324 341 579 -1 342 341 324 -1 97 719 721 -1 506 719 97 -1 717 513 783 -1 718 513 717 -1 513 715 512 -1 718 715 513 -1 512 716 782 -1 512 715 716 -1 578 339 126 -1 339 578 340 -1 518 780 781 -1 518 432 780 -1 779 552 434 -1 551 552 779 -1 311 92 0 -1 311 313 92 -1 519 580 521 -1 580 519 438 -1 433 523 429 -1 523 433 435 -1 777 778 428 -1 777 775 778 -1 776 426 774 -1 526 426 776 -1 388 554 386 -1 427 554 388 -1 534 593 422 -1 593 534 762 -1 132 628 207 -1 132 661 628 -1 673 32 29 -1 772 32 673 -1 677 393 676 -1 394 393 677 -1 322 674 771 -1 322 323 674 -1 314 319 317 -1 320 319 314 -1 365 235 750 -1 236 235 365 -1 767 770 765 -1 770 767 769 -1 768 592 766 -1 787 592 768 -1 761 520 522 -1 761 801 520 -1 763 396 407 -1 396 763 787 -1 307 773 535 -1 307 309 773 -1 762 535 773 -1 762 534 535 -1 474 760 473 -1 474 568 760 -1 546 73 72 -1 73 546 232 -1 358 301 300 -1 301 358 14 -1 74 162 140 -1 456 162 74 -1 290 6 61 -1 290 3 6 -1 195 482 196 -1 754 482 195 -1 734 285 192 -1 734 288 285 -1 266 364 594 -1 362 364 266 -1 201 205 640 -1 201 200 205 -1 601 629 230 -1 601 600 629 -1 76 454 250 -1 76 75 454 -1 756 344 755 -1 756 376 344 -1 756 252 620 -1 617 252 756 -1 252 617 255 -1 572 344 279 -1 572 755 344 -1 644 499 751 -1 245 499 644 -1 281 547 607 -1 283 547 281 -1 547 739 271 -1 547 549 739 -1 60 268 58 -1 60 269 268 -1 266 758 267 -1 594 758 266 -1 140 276 74 -1 140 141 276 -1 256 622 257 -1 256 623 622 -1 618 751 752 -1 618 574 751 -1 253 247 254 -1 253 248 247 -1 237 239 591 -1 237 240 239 -1 155 497 156 -1 155 806 497 -1 668 368 567 -1 668 654 368 -1 290 36 33 -1 608 36 290 -1 671 749 748 -1 749 671 670 -1 746 667 343 -1 807 667 746 -1 666 465 377 -1 462 465 666 -1 72 75 546 -1 72 453 75 -1 744 685 687 -1 722 685 744 -1 65 650 306 -1 65 656 650 -1 479 226 228 -1 791 226 479 -1 363 471 364 -1 471 363 469 -1 214 492 262 -1 214 213 492 -1 219 212 216 -1 210 212 219 -1 210 208 211 -1 209 208 210 -1 249 206 455 -1 249 614 206 -1 133 451 131 -1 615 451 133 -1 202 740 203 -1 740 202 486 -1 200 204 205 -1 204 200 647 -1 372 485 566 -1 372 483 485 -1 485 199 291 -1 485 647 199 -1 647 485 812 -1 548 738 549 -1 738 548 640 -1 729 467 164 -1 754 467 729 -1 468 739 198 -1 468 808 739 -1 225 723 223 -1 225 269 723 -1 287 468 736 -1 287 808 468 -1 192 737 193 -1 192 285 737 -1 612 192 194 -1 612 734 192 -1 371 735 475 -1 735 371 369 -1 185 190 187 -1 185 631 190 -1 613 639 694 -1 54 639 613 -1 477 811 229 -1 477 733 811 -1 67 151 178 -1 67 153 151 -1 742 638 633 -1 741 638 742 -1 689 57 53 -1 689 693 57 -1 690 657 691 -1 658 657 690 -1 162 457 163 -1 162 458 457 -1 728 386 554 -1 725 386 728 -1 655 153 66 -1 153 655 152 -1 184 145 173 -1 145 184 146 -1 603 643 602 -1 603 642 643 -1 325 721 332 -1 325 97 721 -1 511 717 720 -1 717 511 510 -1 718 508 715 -1 718 509 508 -1 507 127 716 -1 127 507 129 -1 99 506 97 -1 99 128 506 -1 123 120 124 -1 120 123 121 -1 714 802 563 -1 714 792 802 -1 792 117 802 -1 117 792 115 -1 711 713 562 -1 711 710 713 -1 708 712 709 -1 707 712 708 -1 94 706 793 -1 94 555 706 -1 651 557 705 -1 651 112 557 -1 384 702 703 -1 702 384 383 -1 560 95 378 -1 95 560 502 -1 504 113 93 -1 113 504 111 -1 700 382 385 -1 700 698 382 -1 505 699 697 -1 699 505 561 -1 696 109 503 -1 696 107 109 -1 108 103 558 -1 106 103 108 -1 652 385 556 -1 385 652 700 -1 701 698 700 -1 698 701 445 -1 444 697 699 -1 697 444 446 -1 696 447 107 -1 696 448 447 -1 96 793 118 -1 94 793 96 -1 441 576 585 -1 576 441 338 -1 583 91 90 -1 91 583 391 -1 757 73 231 -1 142 73 757 -1 479 68 791 -1 66 68 479 -1 791 183 180 -1 183 791 68 -1 694 732 613 -1 732 694 634 -1 693 692 174 -1 691 692 693 -1 688 690 689 -1 688 478 690 -1 543 48 686 -1 49 48 543 -1 687 595 544 -1 685 595 687 -1 601 141 603 -1 141 601 276 -1 38 294 642 -1 38 37 294 -1 600 487 629 -1 600 488 487 -1 683 602 643 -1 683 684 602 -1 414 681 680 -1 681 414 23 -1 28 682 679 -1 28 25 682 -1 27 449 678 -1 449 27 26 -1 400 674 398 -1 674 400 676 -1 21 401 323 -1 21 20 401 -1 673 394 677 -1 673 450 394 -1 375 10 13 -1 375 671 10 -1 624 750 235 -1 624 669 750 -1 567 663 668 -1 567 664 663 -1 277 274 280 -1 277 275 274 -1 807 374 667 -1 807 747 374 -1 454 666 665 -1 454 453 666 -1' creaseAngle='1.571'>
            <Coordinate DEF='rulna_Coord' point='-7.1769 28.8806 1.5804 -7.2022 28.8201 1.6241 -7.2689 28.8009 1.5876 -7.5264 36.8243 -1.533 -7.5853 36.9465 -1.6805 -7.5993 36.9154 -1.7268 -7.5338 36.8021 -1.5989 -7.5217 35.3975 -1.2927 -7.499 35.6973 -1.4419 -7.4591 35.748 -1.5628 -7.6136 36.6204 -1.3973 -7.6129 36.6336 -1.4373 -7.6353 36.5419 -1.4547 -7.6394 36.5458 -1.4025 -7.0303 34.9728 -0.8793 -6.9369 35.4897 -1.0341 -6.9537 35.504 -1.0052 -6.8502 35.8955 -1.1094 -6.8598 35.9052 -1.0801 -7.1326 29.7882 1.4472 -7.0978 30.2226 1.1776 -7.1198 30.2329 1.2045 -7.1789 30.253 1.253 -7.2083 30.2659 1.2862 -7.1864 29.8195 1.5108 -7.4235 32.9049 0.198 -7.4471 34.0369 -0.2939 -7.47 34.0389 -0.288 -7.4021 32.9008 0.1875 -7.1574 35.0039 -0.7995 -7.0121 35.5426 -0.9509 -7.1088 35.5905 -0.9022 -7.0865 34.9945 -0.8229 -7.4354 36.7641 -1.2624 -7.369 36.7903 -1.1079 -7.347 36.8045 -1.1236 -7.449 36.7591 -1.2489 -6.8799 36.9974 -0.8871 -6.9177 37.0738 -0.8769 -6.9278 36.9427 -0.8929 -6.8042 36.9049 -0.971 -6.7182 36.8183 -1.0861 -6.796 36.9064 -0.9823 -6.7203 36.8285 -1.0903 -7.5678 36.1238 -1.383 -7.5239 35.8731 -1.3895 -7.5397 35.8679 -1.3403 -7.4071 36.0048 -1.7649 -7.4119 36.2345 -1.8315 -7.3862 36.2196 -1.8578 -7.4285 36.023 -1.7358 -7.1063 37.1954 -2.1374 -7.1253 37.3617 -2.0195 -7.1121 37.3667 -2.0191 -7.4697 37.5395 -1.6262 -7.3567 37.5927 -1.632 -7.3587 37.5927 -1.6459 -7.0627 37.3925 -2.0237 -6.8527 37.1352 -1.9215 -6.8521 36.9197 -1.8139 -6.8587 36.9159 -1.8262 -7.5643 36.6755 -1.4984 -7.5331 36.7895 -1.6259 -7.5308 36.7764 -1.6508 -7.5749 36.8784 -1.7927 -7.5664 36.8742 -1.7987 -7.723 37.157 -1.8646 -7.7234 37.206 -1.8041 -7.7324 37.2811 -1.7676 -7.6063 36.8968 -1.7695 -7.59 36.8873 -1.7803 -7.4141 36.6336 -1.1702 -7.4031 36.601 -1.1308 -7.3799 36.6721 -1.1285 -7.1624 36.8753 -0.9065 -7.3628 36.6546 -0.9704 -7.35 36.6296 -0.9556 -7.2265 36.8464 -0.9313 -7.5273 37.1573 -1.6233 -7.6763 37.2642 -1.6804 -7.6032 37.1291 -1.6639 -7.617 37.2813 -1.6237 -7.0503 36.9509 -1.5952 -6.9594 36.9167 -1.6999 -6.9897 36.9821 -1.6635 -6.8976 37.0261 -1.739 -6.8397 37.2095 -1.8622 -6.8587 37.2233 -1.8202 -6.8697 36.9969 -1.7652 -7.476 35.806 -1.4891 -7.1192 28.8574 1.6633 -7.1315 28.8522 1.6564 -7.1098 28.9291 1.6288 -7.4152 28.6138 1.674 -7.389 28.6388 1.6604 -7.3884 28.6098 1.7248 -7.3644 28.6485 1.7117 -7.3539 28.8461 1.8073 -7.3072 28.7948 1.7223 -7.3047 28.8342 1.7618 -7.2884 28.7731 1.6296 -7.3363 28.7194 1.6109 -7.2947 28.7845 1.5725 -7.4972 28.6136 1.7379 -7.4727 28.5988 1.7251 -7.4765 28.6069 1.7367 -7.4882 28.6039 1.7138 -7.4708 28.5958 1.7045 -7.4986 28.6084 1.7043 -7.4709 28.5979 1.6912 -7.5271 28.6322 1.671 -7.4704 28.6023 1.6805 -7.5218 28.6222 1.6896 -7.4685 28.6124 1.6642 -7.343 28.6729 1.7328 -7.3843 28.6736 1.804 -7.3548 28.6523 1.7317 -7.3808 28.694 1.8046 -7.3528 28.6661 1.7043 -7.4061 28.9329 2.0443 -7.487 28.9087 1.9861 -7.4737 28.8967 1.9675 -7.4446 28.7606 1.8088 -7.4924 28.8582 1.8789 -7.5132 28.861 1.8794 -7.4404 28.7693 1.8132 -7.2461 28.85 1.7657 -7.2251 28.8816 1.804 -7.3016 28.8839 1.8117 -7.2957 28.8903 1.8229 -7.4273 28.8135 1.8197 -7.1598 35.6028 -0.8986 -7.099 35.949 -0.9848 -7.1518 35.9554 -0.9219 -7.5236 36.7426 -1.7126 -7.5198 36.5485 -1.6459 -7.5432 36.5872 -1.5899 -6.8046 36.8948 -1.067 -6.8109 36.9192 -1.0128 -6.7581 36.851 -1.1078 -7.0017 36.9296 -0.8894 -6.9799 37.0715 -0.8834 -7.4449 36.6543 -1.2361 -7.4629 36.5787 -1.2298 -7.0912 37.2023 -2.1317 -7.0508 37.3924 -2.0244 -6.9881 37.2629 -2.0752 -6.9752 37.2203 -2.075 -7.0664 36.9903 -2.0983 -7.0961 37.1594 -2.1236 -6.9579 37.0627 -2.0342 -7.6699 37.1159 -1.7305 -7.6224 36.9504 -1.7546 -7.698 37.1325 -1.808 -7.3592 35.9894 -1.7964 -7.3455 35.6795 -1.6659 -7.3988 35.7075 -1.6164 -6.8992 36.8218 -1.7793 -6.8782 36.824 -1.7124 -6.8847 36.8028 -1.7206 -6.8849 36.8404 -1.7579 -6.8751 36.9431 -0.9163 -7.074 36.7107 -0.9899 -6.9972 36.7472 -1.0019 -7.0655 36.9645 -1.5833 -7.0589 36.9538 -1.5769 -6.9059 36.8805 -1.707 -6.9109 36.8976 -1.7231 -6.9428 36.8995 -1.6851 -7.4645 37.5071 -1.8202 -7.5432 37.484 -1.7627 -7.5232 37.5026 -1.7351 -6.9887 37.5288 -1.8816 -7.016 37.4447 -1.9758 -7.0911 37.534 -1.9015 -7.2726 35.2904 -1.5346 -7.2361 35.2993 -1.5073 -7.2766 34.8243 -1.2942 -7.7216 37.2452 -1.748 -7.616 37.4503 -1.6993 -7.7221 37.3666 -1.7073 -7.6763 37.4058 -1.6295 -7.6513 37.4062 -1.7515 -7.7254 37.3476 -1.6978 -6.9306 37.3057 -2.0157 -6.8821 37.3478 -1.9486 -6.9121 37.2637 -2.0125 -6.8755 37.3006 -1.944 -6.9213 37 -1.7173 -6.9174 37.036 -1.7219 -6.8588 37.3768 -1.8434 -6.8877 37.4137 -1.8032 -7.2989 37.4924 -1.4103 -7.2441 37.5238 -1.4264 -7.2858 37.555 -1.4237 -7.0381 37.3631 -1.7163 -6.9445 37.4093 -1.7748 -7.02 37.4944 -1.7268 -7.0898 36.9466 -1.4872 -6.8366 36.8096 -1.171 -6.9121 36.8186 -1.2073 -6.966 36.8922 -1.1021 -6.9003 36.7932 -1.3315 -6.9815 36.8389 -1.35 -6.8919 36.7907 -1.3142 -6.9601 36.824 -1.2889 -7.199 36.3966 -1.0033 -7.0986 36.3822 -1.0516 -6.8443 36.7968 -1.6445 -6.8547 36.7739 -1.6467 -6.743 36.73 -1.4509 -6.7237 36.7516 -1.4405 -6.6639 36.7239 -1.2406 -6.7666 36.5991 -1.1358 -6.7505 36.6486 -1.1367 -6.8994 36.6083 -1.0903 -6.6776 36.6442 -1.2338 -6.6951 36.5809 -1.2252 -6.7322 36.5757 -1.3537 -6.7355 36.6681 -1.4036 -7.0918 36.4023 -1.8497 -7.0696 36.5378 -1.8974 -7.0656 36.5392 -1.8596 -6.9761 36.7858 -1.919 -7.0722 36.7537 -2.0259 -6.9503 36.8397 -1.9743 -7.6821 37.303 -1.8396 -7.6161 37.1533 -2.0092 -7.7056 37.1453 -1.9129 -7.5779 37.2808 -1.9351 -7.2625 36.8452 -1.0097 -7.3854 36.7666 -1.0908 -7.2885 36.7895 -0.9976 -7.5588 35.9075 -1.2928 -7.3556 36.2129 -1.8691 -7.4692 36.1352 -1.6135 -7.441 36.1056 -1.6702 -7.5393 35.5037 -1.2036 -7.6052 34.4871 -0.6963 -7.5786 34.9708 -0.9188 -7.574 34.9522 -0.9506 -7.5659 34.5578 -0.5492 -7.493 35.0463 -0.7455 -7.52 35.0408 -0.768 -7.5809 35.0181 -0.8379 -7.5587 35.6281 -1.0781 -7.5715 35.6083 -1.11 -7.3874 35.6329 -0.8665 -7.4078 35.6325 -0.879 -7.2972 36.5269 -0.9903 -7.4438 36.4372 -0.999 -7.4024 36.352 -1.0101 -7.4301 36.2988 -1.0245 -7.4005 35.9714 -0.9367 -7.3585 35.9784 -0.9106 -7.4619 36.2443 -1.0885 -7.435 35.9303 -1.0533 -7.4209 35.9437 -1.0131 -7.4801 36.213 -1.1198 -7.443 36.8515 -1.4844 -7.5228 36.9753 -1.6154 -6.6656 36.7219 -1.2142 -6.6834 36.6487 -1.1975 -6.7355 36.7473 -1.0938 -7.2746 37.6032 -1.7294 -7.3494 37.5634 -1.8093 -6.9024 36.7101 -1.6407 -6.9239 36.7488 -1.7391 -6.8919 37.0938 -1.9728 -6.8923 36.8964 -1.889 -7.3517 36.8667 -1.4673 -7.2353 36.9077 -1.4714 -7.3923 37.0232 -1.5732 -7.2907 37.0582 -1.5578 -7.655 36.4449 -1.431 -7.6647 36.469 -1.3857 -7.1221 36.9983 -0.9009 -7.657 36.3809 -1.346 -7.6462 36.2636 -1.307 -7.6393 36.3125 -1.2907 -7.653 36.3498 -1.3865 -7.2868 36.8326 -1.1625 -7.0565 36.9933 -1.0479 -7.1786 36.8668 -1.2045 -7.1875 36.9195 -1.0353 -7.3013 37.4178 -1.4707 -7.3475 37.2096 -1.5585 -7.265 37.2359 -1.5484 -7.4039 37.3832 -1.5048 -7.4245 36.8227 -1.4509 -7.5152 36.7651 -1.434 -6.7821 36.803 -1.1942 -6.8053 36.9192 -0.998 -6.8741 37.0292 -0.9474 -6.8739 37.0047 -0.8941 -6.7311 36.8052 -1.4531 -6.8462 36.8457 -1.628 -6.7534 36.836 -1.4352 -6.867 36.8691 -1.6014 -7.0867 33.9579 -0.499 -7.073 34.4247 -0.755 -7.0824 34.4496 -0.7118 -7.0951 33.9379 -0.5457 -6.7905 36.221 -1.2535 -6.85 35.8639 -1.1816 -6.78 36.2436 -1.1745 -7.5362 36.8417 -1.831 -7.1127 30.7071 0.6546 -7.1664 31.7325 0.1851 -7.0459 30.7306 0.7212 -7.0582 31.7686 0.2416 -7.1741 28.9232 1.5634 -7.1757 29.1434 1.5037 -7.1096 28.9637 1.6123 -7.44 31.9824 0.585 -7.3857 30.8822 1.0041 -7.3662 30.8892 1.0229 -7.4742 31.9711 0.5626 -7.5866 34.0359 -0.295 -7.5619 32.8961 0.197 -7.5111 32.9063 0.2222 -7.6205 34.0259 -0.3179 -7.1585 30.8415 0.9529 -7.0616 30.8103 0.916 -7.3184 28.7785 1.7177 -7.3666 28.8297 1.7989 -7.3775 28.7994 1.7877 -7.3241 28.7123 1.6787 -7.2222 28.9788 2.0652 -7.1748 28.9021 1.9824 -7.1452 28.9132 1.9956 -7.2435 28.9509 2.0451 -7.3986 28.8598 1.8395 -7.5202 29.5627 1.5768 -7.4936 29.8317 1.4467 -7.5224 29.5017 1.4642 -7.5237 29.7701 1.3347 -7.2577 28.8519 1.5327 -7.1997 28.7661 1.7216 -7.2291 28.8391 1.7606 -7.2317 28.7945 1.6874 -7.3262 28.714 1.7113 -7.3363 28.7228 1.7342 -7.5402 36.4143 -1.2645 -7.5847 36.3067 -1.2369 -7.1148 35.3445 -1.3517 -7.0369 35.3639 -1.2771 -7.1088 34.8798 -1.1311 -7.2837 33.8183 -0.7746 -7.1048 32.7854 -0.1817 -7.2324 32.7657 -0.2673 -7.12 33.8951 -0.6372 -7.1485 36.0507 -1.7674 -7.0805 36.0967 -1.6318 -7.1119 35.7412 -1.5143 -7.2166 35.6889 -1.6555 -6.9275 36.8882 -1.6709 -6.8938 36.8661 -1.6916 -7.0107 34.9422 -0.9392 -7.048 34.8955 -1.0481 -7.0823 34.369 -0.837 -6.6745 36.7821 -1.2282 -6.7733 36.6802 -1.4576 -6.8377 36.2049 -1.3471 -6.7953 36.5872 -1.4417 -7.4379 36.275 -1.7592 -7.5492 36.5213 -1.5606 -7.6149 36.1679 -1.2912 -7.5978 36.264 -1.3912 -6.999 37.594 -1.7362 -7.1652 37.5036 -1.5853 -7.1352 37.6199 -1.5255 -6.7795 36.8236 -1.3882 -6.8666 36.8247 -1.4778 -7.5622 36.4966 -1.3192 -7.5557 36.5395 -1.326 -7.5142 36.3654 -1.1374 -7.4883 36.4188 -1.1919 -7.4007 28.6275 1.7855 -7.5153 28.7913 1.8054 -7.5407 28.8492 1.76 -7.55 28.7873 1.7568 -7.4551 28.6101 1.776 -7.4531 28.6244 1.788 -7.4996 28.6396 1.784 -7.4822 28.6213 1.7716 -7.5423 28.933 1.5936 -7.5677 28.8196 1.6527 -7.5428 28.9952 1.6915 -7.5451 28.8894 1.7398 -7.1907 28.8193 1.6342 -7.1593 28.7864 1.6818 -7.45 37.0032 -1.5883 -7.2964 32.9099 0.0686 -7.3239 34.0098 -0.3719 -7.411 33.8217 -0.762 -7.3577 32.757 -0.2879 -7.0631 32.8254 -0.0822 -7.0527 31.8731 0.3893 -7.0111 31.8335 0.3388 -7.1302 32.8549 -0.0212 -7.0386 30.7965 0.8951 -7.0203 30.7736 0.8153 -7.4599 30.7966 0.8093 -7.4786 31.928 0.4774 -7.4735 31.8518 0.3406 -7.4189 30.856 0.9406 -7.292 31.7433 0.1525 -7.2694 30.7295 0.6424 -7.0575 30.1949 1.101 -7.1206 29.7626 1.3848 -7.1172 29.7227 1.3059 -7.3172 30.2803 1.3076 -7.2099 29.8284 1.522 -7.229 30.2708 1.297 -7.267 29.8405 1.5154 -7.3014 29.6385 1.1716 -7.4084 30.0931 1.0259 -7.2889 30.0505 0.9689 -7.4336 29.688 1.2041 -7.499 29.5796 1.6121 -7.3028 29.3382 1.3234 -7.2321 29.3527 1.3714 -7.313 29.0891 1.4419 -7.5169 29.2254 1.5937 -7.5431 29.2936 1.7276 -7.5869 29.1506 1.7727 -7.5364 29.0721 1.658 -7.2935 29.2569 2.0142 -7.1662 29.2474 1.9842 -7.1836 29.3566 1.8232 -7.289 29.3816 1.8546 -7.0611 29.0413 1.9959 -7.1551 29.1742 2.035 -7.1807 29.0961 2.083 -7.0647 29.1335 1.9487 -7.5511 28.7929 1.6095 -7.0497 28.9022 1.7466 -7.0494 28.9971 1.707 -7.5524 28.8885 1.8985 -7.4993 28.9413 2.0116 -7.1915 28.7636 1.732 -7.2086 28.8711 1.8018 -7.1442 28.7792 1.8016 -7.4496 28.5949 1.745 -7.4584 28.5987 1.75 -7.4505 28.5944 1.7356 -7.464 28.5947 1.7205 -7.4516 28.5943 1.7258 -7.4082 34.5388 -0.5485 -7.2794 34.5099 -0.5991 -7.2587 35.6267 -0.8919 -7.3761 35.0341 -0.7424 -7.4473 36.5147 -1.1069 -7.456 36.4955 -1.0198 -7.1948 36.5453 -0.9868 -7.1877 36.6855 -0.9724 -7.0613 36.5832 -1.0278 -7.0964 36.5714 -1.0176 -7.1584 36.1933 -1.869 -7.1211 36.2119 -1.8109 -7.2072 36.0289 -1.8305 -7.47 36.5205 -1.2029 -7.4637 36.5354 -1.1897 -7.4563 36.5605 -1.2015 -7.4764 36.5057 -1.216 -6.8727 36.9751 -1.7552 -7.1195 37.121 -1.6261 -7.1566 37.0945 -1.5738 -6.9404 36.2372 -1.4924 -7.0152 36.5259 -1.7443 -6.9462 36.5594 -1.6022 -7.0568 36.2471 -1.673 -7.0849 36.5352 -1.9513 -7.1302 36.3591 -1.9035 -7.1545 37.6473 -1.5341 -7.2539 37.6281 -1.7029 -7.5599 37.3986 -1.859 -7.212 37.5916 -1.7962 -7.7184 37.1532 -1.8923 -7.5941 36.9385 -1.8566 -7.6194 36.9347 -1.8514 -6.9183 37.1909 -1.7783 -6.8577 36.7899 -1.3396 -6.8761 36.7901 -1.3585 -6.8547 36.7827 -1.3126 -6.893 36.7945 -1.3481 -7.2289 36.8932 -1.031 -7.1153 37.0225 -0.9332 -7.5597 36.5986 -1.5273 -7.2088 36.1933 -1.8885 -6.9501 36.1569 -1.4689 -6.705 36.5895 -1.1919 -6.8466 36.2837 -1.1161 -6.7849 36.2576 -1.1364 -6.8953 35.9128 -1.0559 -7.2562 35.6718 -1.6964 -7.4244 35.319 -1.4511 -7.5454 35.0303 -0.801 -7.478 35.6196 -1.0624 -7.3516 35.031 -0.7452 -7.228 35.0132 -0.7763 -7.4063 28.5999 1.7285 -7.4331 28.5974 1.7056 -7.426 28.6026 1.6896 -7.4299 28.5968 1.7325 -7.3276 28.8795 1.8232 -7.2918 28.8955 1.8388 -7.2972 28.9039 1.8534 -7.3134 28.9088 1.8597 -7.3288 28.9026 1.8533 -7.3361 28.8973 1.8446 -7.2176 28.9325 1.9358 -7.2927 28.9574 1.9663 -7.5821 28.9258 1.8941 -7.4272 28.9664 2.07 -7.523 28.9998 2.028 -7.4331 29.0233 2.0769 -7.0224 28.9676 1.8966 -7.0105 29.0725 1.8432 -7.1065 29.2734 1.7218 -7.0254 29.1438 1.8019 -7.1095 29.2491 1.6848 -7.0743 29.199 1.8947 -7.1243 29.3144 1.7818 -7.4929 29.3444 1.7986 -7.5268 29.2244 1.9326 -7.4939 29.1734 1.5159 -7.4404 29.4088 1.3438 -7.4407 29.1326 1.471 -7.4691 29.4414 1.3859 -7.4267 29.3831 1.8345 -7.2748 29.5887 1.6716 -7.4162 29.5979 1.6701 -7.1943 29.6641 1.2085 -7.1569 30.0832 0.9843 -7.4604 29.7124 1.243 -7.3859 30.2797 1.2997 -7.4439 30.2522 1.2408 -7.4027 29.8451 1.5012 -7.5758 32.8523 0.1093 -7.6151 33.9746 -0.4331 -7.3764 36.3855 -1.9386 -7.3957 36.3929 -1.9288 -7.4031 36.5578 -1.991 -7.3831 36.549 -1.9922 -7.304 36.7486 -0.9886 -7.2112 36.8662 -1.3315 -7.1014 36.8858 -1.2292 -7.1327 36.9017 -1.3515 -7.3262 28.9844 2.0979 -7.3006 29.0332 2.1134 -7.1984 29.032 2.0936 -7.3835 28.7448 1.7903 -7.5288 29.0103 1.5694 -7.4634 28.6366 1.6347 -7.4965 28.6224 1.7561 -7.5326 28.6369 1.7349 -7.5115 28.6223 1.7388 -7.5222 28.642 1.7652 -7.4145 28.6123 1.7765 -7.4268 28.5994 1.76 -7.5459 28.7213 1.7742 -7.5084 28.7247 1.8099 -6.8797 37.0304 -0.9579 -6.7211 36.8128 -1.2544 -6.7651 36.7895 -1.26 -7.5781 36.3269 -1.4532 -7.2089 36.3572 -1.9477 -7.0197 36.9186 -1.535 -6.9124 36.8877 -1.6583 -7.1293 34.3602 -0.8889 -7.6394 36.265 -1.2871 -7.592 36.1609 -1.2562 -7.5509 36.1781 -1.23 -7.2253 28.793 1.6676 -7.1775 28.7606 1.7054 -7.3234 28.9527 2.0708 -7.2391 28.7946 1.6829 -7.2963 28.7769 1.6726 -7.055 29.0382 1.6837 -7.1377 29.192 1.5899 -7.4003 28.9052 1.8951 -7.1493 28.7861 1.6905 -7.1152 28.7748 1.7963 -7.1686 28.7584 1.7152 -7.0845 28.8162 1.7906 -7.6029 28.9777 1.868 -7.5392 29.0649 2.0208 -7.4351 29.0859 2.0661 -7.5999 34.5455 -0.5825 -7.5514 35.5765 -1.1487 -7.5383 32.8329 -0.0813 -7.1747 29.3937 1.4274 -6.9273 36.6172 -1.6185 -7.4455 36.7727 -2.0403 -7.4005 36.7561 -2.0642 -6.9223 35.4419 -1.074 -6.7095 36.8124 -1.25 -6.6817 36.7935 -1.2314 -7.1183 37.0203 -0.9203 -7.1246 37.009 -0.9088 -7.0072 37.0928 -0.9173 -6.9822 37.083 -0.8894 -6.7438 36.8442 -1.1043 -7.5857 37.2903 -1.5937 -7.3818 36.8 -1.289 -7.3272 36.8318 -1.3064 -7.5468 36.7334 -1.3754 -7.5546 36.7004 -1.347 -7.4414 37.1836 -1.5916 -6.9786 36.7057 -1.834 -7.4318 37.4977 -1.4366 -7.5228 37.4589 -1.4904 -7.2689 36.3877 -0.9995 -7.2405 35.9641 -0.9235 -6.8722 36.7616 -1.0441 -7.4858 36.2594 -1.1113 -7.5251 36.1817 -1.1955 -7.5544 36.212 -1.218 -7.4776 36.3673 -1.0519 -7.454 35.6244 -1.0279 -7.4209 35.6252 -0.9583 -7.4301 35.6244 -0.9774 -7.5289 36.2649 -1.5293 -7.5326 36.2016 -1.4989 -7.5917 35.9182 -1.23 -7.6083 37.0912 -2.0231 -6.9757 36.3325 -1.1021 -7.2338 36.8886 -1.0192 -6.8849 36.8473 -1.7701 -6.87 37.424 -1.8393 -7.2171 36.9247 -2.1256 -7.217 37.0984 -2.1722 -7.6244 37.3884 -1.5295 -7.6755 37.3616 -1.6106 -7.2289 29.1179 1.4525 -7.2458 28.8976 1.5144 -7.2328 37.1579 -2.1591 -7.5703 37.4891 -1.654 -7.0425 36.882 -1.255 -7.0109 36.9887 -1.0567 -6.9157 37.0852 -0.8818 -6.9251 37.1022 -0.909 -7.5701 35.9198 -1.1957 -7.5145 36.9077 -2.0269 -7.5543 36.9277 -1.9403 -6.8697 36.787 -1.2938 -6.891 36.8465 -1.7891 -7.5073 36.6815 -1.7911 -7.571 36.9338 -1.9003 -7.5328 28.6354 1.6743 -7.4882 28.6149 1.7485 -7.4722 28.6052 1.7422 -7.5729 36.2417 -1.432 -7.6333 36.9416 -1.835 -7.5848 36.9366 -1.8667 -7.2606 37.6221 -1.7127 -7.267 37.611 -1.7207 -7.4978 36.903 -2.045 -7.2076 29.5697 1.6498 -6.9955 35.9308 -1.0298 -7.5631 36.5264 -1.5263 -7.546 36.3833 -1.5345 -7.5695 36.4033 -1.4982 -7.4841 36.422 -1.0748 -7.4678 36.4667 -1.1494 -7.5512 36.4554 -1.2919 -7.5566 36.3049 -1.486 -7.5232 36.3614 -1.5758 -7.4953 36.5564 -1.2597 -7.5492 36.5825 -1.3328 -7.4997 36.5429 -1.2604 -7.1864 34.49 -0.6339 -7.0778 31.8877 0.4098 -7.1632 33.9793 -0.4424 -7.1587 32.8656 -0.0015 -7.1946 33.9864 -0.4247 -7.4322 34.5428 -0.5444 -7.3099 31.972 0.5599 -7.2438 30.8779 1.0182 -7.222 30.8723 1.0096 -7.3321 31.9765 0.569 -6.9301 37.1017 -0.9199 -7.0064 37.093 -0.9297 -7.4696 36.7758 -2.0091 -7.4204 36.4118 -1.9017 -7.4298 36.5685 -1.9627 -7.1559 37.5112 -1.8939 -7.1432 37.5168 -1.8932 -7.2007 37.5992 -1.7911 -7.1634 37.6204 -1.788 -7.1524 37.6268 -1.781 -7.1064 37.5372 -1.8964 -7.6305 37.4307 -1.5441 -7.2368 28.7939 1.6598 -7.446 28.5949 1.7151 -7.4436 28.5952 1.7346 -7.4596 28.6037 1.7635 -7.4418 28.5961 1.7534 -7.478 28.6134 1.761 -7.4676 28.6035 1.7488 -7.4487 28.6424 1.7989 -7.5029 28.6578 1.7954 -7.5332 28.6588 1.7703 -7.546 28.6513 1.7312 -7.4613 28.6523 1.6191 -7.5222 28.6472 1.649 -7.5223 28.6645 1.6349 -7.5468 28.6798 1.6497 -7.5569 28.6841 1.7216 -7.5612 28.7055 1.7153 -7.5426 28.6604 1.6595 -7.5427 28.6995 1.7757 -7.5064 28.7027 1.8077 -7.2312 28.934 1.9214 -7.2103 28.9015 1.8653 -7.3528 28.929 1.921 -7.2936 28.9526 1.9457 -7.3355 28.886 1.8316 -7.381 28.9085 1.8876 -7.3787 28.8651 1.8372 -7.4996 36.8043 -1.92 -6.913 36.8436 -1.8568 -6.9216 36.7854 -1.7957 -7.4651 28.8894 1.5386 -7.3398 28.9093 1.4815 -7.3509 28.8436 1.5036 -7.4514 28.9534 1.5181 -6.9983 37.0162 -1.6584 -7.2787 37.3246 -2.041 -7.4885 37.3466 -1.5446 -7.5221 37.4166 -1.4835 -7.4564 37.4217 -1.9209 -7.4231 37.4654 -1.4276 -7.0116 37.623 -1.761 -7.2063 37.2624 -1.5696 -7.2424 37.4365 -1.4922 -7.0626 36.8996 -1.3735 -7.1486 36.9462 -1.4676 -6.9468 36.8453 -1.4285 -7.4277 37.1368 -2.1184 -7.4255 37.0756 -2.1309 -7.4539 36.4624 -1.8269 -7.4692 36.6122 -1.8787 -7.4888 36.5017 -1.734 -7.4925 36.5043 -1.2385 -7.4993 36.5298 -1.2555 -7.5007 36.6416 -1.2971 -7.4802 36.5747 -1.2486 -7.4735 36.3097 -1.6791 -7.4944 35.9414 -1.1527 -7.4706 35.9435 -1.1203 -7.1545 37.2916 -1.6239 -7.0203 37.1555 -1.7012 -7.5886 36.2624 -1.2276 -7.5088 36.3149 -1.1189 -7.4561 36.7313 -1.2308 -6.9814 36.6419 -1.7452 -7.3161 37.4583 -1.9253 -7.2123 36.5358 -2.0096 -7.1476 29.4282 1.503 -7.141 29.6902 1.2529 -7.3599 31.7651 0.1881 -7.3625 30.7405 0.6843 -7.4777 34.3567 -0.9562 -7.5798 33.9194 -0.5549 -7.5754 34.4299 -0.8073 -7.4765 33.8461 -0.7043 -7.5496 34.8969 -1.0523 -7.4587 34.839 -1.2044 -7.2035 31.9299 0.4797 -7.1618 34.4847 -0.6432 -7.0868 30.1294 1.0291 -7.6001 29.0663 1.8158 -7.4315 29.1766 2.034 -7.5372 29.1524 1.9738 -7.4298 29.2473 1.9863 -7.2968 29.1849 2.0687 -7.3033 29.1048 2.1052 -7.0924 28.9748 2.0166 -7.0547 28.8942 1.9121 -7.1916 28.8942 1.8702 -7.3659 28.9306 1.9381 -7.1367 28.8443 1.9007 -7.0967 28.8441 1.9034 -7.1574 29.5166 1.6205 -7.4317 32.7752 -0.232 -6.9684 35.3882 -1.1948 -7.0018 35.7951 -1.3852 -6.8947 35.8391 -1.2842 -7.7264 37.2956 -1.7865 -7.4377 28.6872 1.8152 -7.3788 28.655 1.6486 -7.4354 28.6927 1.5859 -7.5656 28.757 1.6837 -7.5057 28.6955 1.6057 -7.4078 28.7435 1.5471 -7.481 28.7568 1.5737 -7.5497 28.7286 1.6287 -7.4969 30.1787 1.1274 -7.139 29.4721 1.5749 -7.4369 28.7091 1.817 -7.3849 34.8192 -1.2706 -7.4009 34.3212 -1.0138 -7.2869 34.3006 -1.0262 -7.3634 35.2905 -1.5123 -7.4981 36.5145 -1.2489 -7.218 37.0813 -1.5474 -7.2132 36.7206 -2.0748 -7.4176 36.8881 -2.0916 -7.432 37.2896 -2.0092 -6.8622 36.7848 -1.3032'/>
          </IndexedFaceSet>
        </Shape>
      </Group>
    </Transform>
  </Scene>
</X3D>